<svg width="21" height="16" viewBox="0 0 21 16" fill="none" xmlns="http://www.w3.org/2000/svg">
<path d="M0.896484 4.1198H1.64648V13.2568H0.896484V4.1198ZM19.6235 15.1018L19.0495 14.7308C18.0235 14.0718 16.8745 13.6628 15.6945 13.5198C14.5125 13.3748 13.2995 13.4948 12.1455 13.8898L10.5395 14.4388L9.4845 14.0158C8.3605 13.5658 7.16349 13.3808 5.98349 13.4588C4.80549 13.5368 3.64249 13.8768 2.58949 14.4708L1.4545 15.1128L1.08849 14.4608L2.2235 13.8218C3.3775 13.1688 4.64848 12.7968 5.93748 12.7118C7.22548 12.6268 8.53349 12.8278 9.76349 13.3228L10.5595 13.6408L11.9045 13.1808C13.1665 12.7488 14.4925 12.6188 15.7815 12.7748C17.0735 12.9318 18.3305 13.3788 19.4535 14.1008L20.0275 14.4718L19.6235 15.1018ZM20.2015 13.0068H19.4505V4.11879H20.2015V13.0068ZM1.08849 2.62379L2.2195 1.9868C3.3745 1.3328 4.64449 0.960786 5.93149 0.874786C7.22049 0.789786 8.52748 0.991795 9.75848 1.4838L10.5525 1.8008L11.5525 1.42279C12.7915 0.954791 14.1035 0.7818 15.3875 0.8918C16.6735 1.0018 17.9365 1.39979 19.0755 2.07379L20.0175 2.6268L19.6365 3.27179L18.6945 2.7168C17.6545 2.1028 16.4995 1.74179 15.3225 1.63879C14.1465 1.53679 12.9465 1.69779 11.8155 2.12379L10.5445 2.60379L9.47949 2.1778C8.35649 1.7278 7.15948 1.5448 5.98048 1.6218C4.80048 1.7028 3.6395 2.04079 2.58549 2.63579L1.4545 3.2748L1.08849 2.62379ZM10.1745 4.1198H10.9245V12.2658H10.1745V4.1198Z" fill="white"/>
</svg>
