<svg width="18" height="18" viewBox="0 0 18 18" fill="none" xmlns="http://www.w3.org/2000/svg">
<path d="M3.34079 9.78088H4.09079V17.5509H3.34079V9.78088ZM6.28179 1.22789L7.17979 7.22789L6.98679 7.36189C6.98279 7.36489 5.64479 8.29088 3.71579 8.29088C1.89079 8.29088 0.466788 7.36989 0.462788 7.36989L0.258789 7.23788L1.15679 1.22789L1.89779 1.33589L1.07179 6.85689C1.48879 7.07989 2.49579 7.54088 3.71579 7.54088C5.00379 7.54088 5.97279 7.08488 6.36779 6.86488L5.54079 1.33589L6.28179 1.22789ZM11.9858 17.7129V0.219879L12.4558 0.343887C12.4618 0.344887 14.4808 0.86589 15.4778 2.83989C16.7698 5.39889 17.3938 10.7669 17.3958 10.7839L17.4218 11.0279L14.6178 12.6129L14.2518 11.9609L16.6208 10.6219C16.4838 9.56489 15.8848 5.30588 14.8098 3.17688C14.2458 2.05988 13.3018 1.49489 12.7358 1.24289V17.7129H11.9858Z" fill="white"/>
</svg>
