<svg width="29" height="15" viewBox="0 0 29 15" fill="none" xmlns="http://www.w3.org/2000/svg">
<path d="M14.714 3.47688H13.964V0.762878H14.714V3.47688ZM24.154 6.73589L21.966 8.63689L21.477 8.07289L23.665 6.16989L24.154 6.73589ZM5.01196 6.16989L7.20096 8.07289L6.71196 8.63689L4.52196 6.73589L5.01196 6.16989ZM0.459961 13.3799H28.242V14.1299H0.459961V13.3799ZM19.303 11.6059C19.303 10.2259 18.743 8.97689 17.84 8.07489C16.937 7.16989 15.687 6.61189 14.308 6.61189C12.928 6.61189 11.679 7.16989 10.775 8.07489C9.87196 8.97689 9.31195 10.2259 9.31195 11.6059H8.56195C8.56195 10.0199 9.20595 8.58289 10.2449 7.54289C11.2849 6.50389 12.722 5.86189 14.308 5.86189C15.894 5.86189 17.3299 6.50389 18.3699 7.54289C19.4089 8.58289 20.053 10.0199 20.053 11.6059H19.303Z" fill="white"/>
</svg>
