<svg width="28" height="15" viewBox="0 0 28 15" fill="none" xmlns="http://www.w3.org/2000/svg">
<path d="M1.158 2.82771H1.908V14.8867H1.158V2.82771ZM4.221 11.1147H4.971V14.8867H4.221V11.1147ZM3.006 2.80472H8.011V5.53072C8.011 6.91172 7.45 8.16171 6.545 9.06871C5.638 9.97371 4.387 10.5347 3.006 10.5347V9.78471C4.182 9.78471 5.246 9.30772 6.016 8.53772C6.784 7.76872 7.261 6.70372 7.261 5.53072V3.55472H3.006V2.80472ZM25.672 2.82771H26.422V14.8867H25.672V2.82771ZM22.608 11.1147H23.358V14.8867H22.608V11.1147ZM24.573 3.55472H20.319V5.53072C20.319 6.70372 20.796 7.76872 21.565 8.53772C22.335 9.30672 23.398 9.78471 24.573 9.78471V10.5347C23.191 10.5347 21.94 9.97371 21.035 9.06871C20.13 8.16171 19.569 6.91172 19.569 5.53072V2.80472H24.573V3.55472ZM0.375 0.44072H27.304V1.19072H0.375V0.44072Z" fill="white"/>
</svg>
