<svg width="17" height="17" viewBox="0 0 17 17" fill="none" xmlns="http://www.w3.org/2000/svg">
<path d="M1.66797 9.31362V15.3076H15.429V9.31362H16.179V16.0576H0.917969V9.31362H1.66797ZM0.917969 7.55462V0.798616H16.179V7.55462H15.429V1.54862H1.66797V7.55462H0.917969ZM4.10597 9.31362V11.3916C4.10597 11.8006 4.27197 12.1696 4.53797 12.4366C4.80697 12.7046 5.17697 12.8706 5.58497 12.8706H11.512C11.92 12.8706 12.29 12.7056 12.557 12.4376C12.824 12.1696 12.988 11.8006 12.988 11.3916V9.31362H13.739V11.3916C13.739 12.0046 13.489 12.5616 13.086 12.9646C12.682 13.3706 12.124 13.6206 11.512 13.6206H5.58497C4.96997 13.6206 4.41197 13.3706 4.00997 12.9666C3.60597 12.5626 3.35597 12.0046 3.35597 11.3916V9.31362H4.10597ZM3.35597 7.55462V5.46462C3.35597 4.85062 3.60597 4.29362 4.01097 3.89062C4.41197 3.48762 4.96997 3.23762 5.58497 3.23762H11.512C12.126 3.23762 12.682 3.48762 13.085 3.88962C13.489 4.29262 13.739 4.84962 13.739 5.46462V7.55462H12.988V5.46462C12.988 5.05662 12.823 4.68662 12.557 4.41962C12.29 4.15262 11.92 3.98762 11.512 3.98762H5.58497C5.17697 3.98762 4.80697 4.15362 4.53897 4.41962C4.27197 4.68662 4.10597 5.05562 4.10597 5.46462V7.55462H3.35597Z" fill="white"/>
</svg>
