<svg width="16" height="16" viewBox="0 0 16 16" fill="none" xmlns="http://www.w3.org/2000/svg">
<path d="M1.4707 8.59487V14.5889H15.2307V8.59487H15.9807V15.3389H0.720703V8.59487H1.4707ZM0.720703 6.83587V0.078867H15.9807V6.83587H15.2307V0.828867H1.4707V6.83587H0.720703ZM3.9087 8.59487V10.6729C3.9087 11.0819 4.0747 11.4509 4.3407 11.7179C4.6097 11.9859 4.9787 12.1519 5.3867 12.1519H11.3147C11.7227 12.1519 12.0927 11.9869 12.3587 11.7189C12.6257 11.4509 12.7907 11.0819 12.7907 10.6729V8.59487H13.5407V10.6729C13.5407 11.2859 13.2917 11.8429 12.8887 12.2459C12.4837 12.6519 11.9267 12.9019 11.3147 12.9019H5.3867C4.7727 12.9019 4.2147 12.6519 3.8117 12.2469C3.4087 11.8439 3.1587 11.2859 3.1587 10.6729V8.59487H3.9087ZM3.1587 6.83587V4.74587C3.1587 4.13187 3.4087 3.57487 3.8127 3.17187C4.2147 2.76887 4.7727 2.51887 5.3867 2.51887H11.3147C11.9277 2.51887 12.4847 2.76887 12.8877 3.17087C13.2917 3.57387 13.5407 4.13087 13.5407 4.74587V6.83587H12.7907V4.74587C12.7907 4.33787 12.6257 3.96787 12.3597 3.70087C12.0927 3.43387 11.7227 3.26887 11.3147 3.26887H5.3867C4.9787 3.26887 4.6097 3.43487 4.3417 3.70087C4.0747 3.96787 3.9087 4.33687 3.9087 4.74587V6.83587H3.1587Z" fill="white"/>
</svg>
