<svg width="24" height="16" viewBox="0 0 24 16" fill="none" xmlns="http://www.w3.org/2000/svg">
<path d="M11.9046 12.8761H12.6546V15.1611H11.9046V12.8761ZM23.2796 15.4531L20.4706 13.1661L20.9416 12.5861L23.7516 14.8711L23.2796 15.4531ZM0.807617 14.8711L3.61662 12.5861L4.08862 13.1661L1.27862 15.4531L0.807617 14.8711ZM20.6526 4.22012C20.6526 3.30412 20.3026 2.60313 19.7296 2.12413C19.0806 1.58313 18.1436 1.30814 17.0936 1.30814H7.29862C6.24862 1.30814 5.31162 1.58213 4.66262 2.12413C4.08962 2.60313 3.73862 3.30412 3.73862 4.22012H2.98862C2.98862 3.06212 3.44162 2.16813 4.18262 1.55013C4.97062 0.892125 6.07762 0.558136 7.29862 0.558136H17.0936C18.3136 0.558136 19.4226 0.892125 20.2096 1.55013C20.9496 2.16813 21.4026 3.06212 21.4026 4.22012H20.6526ZM20.7806 6.57013C20.7806 7.72813 20.3266 8.62113 19.5866 9.24113C18.7986 9.89713 17.6896 10.2311 16.4696 10.2311H7.92262C6.70162 10.2311 5.59362 9.89713 4.80562 9.24113C4.06462 8.62113 3.61162 7.72813 3.61162 6.57013H4.36162C4.36162 7.48713 4.71262 8.18613 5.28562 8.66513C5.93462 9.20613 6.87262 9.48112 7.92262 9.48112H16.4696C17.5196 9.48112 18.4576 9.20613 19.1056 8.66513C19.6796 8.18613 20.0296 7.48713 20.0296 6.57013H20.7806ZM2.43362 5.01913H22.1256V5.76913H2.43362V5.01913Z" fill="white"/>
</svg>
