<svg width="25" height="19" viewBox="0 0 25 19" fill="none" xmlns="http://www.w3.org/2000/svg">
<path d="M2.88201 12.9356L5.16201 10.7576L5.67801 11.2996L3.39801 13.4776L2.88201 12.9356ZM10.666 9.1216L7.67001 10.1066L7.43601 9.3946L10.432 8.4096L10.666 9.1216ZM4.63201 5.6146C6.12901 4.9646 7.77001 4.9156 9.24801 5.3916C10.708 5.8626 12.011 6.8436 12.861 8.2626C13.53 9.3796 13.829 10.6176 13.792 11.8296C13.755 13.0816 13.36 14.3066 12.647 15.3466L12.028 14.9246C12.661 14.0016 13.012 12.9156 13.045 11.8076C13.078 10.7336 12.813 9.6366 12.219 8.6466C11.467 7.3906 10.313 6.5206 9.02001 6.1036C7.70801 5.6816 6.25401 5.7246 4.92801 6.2986L4.63201 5.6146ZM7.82301 18.1706C6.59001 18.2826 5.35001 18.0396 4.25501 17.4826C3.19401 16.9436 2.26601 16.1066 1.60901 15.0086C0.752009 13.5816 0.502009 11.9576 0.783009 10.4406C1.06901 8.9056 1.89901 7.4756 3.19401 6.4656L3.65401 7.0546C2.50601 7.9506 1.77201 9.2146 1.51901 10.5766C1.26901 11.9196 1.49001 13.3596 2.25001 14.6246C2.83101 15.5956 3.65301 16.3366 4.59401 16.8146C5.56801 17.3096 6.66701 17.5246 7.75901 17.4256L7.82301 18.1706ZM15.467 4.5876H18.406L16.703 6.4926H17.97V7.2426H15.029L16.733 5.3376H15.467V4.5876ZM19.239 0.440601H24.029L20.829 4.0176H23.945V4.7676H19.155L22.356 1.1906H19.239V0.440601Z" fill="white"/>
</svg>
