<svg width="19" height="18" viewBox="0 0 19 18" fill="none" xmlns="http://www.w3.org/2000/svg">
<path d="M2.14861 8.30386H10.9456V9.05386H2.14861V8.30386ZM12.9946 8.36787V15.0029C12.9946 15.7509 12.6906 16.4289 12.2006 16.9189C11.7096 17.4119 11.0316 17.7139 10.2836 17.7139H2.81062C2.06262 17.7139 1.38462 17.4119 0.894615 16.9189C0.403615 16.4279 0.0996094 15.7499 0.0996094 15.0029V8.36787H0.849609V15.0029C0.849609 15.5449 1.06862 16.0369 1.42262 16.3899C1.77762 16.7449 2.26962 16.9639 2.81062 16.9639H10.2836C10.8246 16.9639 11.3156 16.7449 11.6706 16.3899C12.0246 16.0369 12.2446 15.5439 12.2446 15.0029V8.36787H12.9946ZM14.1436 9.36887H16.7466C17.2036 9.36887 17.6216 9.52187 17.9286 9.77087C18.2566 10.0369 18.4596 10.4119 18.4596 10.8279V14.3009C18.4596 14.7189 18.2566 15.0929 17.9286 15.3589C17.6226 15.6079 17.2036 15.7619 16.7466 15.7619H14.1436V15.0119H16.7466C17.0286 15.0119 17.2796 14.9229 17.4566 14.7799C17.6126 14.6539 17.7096 14.4829 17.7096 14.3009V10.8279C17.7096 10.6469 17.6126 10.4769 17.4566 10.3509C17.2796 10.2069 17.0286 10.1189 16.7466 10.1189H14.1436V9.36887ZM2.82462 6.69087L3.01161 6.31587C3.16361 6.00987 3.19462 5.67687 3.11662 5.36887C3.03762 5.05287 2.84461 4.75688 2.55061 4.53188C2.09761 4.18088 1.80762 3.71586 1.69762 3.21786C1.58862 2.71587 1.66261 2.18287 1.93961 1.70287L2.83662 0.144867L3.48361 0.516876L2.58762 2.07487C2.40662 2.38587 2.35861 2.73388 2.43061 3.05988C2.50261 3.38988 2.69861 3.70287 3.00761 3.93887C3.43861 4.27187 3.72461 4.71187 3.84361 5.18587C3.96461 5.66487 3.91661 6.17787 3.68261 6.64987L3.49561 7.02487L2.82462 6.69087ZM6.19161 6.69386L6.37761 6.31886C6.52961 6.00986 6.56161 5.67687 6.48261 5.36887C6.40361 5.05287 6.21061 4.75688 5.91661 4.53188C5.46361 4.18188 5.17361 3.71586 5.06461 3.21786C4.95461 2.71687 5.02861 2.18287 5.30661 1.70287L6.20361 0.144867L6.85162 0.516876L5.95361 2.07487C5.77361 2.38587 5.72562 2.73388 5.79762 3.05988C5.86862 3.38988 6.06561 3.70287 6.37361 3.93887C6.80561 4.27187 7.09061 4.71187 7.20961 5.18587C7.33061 5.66487 7.28261 6.17787 7.04861 6.64987L6.86261 7.02386L6.19161 6.69386ZM9.55862 6.69386L9.74361 6.31886C9.89661 6.00986 9.92761 5.67687 9.84961 5.36887C9.76961 5.05287 9.57662 4.75688 9.28262 4.53188C8.82962 4.18188 8.53961 3.71586 8.43161 3.21786C8.32061 2.71687 8.39662 2.18287 8.67262 1.70287L9.56961 0.144867L10.2176 0.516876L9.31961 2.07487C9.14061 2.38587 9.09161 2.73388 9.16361 3.05988C9.23461 3.38988 9.43262 3.70287 9.73962 3.93887C10.1716 4.27187 10.4566 4.71187 10.5756 5.18587C10.6966 5.66487 10.6486 6.17787 10.4146 6.64987L10.2296 7.02386L9.55862 6.69386Z" fill="white"/>
</svg>
