<svg width="24" height="16" viewBox="0 0 24 16" fill="none" xmlns="http://www.w3.org/2000/svg">
<path d="M2.05079 11.5394H0.758789V11.1644C0.758789 10.4604 1.03079 9.81341 1.47979 9.32941C1.92779 8.84641 2.55079 8.52241 3.25279 8.46941L6.21779 8.23441C6.92779 8.18041 7.61479 7.99741 8.24979 7.70341C8.88579 7.40841 9.46979 7.00141 9.97079 6.49641L11.9018 4.54841V0.470406H12.6518V4.54841L14.5818 6.49641C15.0818 7.00141 15.6658 7.40841 16.3008 7.70341C16.9358 7.99741 17.6228 8.18041 18.3318 8.23441L21.2988 8.46941C21.9998 8.52241 22.6238 8.84641 23.0718 9.32941C23.5198 9.81341 23.7918 10.4604 23.7918 11.1644V11.5394H22.4728V10.7894H23.0068C22.9368 10.4274 22.7658 10.0984 22.5248 9.83641C22.2008 9.48641 21.7498 9.25541 21.2398 9.21541L18.2758 8.98141C17.4768 8.91941 16.7018 8.71441 15.9878 8.38341C15.2728 8.05341 14.6148 7.59441 14.0518 7.02341L12.2768 5.23141L10.4998 7.02341C9.93579 7.59441 9.27979 8.05341 8.56479 8.38341C7.84879 8.71441 7.07379 8.91941 6.27679 8.98141L3.31179 9.21541C2.80179 9.25541 2.34979 9.48741 2.02779 9.83641C1.78579 10.0984 1.61479 10.4274 1.54479 10.7894H2.05079V11.5394ZM20.9678 11.5394H3.58279V10.7894H20.9678V11.5394ZM11.9018 12.9194H12.6518V15.1644H11.9018V12.9194ZM21.9588 15.4414L19.4758 13.1964L19.9778 12.6434L22.4598 14.8894L21.9588 15.4414ZM2.09179 14.8894L4.57479 12.6434L5.07579 13.1964L2.59279 15.4414L2.09179 14.8894Z" fill="white"/>
</svg>
