<svg width="28" height="15" viewBox="0 0 28 15" fill="none" xmlns="http://www.w3.org/2000/svg">
<path d="M13.465 11.5569H14.215V14.0049H13.465V11.5569ZM25.641 14.2949L22.632 11.8469L23.104 11.2669L26.112 13.7149L25.641 14.2949ZM1.567 13.7149L4.576 11.2669L5.048 11.8469L2.039 14.2949L1.567 13.7149ZM27.679 8.42291V9.89691H0V8.42291H0.75V9.14691H26.929V8.42291H27.679ZM26.929 7.00491V6.22491H22.492V0.708908H23.242V5.47491H27.679V7.00491H26.929ZM6.563 5.47491H21.03V6.22491H6.563V5.47491ZM0.000999451 7.00491V5.47491H4.438V0.708908H5.188V6.22491H0.750999V7.00491H0.000999451Z" fill="white"/>
</svg>
