<svg width="16" height="15" viewBox="0 0 16 15" fill="none" xmlns="http://www.w3.org/2000/svg">
<path d="M7.90305 0.0790253H8.65305V7.61302H7.90305V0.0790253ZM7.45305 14.624C5.55905 14.417 3.87405 13.506 2.66805 12.161C1.47505 10.828 0.748047 9.06702 0.748047 7.13902C0.748047 5.64502 1.18505 4.25002 1.93805 3.07802C2.71305 1.87002 3.82605 0.896023 5.14405 0.292023L5.45405 0.972015C4.27005 1.51502 3.26705 2.39203 2.56705 3.48203C1.89105 4.53703 1.49805 5.79102 1.49805 7.13902C1.49805 8.87702 2.15105 10.463 3.22505 11.662C4.31105 12.874 5.82705 13.695 7.53305 13.879L7.45305 14.624ZM11.555 0.357025C12.834 0.976025 13.911 1.94803 14.661 3.14203C15.389 4.30203 15.8101 5.67202 15.8101 7.13902C15.8101 9.05502 15.092 10.805 13.911 12.135C12.717 13.481 11.047 14.396 9.16705 14.619L9.08205 13.873C10.774 13.674 12.2771 12.85 13.3521 11.64C14.4141 10.445 15.0601 8.86902 15.0601 7.13902C15.0601 5.81602 14.682 4.58102 14.028 3.54102C13.353 2.46302 12.382 1.58902 11.229 1.03302L11.555 0.357025Z" fill="white"/>
</svg>
