<svg width="29" height="13" viewBox="0 0 29 13" fill="none" xmlns="http://www.w3.org/2000/svg">
<path d="M13.842 1.464H1.45898V2.537H0.708984V0.713996H13.842V1.464ZM27.638 2.537V1.464H15.353V0.713996H28.388V2.537H27.638ZM15.353 4.52H21.321C22.287 4.52 23.162 4.936 23.795 5.608C24.421 6.274 24.809 7.192 24.809 8.202V11.895H27.638V3.954H28.388V12.645H24.059V8.202C24.059 7.387 23.749 6.651 23.25 6.119C22.756 5.594 22.073 5.27 21.321 5.27H15.353V4.52ZM1.45898 3.954V11.895H4.28798V8.203C4.28798 7.193 4.67599 6.274 5.30299 5.608C5.93499 4.936 6.80898 4.519 7.77598 4.519H13.842V5.269H7.77598C7.02398 5.269 6.34098 5.594 5.84698 6.119C5.34798 6.651 5.03798 7.388 5.03798 8.203V12.646H0.708984V3.954H1.45898ZM13.233 11.982H12.483V7.414H13.233V11.982ZM17.246 7.68L15.094 9.784L17.235 11.702L16.737 12.259L14 9.808L16.725 7.145L17.246 7.68Z" fill="white"/>
</svg>
