<svg width="16" height="16" viewBox="0 0 16 16" fill="none" xmlns="http://www.w3.org/2000/svg">
<path d="M6.92859 7.85506L9.50559 5.52406L10.0066 6.07906L7.42959 8.40906L6.92859 7.85506ZM6.92859 10.1861L9.50559 7.85406L10.0066 8.40906L7.42959 10.7401L6.92859 10.1861ZM15.8426 8.86506C15.6576 10.7821 14.7526 12.4881 13.4046 13.7111C12.0676 14.9241 10.2926 15.6641 8.34859 15.6641C6.40859 15.6641 4.63959 14.9291 3.30459 13.7241C1.95659 12.5081 1.05059 10.8091 0.857586 8.90006L1.60159 8.82806C1.77659 10.5431 2.59159 12.0721 3.80659 13.1671C5.00759 14.2521 6.60059 14.9141 8.34859 14.9141C10.1026 14.9141 11.6996 14.2491 12.9036 13.1581C14.1166 12.0561 14.9316 10.5201 15.0986 8.79406L15.8426 8.86506ZM0.850586 7.43206C1.02859 5.50606 1.92959 3.79306 3.27959 2.56306C4.61659 1.34406 6.39759 0.601063 8.34859 0.601063C10.3096 0.601063 12.0956 1.35106 13.4366 2.58206C14.7876 3.82006 15.6856 5.54706 15.8516 7.48306L15.1036 7.54406C14.9546 5.80206 14.1466 4.24906 12.9296 3.13106C11.7236 2.02606 10.1156 1.35106 8.34859 1.35106C6.58959 1.35106 4.98759 2.02006 3.78259 3.11706C2.56759 4.22406 1.75459 5.76806 1.59459 7.50106L0.850586 7.43206Z" fill="white"/>
</svg>
