<svg width="29" height="13" viewBox="0 0 29 13" fill="none" xmlns="http://www.w3.org/2000/svg">
<path d="M13.6447 1.26382H1.26172V2.33582H0.511719V0.513824H13.6447V1.26382ZM27.4407 2.33682V1.26382H15.1567V0.513824H28.1907V2.33682H27.4407ZM15.1567 4.31982H21.1237C22.0897 4.31982 22.9647 4.73382 23.5967 5.40782C24.2237 6.07282 24.6117 6.99282 24.6117 8.00182V11.6948H27.4407V3.75382H28.1907V12.4448H23.8617V8.00182C23.8617 7.18682 23.5517 6.45082 23.0527 5.91782C22.5587 5.39282 21.8767 5.06982 21.1237 5.06982H15.1567V4.31982ZM1.26172 3.75382V11.6948H4.09072V8.00282C4.09072 6.99282 4.47872 6.07382 5.10572 5.40782C5.73672 4.73382 6.61272 4.31882 7.57872 4.31882H13.6447V5.06882H7.57872C6.82672 5.06882 6.14372 5.39282 5.64972 5.91782C5.14972 6.45082 4.84072 7.18682 4.84072 8.00282V12.4448H0.511719V3.75382H1.26172Z" fill="white"/>
</svg>
