<svg width="25" height="19" viewBox="0 0 25 19" fill="none" xmlns="http://www.w3.org/2000/svg">
<path d="M20.7602 6.58545H24.8132L21.0042 11.7895L20.4012 11.3485L23.3362 7.33545H20.7602V6.58545ZM18.7452 11.7715L14.9512 6.58545H18.9502V7.33545H16.4282L19.3492 11.3275L18.7452 11.7715ZM20.2572 13.5945V17.6885H22.5392V18.4385H17.2252V17.6885H19.5072V13.5945H20.2572ZM2.80319 8.25245H1.61719V17.6895H5.29719V18.4395H0.867188V7.50245H2.80319V8.25245ZM5.84119 1.42945H5.16319V7.87745H4.41319V0.679453H5.84119V1.42945ZM8.18719 7.87745V1.43145H7.59219V0.679453H8.93719V7.87745H8.18719ZM8.15619 17.6885H11.7332V8.25245H10.5992V7.50245H12.4832V18.4385H8.15619V17.6885Z" fill="white"/>
</svg>
