<svg width="26" height="12" viewBox="0 0 26 12" fill="none" xmlns="http://www.w3.org/2000/svg">
<path d="M9.21882 9.30874C9.12632 10.0145 8.77624 10.6381 8.26746 11.0855C7.76507 11.524 7.10558 11.792 6.38549 11.792C5.66699 11.792 5.00909 11.5248 4.5059 11.0863C3.99793 10.6397 3.64864 10.0169 3.55455 9.31273L4.14625 9.23458C4.21882 9.79119 4.49633 10.2856 4.89825 10.6365C5.29458 10.9842 5.81531 11.1939 6.38549 11.1939C6.95726 11.1939 7.47799 10.9842 7.87432 10.6357C8.27783 10.284 8.55455 9.7904 8.62791 9.23139L9.21882 9.30874ZM3.56172 8.50332C3.66619 7.81193 4.01866 7.20108 4.52584 6.76647C5.02584 6.33665 5.67656 6.07668 6.38628 6.07668C7.0697 6.07668 7.69809 6.31831 8.19011 6.71942C8.69091 7.12852 9.05056 7.70268 9.18453 8.36057L8.6008 8.47939C8.49474 7.96105 8.20925 7.50491 7.81372 7.18194C7.42536 6.86615 6.92855 6.67477 6.38628 6.67477C5.82329 6.67477 5.30893 6.88051 4.91419 7.21942C4.51467 7.56392 4.23557 8.04558 4.15263 8.59343L3.56172 8.50332ZM23.0577 9.30874C22.9644 10.0137 22.6159 10.6381 22.1072 11.0847C21.6032 11.524 20.9445 11.792 20.2252 11.792C19.5043 11.792 18.8464 11.524 18.3432 11.0847C17.8352 10.6381 17.486 10.0137 17.3935 9.30874L17.9844 9.23139C18.0577 9.7896 18.3337 10.284 18.7364 10.6349C19.1327 10.9842 19.6534 11.1939 20.2252 11.1939C20.7962 11.1939 21.3177 10.9842 21.7148 10.6349C22.1167 10.284 22.3935 9.7896 22.466 9.23139L23.0577 9.30874ZM17.4006 8.50252C17.5059 7.81113 17.8584 7.20029 18.3655 6.76647C18.8655 6.33665 19.5155 6.07748 20.2252 6.07748C20.9341 6.07748 21.5848 6.33665 22.0848 6.76647C22.592 7.20108 22.9453 7.81193 23.0506 8.50252L22.4596 8.59263C22.3767 8.04558 22.0968 7.56392 21.6965 7.21942C21.3018 6.88051 20.7874 6.67556 20.2252 6.67556C19.663 6.67556 19.1478 6.88051 18.7531 7.21942C18.3528 7.56392 18.0737 8.04478 17.9915 8.59263L17.4006 8.50252ZM17.667 4.35818H11.0649V3.76009H17.667V4.35818ZM16.3073 9.23378H10.4987V8.63569H16.3073V9.23378ZM23.1048 3.87493C24.7675 6.02325 25.3352 8.87094 25.3368 8.87891L25.4062 9.23378H24.0729V8.63569H24.6678C24.4644 7.83426 23.8655 5.83266 22.6327 4.23936L23.1048 3.87493ZM10.234 0.791992H16.4788C16.8903 0.791992 17.3807 0.815118 17.9238 0.892471C18.4644 0.971418 19.0553 1.10778 19.6646 1.33505C19.7834 1.38051 19.8982 1.42517 20.0059 1.47222C20.1295 1.52405 20.2443 1.57828 20.3512 1.62852C20.6925 1.79518 21.0394 1.99614 21.3871 2.23856C21.73 2.48019 22.0705 2.75611 22.3982 3.07907L21.9828 3.50651C21.6758 3.20587 21.3616 2.9467 21.0458 2.7266C20.7324 2.5097 20.4118 2.32309 20.0896 2.166C19.9748 2.11177 19.8687 2.06233 19.7722 2.02086C19.6622 1.97461 19.5561 1.93075 19.4565 1.89327C18.8943 1.68274 18.3448 1.55754 17.84 1.48338C17.336 1.41161 16.8719 1.39008 16.4788 1.39008H10.234V0.791992ZM8.88389 3.07828L9.87352 1.79598L10.3456 2.16041L9.35598 3.44271L8.88389 3.07828ZM2.60478 9.23378H0.936523L1.01786 8.87094C1.01866 8.86456 1.51388 6.71863 2.47241 5.55515C2.97321 4.94829 3.56252 4.49454 4.17496 4.18673C4.85279 3.84622 5.56013 3.68194 6.21005 3.68194H8.56252V4.28003H6.21005C5.64625 4.28003 5.03142 4.42277 4.44131 4.71942C3.89984 4.99135 3.37831 5.39407 2.93254 5.93474C2.29059 6.71304 1.87034 8.0081 1.6941 8.63569H2.60478V9.23378Z" fill="white"/>
</svg>
