<svg width="27" height="15" viewBox="0 0 27 15" fill="none" xmlns="http://www.w3.org/2000/svg">
<path d="M20.3419 14.6626V8.0346C20.3419 6.1516 19.5789 4.4476 18.3459 3.2166C17.1139 1.9806 15.4089 1.2206 13.5269 1.2206C11.6449 1.2206 9.93989 1.9816 8.70689 3.2166C7.47389 4.4476 6.71089 6.1516 6.71089 8.0346V14.6626H5.96089V8.0346C5.96089 5.9456 6.80789 4.0556 8.17689 2.6846C9.54589 1.3156 11.4379 0.470597 13.5269 0.470597C15.6139 0.470597 17.5059 1.3156 18.8749 2.6856C20.2449 4.0556 21.0919 5.9456 21.0919 8.0346V14.6626H20.3419ZM4.52989 9.3106H3.88389C3.24989 9.3106 2.67589 9.5676 2.26089 9.9826C1.84589 10.3986 1.58789 10.9746 1.58789 11.6066C1.58789 12.2406 1.84589 12.8146 2.26089 13.2296C2.67589 13.6456 3.24989 13.9026 3.88389 13.9026H4.55389V14.6526H3.88389C3.04389 14.6526 2.28089 14.3116 1.73089 13.7616C1.17989 13.2096 0.837891 12.4476 0.837891 11.6066C0.837891 10.7666 1.17989 10.0046 1.73089 9.4536C2.28089 8.9016 3.04389 8.5606 3.88389 8.5606H4.52989V9.3106ZM22.5569 8.5606H23.2129C24.0539 8.5606 24.8159 8.9016 25.3659 9.4526C25.9169 10.0046 26.2589 10.7666 26.2589 11.6066C26.2589 12.4476 25.9169 13.2096 25.3659 13.7626C24.8159 14.3116 24.0539 14.6526 23.2129 14.6526H22.5329V13.9026H23.2129C23.8469 13.9026 24.4209 13.6456 24.8359 13.2306C25.2519 12.8156 25.5089 12.2406 25.5089 11.6066C25.5089 10.9746 25.2519 10.3976 24.8359 9.9826C24.4209 9.5676 23.8469 9.3106 23.2129 9.3106H22.5569V8.5606Z" fill="white"/>
</svg>
