<svg width="12" height="15" viewBox="0 0 12 15" fill="none" xmlns="http://www.w3.org/2000/svg">
<path fill-rule="evenodd" clip-rule="evenodd" d="M5.42842 14.3511C2.88142 14.3511 0.789422 12.3721 0.607422 9.87207H1.25642C1.43742 12.0141 3.23942 13.7031 5.42842 13.7031C7.61742 13.7031 9.41942 12.0141 9.59942 9.87207H10.2494C10.0674 12.3721 7.97542 14.3511 5.42842 14.3511ZM0.607422 9.16307C0.716422 7.66107 1.51542 6.29607 2.79142 5.46407L2.84942 5.42607V4.44307H3.49742V5.80107C2.20942 6.47107 1.37442 7.73107 1.25642 9.16307H0.607422ZM9.60042 9.16307C9.48142 7.73107 8.64742 6.47107 7.35942 5.80107V4.44307H8.00742V5.42607L8.06542 5.46407C9.34142 6.29607 10.1404 7.66107 10.2494 9.16307H9.60042ZM2.84942 3.73407V2.75007C2.84942 1.32907 4.00642 0.172074 5.42842 0.172074C6.85042 0.172074 8.00742 1.32907 8.00742 2.75007V3.73407H7.35942V2.75007C7.35942 1.68607 6.49242 0.820074 5.42842 0.820074C4.36442 0.820074 3.49742 1.68607 3.49742 2.75007V3.73407H2.84942ZM6.33042 6.26407V4.44307H5.87942V6.62207C7.11742 6.83007 8.07242 7.87907 8.13142 9.16307H8.58242C8.52842 7.78907 7.59542 6.64107 6.33042 6.26407ZM8.07242 9.87207C7.80642 11.0871 6.72342 11.9971 5.42842 11.9971C4.13342 11.9971 3.05042 11.0871 2.78442 9.87207H2.32442C2.59642 11.3381 3.88342 12.4481 5.42842 12.4481C6.97442 12.4481 8.25942 11.3381 8.53242 9.87207H8.07242ZM2.72542 9.16307C2.78442 7.87907 3.73842 6.83007 4.97742 6.62207V4.44307H4.52642V6.26407C3.26142 6.64107 2.32842 7.78907 2.27442 9.16307H2.72542ZM6.33042 3.73407V2.75407C6.33042 2.25307 5.92642 1.84907 5.42842 1.84907C4.92642 1.84907 4.52642 2.25407 4.52642 2.75407V3.73407H4.97742V2.75407C4.97742 2.50107 5.17742 2.30007 5.42842 2.30007C5.67742 2.30007 5.87942 2.50207 5.87942 2.75407V3.73407H6.33042ZM5.42842 10.6441C4.75142 10.6441 4.07442 9.74207 4.07442 9.29107C4.07442 9.12307 4.07442 8.84007 3.84942 8.84007C3.62442 8.84007 3.62442 9.29107 3.62442 9.29107C3.62442 10.2881 4.43142 11.0951 5.42842 11.0951C5.42842 11.0951 5.87942 11.0951 5.87942 10.8701C5.87942 10.6441 5.74742 10.6441 5.42842 10.6441ZM11.0204 1.08907C11.1984 1.08907 11.3424 1.23307 11.3424 1.41107C11.3424 1.58907 11.1984 1.73307 11.0204 1.73307L10.2514 1.73507L10.2534 2.50507C10.2534 2.68307 10.1094 2.82707 9.93142 2.82707C9.75342 2.82707 9.61042 2.68307 9.61042 2.50507L9.60742 1.73707L8.83642 1.73907C8.65842 1.73907 8.51542 1.59507 8.51542 1.41707C8.51542 1.23907 8.65842 1.09507 8.83642 1.09507L9.60642 1.09307L9.60342 0.322074C9.60342 0.144074 9.74742 7.43866e-05 9.92542 7.43866e-05C10.1034 7.43866e-05 10.2464 0.144074 10.2464 0.322074L10.2494 1.09107L11.0204 1.08907Z" fill="white"/>
</svg>
