<svg width="15" height="15" viewBox="0 0 15 15" fill="none" xmlns="http://www.w3.org/2000/svg">
<path d="M6.56541 6.02412C6.63341 6.08412 6.67641 6.02612 6.73141 5.97212C7.55041 5.18212 8.18141 5.11612 9.08341 5.71712C9.43841 5.13312 9.99241 4.80312 10.5844 4.51312C11.3204 4.15012 11.4084 3.76412 10.9304 3.09512C9.98541 1.76912 7.74341 1.17012 6.28541 1.88212C5.52441 2.25412 4.99441 2.85012 5.06441 3.75512C5.07641 3.90112 5.10041 4.04012 5.13641 4.17212L5.53841 4.03612C5.51441 3.94012 5.49941 3.83712 5.49041 3.73012C5.38741 1.75412 9.04941 1.45412 10.4004 3.24512C10.8294 3.74212 10.6704 3.98612 10.0474 4.31212C9.58441 4.53912 9.23741 4.71612 8.95841 5.17512C8.25041 4.70312 7.39041 4.80812 6.76941 5.37612C6.72641 5.41912 6.65141 5.52312 6.59741 5.47612C6.30741 5.22312 6.03641 4.97612 5.83441 4.68412L5.42741 4.82112C5.71741 5.28012 6.14241 5.65612 6.56541 6.02412ZM9.58341 6.35812C9.49741 6.38712 9.52541 6.45312 9.54441 6.52712C9.81941 7.63312 9.56141 8.21212 8.58941 8.69212C8.91841 9.29212 8.92641 9.93612 8.88241 10.5931C8.82841 11.4131 9.11941 11.6821 9.93741 11.6031C11.5574 11.4471 13.1974 9.80512 13.3094 8.18712C13.3684 7.34112 13.1174 6.58412 12.2984 6.19212C12.1664 6.12912 12.0334 6.08112 11.9014 6.04612L11.8184 6.46212C11.9134 6.49012 12.0094 6.52712 12.1074 6.57412C13.8704 7.47312 12.2974 10.7951 10.0724 11.0691C9.42641 11.1911 9.29441 10.9321 9.32441 10.2301C9.35941 9.71412 9.37941 9.32512 9.12241 8.85512C9.88441 8.47712 10.2234 7.68112 10.0424 6.85812C10.0274 6.80012 9.97441 6.68312 10.0424 6.66012C10.4054 6.53512 10.7544 6.42312 11.1094 6.39412L11.1934 5.97412C10.6504 5.99612 10.1134 6.17612 9.58341 6.35812ZM7.91541 8.84012C7.93241 8.75112 7.86141 8.74312 7.78641 8.72212C6.69241 8.40712 6.32041 7.89512 6.38941 6.81312C5.70641 6.79712 5.14341 6.48212 4.59641 6.11612C3.91441 5.65912 3.53641 5.77612 3.19541 6.52412C2.51941 8.00512 3.12241 10.2471 4.46741 11.1531C5.16941 11.6261 5.95141 11.7881 6.70041 11.2741C6.82141 11.1911 6.92941 11.1001 7.02541 11.0031L6.70741 10.7231C6.63441 10.7921 6.55441 10.8571 6.46441 10.9181C4.80541 11.9951 2.71441 8.97312 3.59041 6.90812C3.80641 6.28812 4.09741 6.30312 4.69041 6.68012C5.12041 6.96812 5.44641 7.18012 5.98341 7.19212C5.92841 8.04112 6.44841 8.73312 7.25241 8.98712C7.30941 9.00312 7.43741 9.01612 7.42341 9.08612C7.34941 9.46412 7.27241 9.82212 7.12041 10.1431L7.44241 10.4261C7.69441 9.94512 7.80741 9.39012 7.91541 8.84012ZM7.98141 13.5831C4.55641 13.5831 1.72841 10.8981 1.52441 7.52212H0.946406C1.18141 11.2331 4.23241 14.1701 7.97041 14.1721C11.7214 14.1751 14.7874 11.2351 15.0054 7.52212H14.4404C14.2184 10.9011 11.4044 13.5831 7.98141 13.5831ZM1.52641 6.68512C1.76141 3.02412 4.82541 0.539117 8.04841 0.575117C11.4224 0.614117 14.2304 3.31112 14.4414 6.68512H15.0064C14.7964 2.95512 11.7614 0.0151173 8.00841 0.000117302C4.24741 -0.0168827 1.13841 2.96112 0.941406 6.68512H1.52641ZM7.97941 7.54612C7.82641 7.54712 7.69641 7.48312 7.61341 7.37712H6.86741C6.99341 7.87812 7.43541 8.24712 7.96541 8.24912C8.50441 8.25212 8.95941 7.88012 9.08641 7.37712H8.33241C8.24641 7.47912 8.11941 7.54512 7.97941 7.54612ZM7.59741 6.82212C7.67941 6.69812 7.81641 6.61512 7.96941 6.61212C8.12341 6.61012 8.26741 6.69612 8.35541 6.82212H9.09041C8.97241 6.30112 8.51841 5.92012 7.96641 5.92212C7.41941 5.92512 6.97141 6.30612 6.85741 6.82212H7.59741Z" fill="white"/>
</svg>
