<svg width="14" height="12" viewBox="0 0 14 12" fill="none" xmlns="http://www.w3.org/2000/svg">
<path d="M6.84985 6.07644L8.24385 5.91744C8.28286 5.91344 8.32085 5.91444 8.35485 5.91944C8.39085 5.92444 8.42785 5.93644 8.45685 5.95044C8.51785 5.98144 8.56985 6.03144 8.59985 6.09444C8.63185 6.15544 8.64285 6.22944 8.63585 6.30944M6.84985 6.07644L6.84786 6.06044M6.84985 6.07644C6.80685 6.08144 6.76785 6.09044 6.73785 6.10444C6.70585 6.11644 6.68086 6.13344 6.66286 6.15244C6.63286 6.18644 6.62086 6.22944 6.63086 6.27544C6.63986 6.32244 6.67385 6.37644 6.72585 6.43044L7.09585 6.79944L7.08486 6.81044L7.09786 6.82144C6.97086 6.97844 5.84285 8.32644 4.12085 8.72244C3.20985 8.93244 2.13185 8.87544 0.947855 8.23744L0.955855 8.22244L0.945855 8.23544C0.945855 8.23544 0.557855 7.99544 0.338855 8.34944C0.138855 8.73944 0.561855 8.94744 0.562855 8.94844L0.556855 8.96244L0.564855 8.94944C0.575855 8.95544 4.09685 11.1644 7.68685 7.41544L7.69985 7.42644L7.71185 7.41544L8.12185 7.82544C8.17685 7.87944 8.22885 7.91144 8.27685 7.92144C8.32385 7.93144 8.36686 7.91944 8.39886 7.88944C8.41886 7.87144 8.43486 7.84644 8.44886 7.81444C8.46186 7.78344 8.47185 7.74544 8.47485 7.70144L8.63585 6.30944M8.63585 6.30944L8.64985 6.31144M12.7079 6.09744L11.2199 4.58544L11.2309 4.57444L11.2159 4.57044C11.2679 4.36244 11.2199 2.69344 11.2199 2.34044L11.2139 2.29444L11.1969 2.25144C11.1819 2.22344 11.1579 2.19844 11.1299 2.18244C11.1009 2.16744 11.0709 2.15744 11.0359 2.15744H10.2059L10.1599 2.16344L10.1169 2.17944C10.0889 2.19544 10.0629 2.21944 10.0479 2.24744C10.0319 2.27444 10.0219 2.30644 10.0219 2.34044V3.32944H10.0069L9.99485 3.34144L8.07786 1.39444C7.99986 1.31344 7.91086 1.24644 7.81486 1.19044C7.71886 1.13244 7.61285 1.08744 7.50485 1.05644C7.26485 0.986443 7.00285 0.981443 6.75985 1.04144C6.52385 1.09844 6.30486 1.21644 6.13086 1.39444L3.98586 3.57244L4.62185 4.20844L6.76986 2.02444C6.83086 1.96344 6.90686 1.92244 6.98586 1.90344C7.06886 1.88344 7.15985 1.88544 7.24085 1.90844C7.27785 1.91944 7.31386 1.93544 7.34786 1.95444C7.37986 1.97344 7.41085 1.99744 7.43685 2.02444L11.9389 6.59944L11.9289 6.61044V6.62744H10.3239V8.59244H11.2229V7.54244H11.2389V7.52644H12.1079C12.3429 7.52644 12.5159 7.47944 12.6449 7.41344C12.7739 7.34744 12.8609 7.26144 12.9159 7.18644L12.9579 7.12144L12.9899 7.05544C13.0109 7.00544 13.0369 6.92344 13.0399 6.82244C13.0429 6.75044 13.0349 6.66744 13.0089 6.57644C12.9879 6.50544 12.9549 6.42844 12.9069 6.34944C12.8569 6.26944 12.7929 6.18444 12.7079 6.09744ZM3.32485 4.24544L1.50085 6.09744C1.42085 6.17944 1.35685 6.25844 1.30985 6.33444C1.25785 6.41944 1.22185 6.50144 1.19985 6.57644C1.17385 6.66744 1.16586 6.75044 1.16886 6.82244C1.17286 6.92344 1.19785 7.00544 1.21885 7.05544C1.23685 7.09844 1.26786 7.15944 1.31986 7.22144C1.37186 7.28444 1.44485 7.35044 1.54685 7.40444C1.61585 7.44244 1.69985 7.47444 1.79785 7.49644C1.88485 7.51544 1.98285 7.52644 2.09785 7.52644H2.97485V7.54244H2.99286V8.12144H3.88985V6.62744H2.27985V6.61044L2.26685 6.59944L3.95986 4.88044L3.32485 4.24544ZM10.3239 9.65544V10.7644H10.3069V10.7804H3.90786V10.7644H3.88985V10.3324H2.99286V10.8314C2.99286 11.0644 3.08886 11.2774 3.24186 11.4314C3.39386 11.5844 3.60686 11.6794 3.84186 11.6794H10.3739C10.6069 11.6794 10.8199 11.5844 10.9729 11.4314C11.1269 11.2774 11.2229 11.0644 11.2229 10.8314V9.65544H10.3239Z" stroke="white" stroke-width="0.255" stroke-linejoin="bevel"/>
</svg>
