<svg width="13" height="16" viewBox="0 0 13 16" fill="none" xmlns="http://www.w3.org/2000/svg">
<path d="M10.6011 12.1401H12.1511C12.2451 12.1401 12.3301 12.1791 12.3921 12.2401C12.4541 12.3011 12.4921 12.3871 12.4921 12.4801C12.4921 12.5091 12.4881 12.5381 12.4811 12.5651C12.4741 12.5931 12.4621 12.6201 12.4491 12.6441C12.4191 12.6981 12.3751 12.7431 12.3241 12.7741C12.2731 12.8041 12.2131 12.8201 12.1511 12.8201H10.6011V14.3701C10.6011 14.4651 10.5631 14.5501 10.5011 14.6111C10.4401 14.6731 10.3541 14.7111 10.2601 14.7111C10.1981 14.7111 10.1391 14.6941 10.0881 14.6641C10.0371 14.6341 9.99305 14.5881 9.96305 14.5361C9.94905 14.5111 9.93806 14.4831 9.93106 14.4561C9.92406 14.4291 9.92006 14.3991 9.92006 14.3701V12.8201H8.37006C8.34106 12.8201 8.31306 12.8171 8.28606 12.8091C8.25706 12.8031 8.23006 12.7911 8.20506 12.7781C8.15306 12.7491 8.10705 12.7051 8.07705 12.6531C8.04705 12.6021 8.03006 12.5431 8.03006 12.4801C8.03006 12.3871 8.06806 12.3011 8.12906 12.2401C8.19106 12.1781 8.27706 12.1401 8.37006 12.1401H9.92006V10.5901C9.92006 10.5611 9.92406 10.5321 9.93106 10.5041C9.93806 10.4771 9.94905 10.4501 9.96305 10.4251C9.99305 10.3721 10.0371 10.3271 10.0881 10.2961C10.1391 10.2661 10.1981 10.2491 10.2601 10.2491C10.3541 10.2491 10.4401 10.2871 10.5011 10.3491C10.5631 10.4111 10.6011 10.4961 10.6011 10.5901V12.1401ZM5.10206 9.83809V6.31309H4.46505V10.0421C4.46505 10.0831 4.47306 10.1241 4.48806 10.1611C4.50206 10.1991 4.52606 10.2341 4.55306 10.2631L4.59806 10.3011L4.64906 10.3311C4.78906 10.3961 4.92306 10.4751 5.04706 10.5641C5.17306 10.6551 5.29006 10.7571 5.39706 10.8681C5.59406 11.0731 5.75505 11.3121 5.87305 11.5721C5.98805 11.8231 6.06106 12.0071 6.08606 12.2881H6.72606C6.70206 11.9501 6.62206 11.7091 6.49406 11.4011C6.36206 11.0841 6.17806 10.7901 5.95406 10.5321C5.83406 10.3961 5.70306 10.2691 5.56106 10.1551C5.42006 10.0421 5.26905 9.93909 5.11005 9.85109L5.11705 9.83809H5.10206ZM5.10206 5.60409V2.51109C5.10206 2.38009 5.08506 2.25409 5.05406 2.13409C5.02306 2.01009 4.97506 1.89109 4.91406 1.78209C4.78406 1.54509 4.59006 1.34709 4.35806 1.20909C4.13306 1.07709 3.87205 1.00009 3.59105 1.00009C3.17505 1.00009 2.79606 1.17109 2.52406 1.44309C2.25006 1.71709 2.08006 2.09509 2.08006 2.51109V5.60409H2.70506C2.70306 4.53309 2.70406 3.57909 2.71706 2.51109C2.71706 2.27009 2.81606 2.05109 2.97406 1.89309C3.13106 1.73609 3.35105 1.63809 3.59105 1.63809C3.66505 1.63809 3.74006 1.64709 3.80906 1.66509C3.88006 1.68309 3.95006 1.71109 4.01306 1.74609C4.15006 1.82209 4.26406 1.93309 4.34406 2.06809C4.42106 2.19809 4.46505 2.34909 4.46505 2.51109V5.60409H5.10206ZM2.08006 6.31309V9.83809H2.06606L2.07306 9.85109C1.91306 9.93909 1.76106 10.0421 1.62206 10.1551C1.48006 10.2691 1.34806 10.3961 1.22906 10.5321C1.00406 10.7901 0.821055 11.0841 0.689055 11.4011C0.561055 11.7091 0.481055 11.9501 0.456055 12.2881H1.09606C1.12206 12.0081 1.19506 11.8241 1.30906 11.5721C1.42706 11.3121 1.58806 11.0731 1.78606 10.8681C1.89206 10.7571 2.00906 10.6551 2.13506 10.5641C2.25906 10.4751 2.39305 10.3961 2.53405 10.3311C2.57105 10.3131 2.60506 10.2891 2.63206 10.2601C2.66006 10.2301 2.68206 10.1951 2.69706 10.1581L2.71206 10.1011L2.71706 10.0421C2.71706 8.80209 2.71006 7.55709 2.70506 6.31309H2.08006ZM0.457055 13.0271C0.520055 13.8361 0.892055 14.3841 1.45405 14.9061C2.01505 15.4271 2.76705 15.7461 3.59105 15.7461C4.41605 15.7461 5.16805 15.4271 5.72905 14.9061C6.29005 14.3841 6.66306 13.8361 6.72506 13.0271H6.08405C6.02205 13.6611 5.72306 14.0501 5.27706 14.4561C4.83106 14.8611 4.24005 15.1091 3.59105 15.1091C2.94305 15.1091 2.35106 14.8611 1.90606 14.4561C1.46006 14.0501 1.16105 13.6611 1.09805 13.0271H0.457055ZM5.16305 12.6251C5.16305 13.0591 4.98606 13.4521 4.70306 13.7361C4.41806 14.0201 4.02505 14.1961 3.59105 14.1961C3.15805 14.1961 2.76506 14.0201 2.48106 13.7361C2.19706 13.4521 2.02005 13.0591 2.02005 12.6251C2.02005 12.4901 2.03806 12.3581 2.07006 12.2331C2.10306 12.1041 2.15305 11.9801 2.21605 11.8661C2.35205 11.6201 2.55205 11.4131 2.79405 11.2711C3.02805 11.1341 3.30005 11.0551 3.59105 11.0551C4.02505 11.0551 4.41705 11.2311 4.70205 11.5151C4.98605 11.7991 5.16305 12.1921 5.16305 12.6251ZM7.74806 3.12209H6.37006C6.28506 3.12209 6.20606 3.08709 6.15106 3.03109C6.09406 2.97509 6.05906 2.89709 6.05906 2.81109V2.74609C6.05906 2.66109 6.09406 2.58309 6.15106 2.52709C6.20606 2.47109 6.28506 2.43509 6.37006 2.43509H7.74806C7.83406 2.43509 7.91306 2.47109 7.96806 2.52709C8.02406 2.58309 8.05906 2.66109 8.05906 2.74609V2.81109C8.05906 2.89709 8.02406 2.97509 7.96806 3.03109C7.91306 3.08709 7.83406 3.12209 7.74806 3.12209ZM7.74806 4.69609H6.37006C6.28506 4.69609 6.20606 4.66109 6.15106 4.60509C6.09406 4.54909 6.05906 4.47109 6.05906 4.38609V4.32009C6.05906 4.23509 6.09406 4.15709 6.15106 4.10009C6.20606 4.04409 6.28506 4.00909 6.37006 4.00909H7.74806C7.83406 4.00909 7.91306 4.04409 7.96806 4.10009C8.02406 4.15709 8.05906 4.23509 8.05906 4.32009V4.38609C8.05906 4.47109 8.02406 4.54909 7.96806 4.60509C7.91306 4.66109 7.83406 4.69609 7.74806 4.69609ZM7.74806 6.26909H6.37006C6.28506 6.26909 6.20606 6.23409 6.15106 6.17809C6.09406 6.12209 6.05906 6.04409 6.05906 5.95909V5.89309C6.05906 5.80809 6.09406 5.73009 6.15106 5.67409C6.20606 5.61909 6.28506 5.58309 6.37006 5.58309H7.74806C7.83406 5.58309 7.91306 5.61909 7.96806 5.67409C8.02406 5.73009 8.05906 5.80809 8.05906 5.89309V5.95909C8.05906 6.04409 8.02406 6.12209 7.96806 6.17809C7.91306 6.23409 7.83406 6.26909 7.74806 6.26909ZM7.74806 7.84309H6.37006C6.28506 7.84309 6.20606 7.80809 6.15106 7.75209C6.09406 7.69609 6.05906 7.61809 6.05906 7.53309V7.46709C6.05906 7.38209 6.09406 7.30409 6.15106 7.24809C6.20606 7.19209 6.28506 7.15709 6.37006 7.15709H7.74806C7.83406 7.15709 7.91306 7.19209 7.96806 7.24809C8.02406 7.30409 8.05906 7.38209 8.05906 7.46709V7.53309C8.05906 7.61809 8.02406 7.69609 7.96806 7.75209C7.91306 7.80809 7.83406 7.84309 7.74806 7.84309ZM7.74806 9.41709H6.37006C6.28506 9.41709 6.20606 9.38209 6.15106 9.32609C6.09406 9.27009 6.05906 9.19209 6.05906 9.10709V9.04109C6.05906 8.95609 6.09406 8.87809 6.15106 8.82209C6.20606 8.76509 6.28506 8.73109 6.37006 8.73109H7.74806C7.83406 8.73109 7.91306 8.76509 7.96806 8.82209C8.02406 8.87809 8.05906 8.95609 8.05906 9.04109V9.10709C8.05906 9.19209 8.02406 9.27009 7.96806 9.32609C7.91306 9.38209 7.83406 9.41709 7.74806 9.41709Z" stroke="white" stroke-width="0.255" stroke-linejoin="bevel"/>
</svg>
