<svg width="14" height="14" viewBox="0 0 14 14" fill="none" xmlns="http://www.w3.org/2000/svg">
<path d="M4.4817 5.72001C4.4257 5.51701 4.3927 5.30601 4.3927 5.08601C4.3927 3.68701 5.5277 2.55101 6.9277 2.55101C8.3287 2.55101 9.4627 3.68701 9.4627 5.08601C9.4627 5.30601 9.4297 5.51701 9.3747 5.72001H10.8497C10.8837 5.51301 10.9027 5.30201 10.9027 5.08601C10.9027 3.52901 10.0007 2.19501 8.6967 1.54401V0.481012C8.6967 0.217012 8.4797 1.14441e-05 8.2137 1.14441e-05H5.6417C5.3757 1.14441e-05 5.1597 0.217012 5.1597 0.481012V1.54401C3.8547 2.19501 2.9537 3.52901 2.9537 5.08601C2.9537 5.30201 2.9717 5.51301 3.0047 5.72001H4.4817ZM0.0957031 9.52801L0.581703 10.218L3.3707 8.25701C3.1867 8.05301 3.0057 7.83101 2.8597 7.58501L0.0957031 9.52801ZM10.5037 8.25601L13.2937 10.219L13.7787 9.52701L11.0147 7.58401C10.8697 7.83001 10.6877 8.05301 10.5037 8.25601ZM10.6107 6.57001H8.9757C8.5147 7.20601 7.7727 7.62301 6.9257 7.62301C6.0837 7.62301 5.3397 7.20601 4.8797 6.57001H3.2457C3.8347 8.02901 5.2567 9.06101 6.9257 9.06101C8.5957 9.06101 10.0217 8.02901 10.6107 6.57001ZM6.9857 9.79201L6.9267 13.172L7.7727 13.187L7.8307 9.77501C7.5587 9.80701 7.2707 9.81901 6.9857 9.79201Z" fill="white"/>
</svg>
