<svg width="14" height="15" viewBox="0 0 14 15" fill="none" xmlns="http://www.w3.org/2000/svg">
<path d="M8.31881 7.96607C8.27081 8.50807 7.83081 8.94007 7.27481 8.94007C6.68981 8.94007 6.21481 8.46307 6.21481 7.87707C6.21481 7.62407 6.31381 7.40107 6.46481 7.21707L6.10081 6.79007C5.83781 7.07607 5.67181 7.45707 5.67181 7.87707C5.67181 8.76507 6.38881 9.48307 7.27481 9.48307C8.16081 9.48307 8.88081 8.76507 8.88081 7.87707C8.88081 7.84507 8.87281 7.81307 8.87081 7.78107L8.31881 7.96607ZM6.89981 6.89207C7.01781 6.84807 7.14181 6.81707 7.27481 6.81707C7.69681 6.81707 8.05481 7.06907 8.22581 7.42407L8.75181 7.24807C8.50681 6.67507 7.93781 6.27407 7.27481 6.27407C7.00681 6.27407 6.75781 6.34507 6.53481 6.46207L6.89981 6.89207ZM7.30281 2.77907C7.49381 2.77907 7.67581 2.81307 7.86181 2.83507C7.78181 2.22407 7.64681 1.60807 7.42181 1.00207C7.36381 0.848071 7.30381 0.704073 7.24481 0.569073C7.33281 0.552073 7.42781 0.543072 7.53181 0.543072C8.00381 0.543072 8.57681 0.721072 9.07181 1.01807C9.60081 1.33207 9.69081 1.64207 9.66081 1.76907C9.52881 2.17807 9.35581 2.66007 9.17581 3.15007C9.34581 3.21907 9.50481 3.31007 9.66481 3.39707C9.85681 2.87807 10.0398 2.36907 10.1768 1.93407C10.1768 1.93407 10.4418 1.19907 9.34781 0.550072C8.75681 0.195072 8.09281 7.24792e-05 7.53181 7.24792e-05C7.11381 7.24792e-05 6.75281 0.108072 6.52081 0.338072C6.67281 0.601072 6.79781 0.886072 6.91181 1.19107C7.10981 1.72307 7.22481 2.25407 7.30281 2.77907ZM12.7828 11.6881C12.2328 11.5171 11.7378 11.2791 11.2718 11.0151C11.1568 11.1601 11.0478 11.3101 10.9218 11.4421C11.4468 11.7471 12.0088 12.0161 12.6208 12.2061C12.7788 12.2561 12.9288 12.2981 13.0728 12.3331C12.8708 12.7341 12.3328 13.2161 11.5958 13.5011C11.3798 13.5871 11.1848 13.6311 11.0178 13.6311C10.7508 13.6311 10.6498 13.5151 10.6418 13.5071C10.3948 13.1491 10.1198 12.7131 9.83981 12.2651C9.68281 12.3571 9.52681 12.4501 9.36081 12.5261C9.64881 12.9901 9.93681 13.4411 10.1948 13.8151C10.1948 13.8151 10.4228 14.1741 11.0178 14.1741C11.2288 14.1741 11.4858 14.1281 11.7968 14.0061C12.9168 13.5721 13.7898 12.6591 13.6958 11.9021C13.3948 11.8611 13.0928 11.7851 12.7828 11.6881ZM2.73081 10.1541C2.26581 10.5541 1.82481 11.0041 1.44281 11.5231C1.34481 11.6551 1.25681 11.7841 1.17481 11.9081C0.862809 11.5871 0.581809 10.9241 0.551809 10.1331C0.523809 9.51707 0.735809 9.27407 0.856809 9.23007C1.27181 9.11407 1.76481 8.99307 2.27381 8.87607C2.23881 8.70007 2.23481 8.51507 2.21881 8.33207C1.67981 8.45607 1.15281 8.58307 0.712809 8.70607C0.712809 8.70607 -0.0471912 8.88707 0.00880879 10.1561C0.0538088 11.3591 0.631809 12.4811 1.38181 12.6391C1.51581 12.3671 1.68681 12.1071 1.88081 11.8451C2.21781 11.3851 2.59881 10.9971 2.99781 10.6441C2.89681 10.4871 2.81481 10.3201 2.73081 10.1541ZM8.98481 8.90707C8.75381 9.31207 8.38881 9.61507 7.92881 9.77507C7.86881 9.79607 7.80681 9.81707 7.75181 9.81707C7.75181 9.81707 7.74381 9.81707 7.73881 9.81607C7.99981 10.2601 8.51981 11.1541 9.07481 12.0641C9.24381 11.9901 9.39481 11.8961 9.55181 11.8041C9.17281 11.1831 8.80581 10.5661 8.53181 10.0971C8.68181 10.0121 8.82181 9.91307 8.94881 9.80007C9.35381 10.3071 9.86281 10.7581 10.4368 11.1511C10.5718 11.0201 10.6878 10.8731 10.8048 10.7281C10.0328 10.2111 9.39681 9.59207 8.98481 8.90707ZM7.04081 5.89507C7.13181 5.88307 7.21981 5.87707 7.30881 5.87707C7.67981 5.87707 8.04681 5.98407 8.37481 6.19907C8.43081 6.23707 8.48781 6.27407 8.52181 6.32307C8.71481 5.85007 9.09681 4.89907 9.47181 3.90907C9.31381 3.82007 9.15781 3.72907 8.98681 3.65907C8.72681 4.34607 8.46281 5.01807 8.25681 5.52507C8.09981 5.45807 7.93581 5.40907 7.76781 5.37807C7.92081 4.75007 7.96481 4.07507 7.92281 3.38407C7.73881 3.35807 7.55381 3.33107 7.36381 3.32807C7.42981 4.26007 7.33081 5.14607 7.04081 5.89507ZM3.15581 9.79907C3.71381 9.38607 4.30381 9.05207 4.91281 8.83407C4.84681 8.67807 4.79881 8.51407 4.76681 8.34407C4.22981 8.45207 3.52181 8.59807 2.80481 8.75707C2.77081 8.57907 2.76381 8.39707 2.75181 8.21407C3.78281 7.98607 4.79181 7.78607 5.29181 7.68607C5.26781 7.74207 5.26781 7.81007 5.26781 7.87807C5.26781 8.36507 5.43881 8.80807 5.74681 9.15907C4.96281 9.32807 4.16881 9.72907 3.42381 10.2931C3.32481 10.1351 3.23581 9.97007 3.15581 9.79907Z" fill="white"/>
</svg>
