<svg width="14" height="11" viewBox="0 0 14 11" fill="none" xmlns="http://www.w3.org/2000/svg">
<path d="M12.4305 0.999967H1.7005C1.4195 0.999967 1.1655 1.11397 0.9845 1.29697C0.8015 1.47997 0.6875 1.73497 0.6875 2.01397V2.30197H1.2905C1.2905 2.09097 1.3035 1.94197 1.4645 1.77997C1.5735 1.67297 1.7205 1.60597 1.8785 1.60597H12.2495C12.4095 1.60597 12.5585 1.67297 12.6635 1.77997C12.7715 1.88697 12.8385 2.03497 12.8385 2.19397V2.33197H13.4435V2.01397C13.4435 1.73497 13.3275 1.47997 13.1465 1.29697C12.9615 1.11397 12.7085 0.999967 12.4305 0.999967ZM12.8385 3.49797V5.35697C12.8385 5.51697 12.7715 5.66397 12.6635 5.76997C12.5585 5.87697 12.4095 5.94497 12.2495 5.94497H1.8785C1.7205 5.94497 1.5735 5.87697 1.4645 5.77097C1.3595 5.66497 1.2905 5.51697 1.2905 5.35697V3.50197L0.6875 3.49997V5.53697C0.6875 5.81597 0.8015 6.06997 0.9845 6.25297C1.1655 6.43697 1.4195 6.55097 1.7005 6.55097H12.4305C12.7085 6.55097 12.9615 6.43697 13.1465 6.25297C13.3275 6.06997 13.4435 5.81597 13.4435 5.53697V3.49797H12.8385ZM4.3245 7.39597C4.4095 7.30897 4.5325 7.25297 4.6615 7.25297C4.7925 7.25297 4.9135 7.30897 5.0015 7.39597C5.0885 7.48297 5.1455 7.60397 5.1455 7.73497V9.50897C5.1455 9.63997 5.0885 9.76097 5.0015 9.84897C4.9135 9.93597 4.7925 9.99097 4.6615 9.99097C4.5325 9.99097 4.4095 9.93597 4.3245 9.84897C4.2365 9.76097 4.1815 9.63997 4.1815 9.50897V7.73497C4.1815 7.60397 4.2365 7.48297 4.3245 7.39597ZM6.7265 7.39597C6.8135 7.30897 6.9345 7.25297 7.0655 7.25297C7.1965 7.25297 7.3175 7.30897 7.4045 7.39597C7.4925 7.48297 7.5455 7.60397 7.5455 7.73497V9.50897C7.5455 9.63997 7.4925 9.76097 7.4045 9.84897C7.3175 9.93597 7.1965 9.99097 7.0655 9.99097C6.9345 9.99097 6.8135 9.93597 6.7265 9.84897C6.6385 9.76097 6.5825 9.63997 6.5825 9.50897V7.73497C6.5825 7.60397 6.6385 7.48297 6.7265 7.39597ZM1.9205 7.39597C2.0075 7.30897 2.1285 7.25297 2.2605 7.25297C2.3915 7.25297 2.5125 7.30897 2.5995 7.39597C2.6875 7.48297 2.7425 7.60397 2.7425 7.73497V9.50897C2.7425 9.63997 2.6875 9.76097 2.5995 9.84897C2.5125 9.93597 2.3915 9.99097 2.2605 9.99097C2.1285 9.99097 2.0095 9.93697 1.9205 9.84897C1.8325 9.76097 1.7795 9.63997 1.7795 9.50897V7.73497C1.7795 7.60397 1.8325 7.48297 1.9205 7.39597ZM9.1265 7.39597C9.2145 7.30897 9.3355 7.25297 9.4675 7.25297C9.5985 7.25297 9.7195 7.30897 9.8065 7.39597C9.8945 7.48297 9.9495 7.60397 9.9495 7.73497V9.50897C9.9495 9.64097 9.8945 9.76097 9.8065 9.84897C9.7185 9.93597 9.5975 9.99097 9.4675 9.99097C9.3355 9.99097 9.2145 9.93597 9.1265 9.84897C9.0395 9.76097 8.9865 9.63997 8.9865 9.50897V7.73497C8.9865 7.60397 9.0395 7.48297 9.1265 7.39597ZM7.9825 4.32897H2.3095C2.2515 4.32897 2.1995 4.37097 2.1595 4.43797C2.1205 4.50297 2.0975 4.59397 2.0975 4.69197C2.0975 4.78897 2.1205 4.87997 2.1595 4.94597C2.1995 5.01297 2.2515 5.05497 2.3095 5.05497H7.9825C8.0415 5.05497 8.0965 5.01497 8.1325 4.95097C8.1695 4.88597 8.1945 4.79497 8.1945 4.69197C8.1945 4.59397 8.1685 4.50297 8.1305 4.43797C8.0925 4.37097 8.0375 4.32897 7.9825 4.32897ZM11.9175 4.32897H9.6435C9.5855 4.32897 9.5345 4.37097 9.4935 4.43797C9.4545 4.50297 9.4315 4.59397 9.4315 4.69197C9.4315 4.78897 9.4545 4.87997 9.4935 4.94597C9.5345 5.01297 9.5855 5.05497 9.6435 5.05497H11.9175C11.9755 5.05497 12.0295 5.01197 12.0675 4.94597C12.1065 4.87997 12.1295 4.78897 12.1295 4.69197C12.1295 4.59397 12.1065 4.50297 12.0675 4.43797C12.0295 4.37097 11.9755 4.32897 11.9175 4.32897ZM11.5315 7.39597C11.6185 7.30797 11.7395 7.25297 11.8695 7.25297C11.9995 7.25297 12.1205 7.30897 12.2075 7.39597C12.2955 7.48297 12.3515 7.60397 12.3515 7.73497V9.50897C12.3515 9.63997 12.2955 9.76097 12.2075 9.84897C12.1205 9.93597 11.9995 9.99097 11.8695 9.99097C11.7395 9.99097 11.6185 9.93597 11.5315 9.84897C11.4435 9.76097 11.3875 9.64097 11.3875 9.50897V7.73497C11.3875 7.60397 11.4435 7.48297 11.5315 7.39597Z" stroke="white" stroke-width="0.255" stroke-linejoin="bevel"/>
</svg>
