<svg width="18" height="8" viewBox="0 0 18 8" fill="none" xmlns="http://www.w3.org/2000/svg">
<path d="M1.9883 2.56096H16.5793V2.30595H16.9303V2.91396H1.6343V2.30595H1.9883V2.56096ZM16.5793 1.47295V1.20496H1.9883V1.47295H1.6343V0.853955H16.9303V1.47295H16.5793ZM1.1333 3.41695H17.4323V2.30595H17.7873V3.76796H0.779297V2.30595H1.1333V3.41695ZM17.4323 1.47295V0.352955H1.1333V1.47295H0.779297V-4.48227e-05H17.7873V1.47295H17.4323ZM7.7183 5.50595L7.8753 5.21396L7.4313 4.97896L7.2633 5.29396L6.9443 5.14496L7.2883 4.50096L8.3513 5.06895L8.0403 5.65496L7.7183 5.50595ZM6.5933 6.55195L7.0363 6.78796L7.3273 6.24196L7.6463 6.39095L7.1793 7.26496L6.1183 6.69596L6.5513 5.88095L6.8723 6.02996L6.5933 6.55195ZM11.9143 6.24995L12.2543 6.76496L12.6733 6.48796L12.3743 6.03595L12.6963 5.88495L13.1613 6.58795L12.1553 7.25295L11.5923 6.39996L11.9143 6.24995ZM11.2723 5.27796L11.4503 5.54696L11.1273 5.69796L10.7833 5.17796L11.7893 4.51296L12.2313 5.18296L11.9093 5.33296L11.6903 5.00196L11.2723 5.27796ZM9.8183 5.59396V5.29496H9.3163V5.59396H8.9633V4.94096H10.1713V5.59396H9.8183ZM9.3163 7.07796H9.8183V6.42695H10.1713V7.42896H8.9633V6.42695H9.3163V7.07796Z" fill="white"/>
</svg>
