<svg width="12" height="14" viewBox="0 0 12 14" fill="none" xmlns="http://www.w3.org/2000/svg">
<path d="M8.96788 9.49503L8.87388 9.19203L8.79388 8.89003C8.73588 8.70103 8.65588 8.54003 8.55188 8.40303C8.44688 8.26703 8.31388 8.15203 8.14388 8.05503L8.12288 8.04403C8.34288 7.81503 8.57188 7.58703 8.79688 7.36303L8.80988 7.37103C8.86988 7.41603 8.93288 7.46403 8.98888 7.51403C9.04888 7.56403 9.10588 7.61803 9.15788 7.67603C9.32988 7.87803 9.44788 8.04803 9.53788 8.23503C9.62988 8.42303 9.69488 8.62803 9.75888 8.89903L9.84888 9.18303C9.91388 9.11303 9.98988 9.02403 10.0719 8.92003C10.1419 8.82903 10.2159 8.72303 10.2899 8.60003C10.3789 8.45703 10.4649 8.29503 10.5379 8.12003C10.6039 7.96603 10.6589 7.80003 10.7009 7.62303C10.7389 7.46603 10.7679 7.29603 10.7799 7.11803C10.7909 6.95303 10.7909 6.77803 10.7779 6.59603C10.7649 6.43803 10.7389 6.27303 10.7009 6.10203C10.6659 5.94003 10.6169 5.77103 10.5579 5.59903L10.5549 5.58803C10.7789 5.35403 11.0179 5.11303 11.2489 4.88503L11.2619 4.90603C11.3819 5.11803 11.4789 5.37503 11.5519 5.64003C11.6359 5.94103 11.6889 6.25403 11.7099 6.52203C11.7449 6.97303 11.7099 7.42003 11.6069 7.85003C11.5009 8.28503 11.3249 8.70303 11.0879 9.09103C10.8679 9.44703 10.5879 9.81403 10.2939 10.047C10.1229 10.18 9.94888 10.27 9.77988 10.286C9.61088 10.302 9.44388 10.245 9.29388 10.086C9.17388 9.95903 9.06388 9.76603 8.96788 9.49503ZM7.22488 7.70803C7.02988 7.64803 6.84988 7.57803 6.69388 7.47103C6.53588 7.36303 6.40488 7.21603 6.30988 7.00303C6.22088 6.79703 6.18488 6.57503 6.18788 6.35403C6.19188 6.10003 6.24388 5.84403 6.32588 5.60903C6.42588 5.32703 6.59088 4.98103 6.78388 4.65603C6.95888 4.36503 7.15788 4.08703 7.36088 3.88203C7.49488 3.74403 7.64788 3.61903 7.81088 3.51503C7.96288 3.41903 8.12688 3.34103 8.30088 3.28803C8.51288 3.22303 8.72588 3.19803 8.93688 3.21003C9.15588 3.22203 9.37788 3.27403 9.59288 3.35903C9.80088 3.44203 9.99588 3.55303 10.1789 3.68203C10.3759 3.82403 10.5599 3.98903 10.7229 4.16603L10.7349 4.17803C10.5159 4.39003 10.2839 4.62203 10.0749 4.84303L9.92688 4.68603C9.66288 4.42903 9.36388 4.22903 9.05288 4.16703C8.74188 4.10503 8.41788 4.17903 8.10488 4.46203L8.02688 4.53703C7.86988 4.69603 7.71288 4.91603 7.57288 5.15003C7.42088 5.41003 7.28788 5.68703 7.20888 5.91603C6.99088 6.53203 7.11488 6.68203 7.45888 6.80203L7.97588 6.96403C7.72988 7.21003 7.47588 7.46003 7.23588 7.71103L7.22488 7.70803ZM2.52488 12.305C2.13788 12.066 1.79788 11.771 1.51388 11.432C1.22788 11.09 0.99488 10.702 0.82488 10.279C0.74688 10.086 0.606879 9.66403 0.549879 9.27203C0.513879 9.01803 0.512879 8.77403 0.587879 8.61103C0.686879 8.39603 0.848879 8.29003 1.03288 8.25103C1.21688 8.21303 1.42688 8.24103 1.62188 8.29203C1.73988 8.32803 1.86388 8.37403 1.98888 8.42003C2.29288 8.53503 2.61188 8.65303 2.92188 8.64603H2.93288L3.38288 9.52103L3.35988 9.52503C3.07288 9.58503 2.81188 9.59603 2.55388 9.56203C2.29788 9.52903 2.04388 9.44903 1.78088 9.32903L1.48888 9.22703C1.53888 9.51603 1.63088 9.80503 1.75488 10.077C1.88088 10.353 2.04388 10.613 2.23488 10.841C2.33988 10.965 2.45888 11.088 2.59488 11.204C2.71988 11.312 2.86088 11.416 3.01388 11.511C3.20288 11.629 3.43488 11.746 3.67188 11.835C3.87688 11.912 4.08688 11.969 4.28088 11.989L4.46488 12L4.65788 12.001L5.12088 12.9L5.09688 12.904C4.62188 12.966 4.18388 12.942 3.76088 12.841C3.33788 12.739 2.93188 12.558 2.52488 12.305ZM3.76188 8.33603L4.00788 8.15603C4.28888 7.94503 4.57188 7.73403 4.92288 7.66403C5.06188 7.65403 5.17688 7.65403 5.28888 7.67103C5.40388 7.68803 5.51388 7.72403 5.64288 7.78503C5.79988 7.85903 5.94588 7.96203 6.07488 8.08003C6.22188 8.21203 6.34988 8.36503 6.45588 8.52303C6.62588 8.77203 6.80688 9.10803 6.95188 9.45803C7.08088 9.76703 7.18588 10.089 7.22988 10.372C7.25888 10.555 7.27188 10.74 7.26188 10.922C7.25088 11.105 7.21788 11.287 7.15688 11.464C7.09588 11.648 7.00588 11.817 6.89488 11.968C6.77888 12.123 6.63788 12.262 6.47788 12.381C6.40488 12.435 6.32588 12.486 6.24488 12.533C6.16288 12.58 6.07688 12.624 5.98888 12.662L5.97488 12.669L5.54588 11.836L5.56288 11.828C5.72288 11.758 5.87088 11.678 5.99388 11.573C6.11488 11.469 6.21488 11.337 6.27288 11.164C6.32888 10.995 6.34088 10.812 6.32188 10.632C6.30588 10.451 6.25888 10.27 6.20188 10.104C6.10088 9.83603 6.00388 9.62003 5.91588 9.44803C5.82888 9.27403 5.75188 9.14303 5.68588 9.04603C5.62688 8.95903 5.55288 8.86803 5.46988 8.78903C5.40088 8.72403 5.32288 8.66703 5.24288 8.62903C5.19688 8.60703 5.14888 8.59303 5.10188 8.58903C5.05588 8.58703 5.00888 8.59503 4.96188 8.61703L4.83488 8.71203C4.62588 8.86903 4.41088 9.02903 4.19388 9.16603L4.17788 9.17703L3.74788 8.34503L3.76188 8.33603ZM6.52288 2.61203C6.39288 2.76703 6.21688 2.90903 6.03988 3.05003C5.79288 3.24803 5.54288 3.44903 5.42288 3.68803L5.41488 3.70103C5.10688 3.63603 4.78888 3.57803 4.47888 3.51703L4.48588 3.49703C4.57688 3.24903 4.70888 3.03903 4.86788 2.85403C5.02888 2.67003 5.21788 2.50703 5.42988 2.35203L5.65688 2.15803C5.56788 2.12403 5.45488 2.08803 5.32888 2.05503C5.21688 2.02503 5.08988 1.99703 4.94888 1.97503C4.59188 1.91903 4.23988 1.91803 3.90188 1.97303C3.56388 2.02703 3.23388 2.13703 2.91188 2.30303C2.74288 2.39003 2.55088 2.51003 2.37088 2.64303C2.21588 2.76003 2.06988 2.88903 1.95888 3.01603L1.95088 3.02303L0.945879 2.82703L0.959879 2.80403C1.14488 2.51403 1.37088 2.26003 1.62988 2.03903C1.88688 1.81903 2.17488 1.63003 2.48488 1.47103C2.88688 1.26303 3.31388 1.12303 3.74888 1.05303C4.19088 0.983031 4.64288 0.982031 5.09388 1.05103C5.30388 1.08403 5.67988 1.17703 6.00888 1.30103C6.24588 1.39103 6.46288 1.49903 6.57488 1.61303C6.71788 1.79903 6.77688 1.96503 6.76288 2.12703C6.74888 2.28803 6.66388 2.44503 6.52288 2.61203ZM5.26288 4.56503L5.27488 4.74703C5.28088 4.86903 5.29588 4.99603 5.30988 5.12003L5.33888 5.44003C5.33788 5.59703 5.30988 5.74603 5.25588 5.88603C5.20088 6.02403 5.12088 6.15203 5.01688 6.26503C4.91388 6.37003 4.79988 6.45803 4.67488 6.52903C4.54488 6.60203 4.40488 6.65803 4.25788 6.69603C4.22688 6.70703 4.16488 6.72603 4.07688 6.74403C3.98888 6.76203 3.86988 6.77903 3.72388 6.78703C3.42788 6.80603 3.04588 6.78803 2.66888 6.73403C2.33188 6.68603 1.99888 6.60803 1.73288 6.50203C1.45688 6.39403 1.20388 6.24303 0.994879 6.05003C0.803879 5.87203 0.644879 5.65603 0.535879 5.40003C0.428879 5.14103 0.38288 4.86003 0.38588 4.58003C0.38888 4.26403 0.45188 3.94203 0.55388 3.64603L0.558879 3.63103L1.48788 3.81303L1.47988 3.83203C1.42888 3.96103 1.38488 4.10303 1.35688 4.24603C1.32988 4.37303 1.31688 4.50403 1.31888 4.62803C1.32088 4.70103 1.32688 4.77403 1.34188 4.84403C1.35588 4.91103 1.37388 4.97603 1.40088 5.03803C1.48988 5.25603 1.65588 5.41403 1.85188 5.52703C2.04788 5.64103 2.27788 5.71303 2.49488 5.75903C2.72688 5.79903 3.04588 5.85003 3.36288 5.86003C3.67688 5.87003 3.98888 5.83903 4.20488 5.72203C4.26088 5.69103 4.30988 5.65703 4.34488 5.61503C4.37888 5.57403 4.40088 5.52303 4.40488 5.46003L4.34188 4.82203L4.32788 4.61203L4.32688 4.36903L5.26288 4.55103V4.56503Z" stroke="white" stroke-width="0.216" stroke-miterlimit="22.926"/>
</svg>
