<svg width="15" height="9" viewBox="0 0 15 9" fill="none" xmlns="http://www.w3.org/2000/svg">
<path d="M1.29311 4.30312H14.4541V1.70712H14.9601V4.55512C14.9601 4.69512 14.8471 4.80912 14.7071 4.80912H1.04011C0.901109 4.80912 0.787109 4.69512 0.787109 4.55512V3.93612H1.29311V4.30312ZM0.787109 3.22812V0.253115C0.787109 0.115115 0.901109 0.000115395 1.04011 0.000115395H14.7071C14.8471 0.000115395 14.9601 0.115115 14.9601 0.253115V0.998116H14.4541V0.506115H1.29311V3.22812H0.787109ZM13.4921 8.44312C13.4521 8.44312 13.4091 8.43212 13.3711 8.41212C13.2501 8.34412 13.2041 8.18912 13.2721 8.06812C13.5111 7.63612 13.5131 7.30312 13.2871 6.98212C12.9961 6.54012 12.9961 6.04812 13.2801 5.59212C13.3541 5.47412 13.5111 5.43812 13.6291 5.51112C13.7481 5.58612 13.7831 5.74112 13.7101 5.86112C13.5281 6.15012 13.5281 6.42212 13.7081 6.69612C14.0421 7.17012 14.0471 7.71412 13.7181 8.31112C13.6701 8.39412 13.5841 8.44312 13.4921 8.44312ZM9.72711 8.44312C9.68611 8.44312 9.64311 8.43212 9.60611 8.41212C9.48311 8.34412 9.43811 8.18912 9.50611 8.06812C9.74411 7.63612 9.74811 7.30312 9.52211 6.98212C9.23011 6.54012 9.22811 6.04812 9.51411 5.59212C9.58711 5.47412 9.74411 5.43812 9.86311 5.51112C9.98211 5.58612 10.0181 5.74112 9.94411 5.86112C9.76211 6.15212 9.76211 6.42212 9.94111 6.69612C10.2751 7.17012 10.2801 7.71412 9.95211 8.31112C9.90111 8.39412 9.81511 8.44312 9.72711 8.44312ZM5.95811 8.44312C5.91711 8.44312 5.87411 8.43212 5.83711 8.41212C5.71511 8.34412 5.66911 8.18912 5.73711 8.06812C5.97311 7.63612 5.97911 7.30312 5.75311 6.98212C5.46211 6.54012 5.45911 6.04812 5.74511 5.59212C5.81811 5.47412 5.97711 5.43812 6.09511 5.51112C6.21411 5.58612 6.24911 5.74112 6.17611 5.86112C5.99311 6.15212 5.99311 6.42212 6.17311 6.69612C6.50711 7.17012 6.51211 7.71412 6.18411 8.31112C6.13511 8.39412 6.04711 8.44312 5.95811 8.44312ZM2.18911 8.44312C2.14811 8.44312 2.10511 8.43212 2.06711 8.41212C1.94611 8.34412 1.90011 8.18912 1.96911 8.06812C2.20711 7.63612 2.21011 7.30312 1.98411 6.98212C1.69311 6.54012 1.69311 6.04812 1.97711 5.59212C2.04911 5.47412 2.20711 5.43812 2.32611 5.51112C2.44511 5.58612 2.48011 5.74112 2.40711 5.86112C2.22511 6.15012 2.22511 6.42212 2.40411 6.69612C2.73811 7.17012 2.74311 7.71412 2.41611 8.31112C2.36611 8.39412 2.28011 8.44312 2.18911 8.44312ZM13.4781 1.97412C13.6371 1.97412 13.7661 2.10412 13.7661 2.26312C13.7661 2.42212 13.6371 2.55112 13.4781 2.55112C13.3181 2.55112 13.1891 2.42212 13.1891 2.26312C13.1891 2.10412 13.3181 1.97412 13.4781 1.97412ZM12.5791 1.97412C12.7381 1.97412 12.8671 2.10412 12.8671 2.26312C12.8671 2.42212 12.7381 2.55112 12.5791 2.55112C12.4201 2.55112 12.2901 2.42212 12.2901 2.26312C12.2901 2.10412 12.4201 1.97412 12.5791 1.97412ZM13.5591 3.53812H2.08811C1.94911 3.53812 1.83511 3.42512 1.83511 3.28512C1.83511 3.14512 1.94911 3.03212 2.08811 3.03212H13.5591C13.6981 3.03212 13.8121 3.14512 13.8121 3.28512C13.8121 3.42512 13.7001 3.53812 13.5591 3.53812Z" fill="white"/>
</svg>
