<svg width="15" height="15" viewBox="0 0 15 15" fill="none" xmlns="http://www.w3.org/2000/svg">
<path d="M9.01518 7.96607C8.96818 8.50807 8.52518 8.94007 7.97118 8.94007C7.38618 8.94007 6.91118 8.46307 6.91118 7.87707C6.91118 7.62407 7.01118 7.40107 7.16118 7.21707L6.79818 6.79007C6.53318 7.07607 6.36818 7.45707 6.36818 7.87707C6.36818 8.76507 7.08518 9.48307 7.97118 9.48307C8.85818 9.48307 9.57718 8.76507 9.57718 7.87707C9.57718 7.84507 9.57018 7.81307 9.56718 7.78107L9.01518 7.96607ZM7.59718 6.89207C7.71418 6.84807 7.83918 6.81707 7.97118 6.81707C8.39418 6.81707 8.75118 7.06907 8.92218 7.42407L9.44918 7.24807C9.20218 6.67507 8.63418 6.27407 7.97118 6.27407C7.70318 6.27407 7.45418 6.34507 7.23118 6.46207L7.59718 6.89207ZM7.99918 2.77907C8.19118 2.77907 8.37218 2.81307 8.55818 2.83507C8.47818 2.22407 8.34318 1.60807 8.11718 1.00207C8.05918 0.848071 8.00018 0.704073 7.94218 0.569073C8.02818 0.552073 8.12418 0.543072 8.22818 0.543072C8.69918 0.543072 9.27418 0.721072 9.76818 1.01807C10.2982 1.33207 10.3872 1.64207 10.3562 1.76907C10.2262 2.17807 10.0532 2.66007 9.87118 3.15007C10.0422 3.21907 10.2012 3.31007 10.3622 3.39707C10.5542 2.87807 10.7352 2.36907 10.8742 1.93407C10.8742 1.93407 11.1382 1.19907 10.0442 0.550072C9.45218 0.195072 8.79018 7.24792e-05 8.22818 7.24792e-05C7.81018 7.24792e-05 7.45018 0.108072 7.21618 0.338072C7.36918 0.601072 7.49518 0.886072 7.60818 1.19107C7.80718 1.72307 7.92118 2.25407 7.99918 2.77907ZM13.4802 11.6881C12.9292 11.5171 12.4342 11.2791 11.9682 11.0151C11.8532 11.1601 11.7452 11.3101 11.6172 11.4421C12.1432 11.7471 12.7062 12.0161 13.3172 12.2061C13.4752 12.2561 13.6252 12.2981 13.7682 12.3331C13.5652 12.7341 13.0292 13.2161 12.2922 13.5011C12.0752 13.5871 11.8812 13.6311 11.7132 13.6311C11.4472 13.6311 11.3452 13.5151 11.3392 13.5071C11.0922 13.1491 10.8152 12.7131 10.5362 12.2651C10.3792 12.3571 10.2232 12.4501 10.0562 12.5261C10.3462 12.9901 10.6332 13.4411 10.8922 13.8151C10.8922 13.8151 11.1192 14.1741 11.7132 14.1741C11.9252 14.1741 12.1822 14.1281 12.4922 14.0061C13.6122 13.5721 14.4852 12.6591 14.3922 11.9021C14.0912 11.8611 13.7892 11.7851 13.4802 11.6881ZM3.42618 10.1541C2.96118 10.5541 2.52118 11.0041 2.14018 11.5231C2.04018 11.6551 1.95218 11.7841 1.87118 11.9081C1.55918 11.5871 1.27818 10.9241 1.24818 10.1331C1.22018 9.51707 1.43218 9.27407 1.55318 9.23007C1.96818 9.11407 2.46118 8.99307 2.97018 8.87607C2.93518 8.70007 2.93118 8.51507 2.91518 8.33207C2.37618 8.45607 1.85018 8.58307 1.40818 8.70607C1.40818 8.70607 0.649182 8.88707 0.706182 10.1561C0.751182 11.3591 1.32918 12.4811 2.07718 12.6391C2.21218 12.3671 2.38418 12.1071 2.57718 11.8451C2.91318 11.3851 3.29618 10.9971 3.69518 10.6441C3.59218 10.4871 3.51118 10.3201 3.42618 10.1541ZM9.68118 8.90707C9.44918 9.31207 9.08518 9.61507 8.62518 9.77507C8.56418 9.79607 8.50418 9.81707 8.44718 9.81707C8.44418 9.81707 8.44018 9.81707 8.43618 9.81607C8.69518 10.2601 9.21618 11.1541 9.77118 12.0641C9.93918 11.9901 10.0922 11.8961 10.2482 11.8041C9.86918 11.1831 9.50318 10.5661 9.22818 10.0971C9.37918 10.0121 9.51818 9.91307 9.64518 9.80007C10.0502 10.3071 10.5592 10.7581 11.1322 11.1511C11.2672 11.0201 11.3832 10.8731 11.5002 10.7281C10.7292 10.2111 10.0942 9.59207 9.68118 8.90707ZM7.73718 5.89507C7.82818 5.88307 7.91618 5.87707 8.00518 5.87707C8.37618 5.87707 8.74218 5.98407 9.07118 6.19907C9.12718 6.23707 9.18318 6.27407 9.21818 6.32307C9.41118 5.85007 9.79318 4.89907 10.1692 3.90907C10.0102 3.82007 9.85318 3.72907 9.68418 3.65907C9.42318 4.34607 9.15918 5.01807 8.95418 5.52507C8.79618 5.45807 8.63118 5.40907 8.46518 5.37807C8.61718 4.75007 8.66118 4.07507 8.61918 3.38407C8.43518 3.35807 8.25018 3.33107 8.05918 3.32807C8.12618 4.26007 8.02718 5.14607 7.73718 5.89507ZM3.85218 9.79907C4.40918 9.38607 5.00018 9.05207 5.60818 8.83407C5.54418 8.67807 5.49418 8.51407 5.46418 8.34407C4.92718 8.45207 4.21818 8.59807 3.50118 8.75707C3.46618 8.57907 3.46018 8.39707 3.44618 8.21407C4.48018 7.98607 5.48718 7.78607 5.98918 7.68607C5.96418 7.74207 5.96418 7.81007 5.96418 7.87807C5.96418 8.36507 6.13518 8.80807 6.44118 9.15907C5.65818 9.32807 4.86418 9.72907 4.12018 10.2931C4.02118 10.1351 3.93118 9.97007 3.85218 9.79907ZM13.7012 7.35807H10.7562V6.81607H13.7012V7.35807ZM12.5002 8.56107H11.9562V5.61507H12.5002V8.56107Z" fill="white"/>
</svg>
