<svg width="12" height="14" viewBox="0 0 12 14" fill="none" xmlns="http://www.w3.org/2000/svg">
<path d="M11.07 12.3204C11.245 12.3204 11.385 12.4624 11.385 12.6364C11.385 12.8104 11.245 12.9524 11.07 12.9524H2.07504C1.50404 12.9524 1.04004 12.4074 1.04004 11.7384C1.04004 11.0694 1.50404 10.5244 2.07504 10.5244H10.306C10.569 10.5244 10.755 10.2574 10.755 9.94139C10.755 9.62639 10.569 9.35939 10.349 9.35939H1.35604C1.18004 9.35939 1.04004 9.21739 1.04004 9.04339C1.04004 8.86839 1.18004 8.72739 1.35604 8.72739H10.306C10.923 8.72739 11.385 9.27239 11.385 9.94139C11.385 10.6114 10.923 11.1564 10.349 11.1564H2.07504C1.85704 11.1564 1.67204 11.4234 1.67204 11.7384C1.67204 12.0534 1.85704 12.3204 2.07504 12.3204H11.07ZM2.47304 7.22439C2.47304 7.39939 2.61504 7.54039 2.79004 7.54039C2.96504 7.54039 3.10604 7.39939 3.10604 7.22439V2.67539L3.58104 3.65239C3.65804 3.81039 3.84804 3.87539 4.00404 3.79839C4.16104 3.72139 4.22504 3.53239 4.15004 3.37539L3.07404 1.16439C2.96604 0.945392 2.61004 0.945392 2.50604 1.16439L1.43004 3.37539C1.35404 3.53239 1.42104 3.72139 1.57704 3.79839C1.62204 3.82039 1.66904 3.82939 1.71604 3.82939C1.83204 3.82939 1.94504 3.76439 2.00004 3.65239L2.47304 2.67639V7.22439ZM5.69504 7.22439C5.69504 7.39939 5.83704 7.54039 6.01004 7.54039C6.18404 7.54039 6.32804 7.39939 6.32804 7.22439V2.67539L6.80104 3.65239C6.87904 3.81039 7.07104 3.87539 7.22404 3.79839C7.38204 3.72139 7.44804 3.53239 7.37204 3.37539L6.29604 1.16439C6.18904 0.945392 5.83204 0.945392 5.72604 1.16439L4.65304 3.37539C4.57604 3.53239 4.64004 3.72139 4.79904 3.79839C4.84204 3.82039 4.88904 3.82939 4.93604 3.82939C5.05204 3.82939 5.16704 3.76439 5.22004 3.65239L5.69504 2.67639V7.22439ZM8.91704 7.22339C8.91704 7.39739 9.05704 7.53939 9.23304 7.53939C9.40804 7.53939 9.54904 7.39739 9.54904 7.22339V2.67439L10.024 3.65139C10.099 3.80939 10.293 3.87439 10.447 3.79739C10.603 3.72039 10.67 3.53039 10.592 3.37439L9.51604 1.16339C9.41104 0.945393 9.05204 0.945393 8.94904 1.16339L7.87404 3.37439C7.79804 3.53039 7.86404 3.72039 8.01904 3.79739C8.06504 3.81939 8.11204 3.82839 8.15904 3.82839C8.27504 3.82839 8.38704 3.76339 8.44304 3.65139L8.91704 2.67539V7.22339Z" stroke="white" stroke-width="0.17" stroke-linejoin="bevel"/>
</svg>
