<svg width="7" height="15" viewBox="0 0 7 15" fill="none" xmlns="http://www.w3.org/2000/svg">
<path d="M4.0688 9.44407V6.56307C4.0688 6.19907 3.7718 5.90207 3.4078 5.90207C3.0448 5.90207 2.7458 6.19907 2.7458 6.56307V9.44407C2.1338 9.70207 1.7058 10.3061 1.7058 11.0121C1.7058 11.9531 2.4668 12.7151 3.4078 12.7151C4.3468 12.7151 5.1098 11.9531 5.1098 11.0121C5.1098 10.3071 4.6798 9.70207 4.0688 9.44407ZM3.3988 13.5281C2.1778 13.5281 1.1648 12.6251 0.992797 11.4511H0.341797C0.517797 12.9811 1.8218 14.1741 3.3988 14.1741C4.9748 14.1741 6.2788 12.9811 6.4558 11.4511H5.8038C5.6328 12.6241 4.6198 13.5281 3.3988 13.5281ZM6.4558 10.7421C6.3628 9.93507 5.9598 9.20607 5.3168 8.69307V4.00707H4.6718V8.81107C4.6718 8.81807 4.6728 8.82507 4.6728 8.83207C4.6668 8.93907 4.7128 9.04807 4.8078 9.11507C4.8278 9.13007 4.8478 9.14407 4.8688 9.16007C5.3828 9.55107 5.7138 10.1151 5.8048 10.7421H6.4558ZM0.992797 10.7421C1.0878 10.1061 1.4338 9.52207 1.9598 9.13607L1.9898 9.11407C2.0858 9.04807 2.1318 8.93507 2.1238 8.82607C2.1238 8.81807 2.1258 8.81107 2.1258 8.80307V4.00707H1.4808V8.69307C0.845797 9.20007 0.436797 9.94107 0.341797 10.7421H0.992797ZM2.1258 3.29807V1.91807C2.1258 1.21507 2.6968 0.645073 3.3988 0.645073C4.0998 0.645073 4.6718 1.21507 4.6718 1.91807V3.29807H5.3168V1.91807C5.3168 0.860072 4.4568 7.24792e-05 3.3988 7.24792e-05C2.3398 7.24792e-05 1.4808 0.860072 1.4808 1.91807V3.29807H2.1258Z" fill="white"/>
</svg>
