<svg width="15" height="15" viewBox="0 0 15 15" fill="none" xmlns="http://www.w3.org/2000/svg">
<path d="M8.71149 7.96707C8.66449 8.50907 8.22349 8.94007 7.66849 8.94007C7.08249 8.94007 6.60749 8.46407 6.60749 7.87807C6.60749 7.62407 6.70749 7.40007 6.85749 7.21707L6.49349 6.79007C6.23049 7.07607 6.06549 7.45607 6.06549 7.87807C6.06549 8.76307 6.78249 9.48307 7.66849 9.48307C8.55549 9.48307 9.27349 8.76307 9.27349 7.87807C9.27349 7.84407 9.26549 7.81407 9.26349 7.78007L8.71149 7.96707ZM7.29349 6.89207C7.41049 6.84707 7.53549 6.81607 7.66849 6.81607C8.08949 6.81607 8.44749 7.06807 8.61949 7.42507L9.14549 7.24707C8.89849 6.67507 8.33049 6.27307 7.66849 6.27307C7.39949 6.27307 7.15049 6.34507 6.92749 6.46107L7.29349 6.89207ZM7.69549 2.77907C7.88849 2.78007 8.06849 2.81407 8.25449 2.83507C8.17549 2.22407 8.03949 1.60707 7.81349 1.00207C7.75649 0.847072 7.69749 0.703073 7.63849 0.569073C7.72449 0.551073 7.82049 0.543073 7.92549 0.543073C8.39649 0.543073 8.97149 0.718072 9.46449 1.01807C9.99549 1.33207 10.0825 1.64207 10.0535 1.76807C9.92249 2.17707 9.74949 2.66007 9.56849 3.15007C9.73849 3.21707 9.89849 3.31007 10.0595 3.39707C10.2505 2.87707 10.4325 2.36907 10.5695 1.93407C10.5695 1.93407 10.8355 1.19807 9.74149 0.550073C9.15049 0.195073 8.48549 7.24792e-05 7.92549 7.24792e-05C7.50849 7.24792e-05 7.14749 0.108072 6.91349 0.338072C7.06549 0.601072 7.19149 0.885073 7.30449 1.19007C7.50249 1.72307 7.61749 2.25407 7.69549 2.77907ZM13.1765 11.6891C12.6255 11.5171 12.1305 11.2801 11.6635 11.0141C11.5495 11.1591 11.4415 11.3101 11.3155 11.4431C11.8395 11.7481 12.4025 12.0171 13.0135 12.2071C13.1725 12.2571 13.3215 12.2991 13.4645 12.3341C13.2635 12.7351 12.7275 13.2161 11.9895 13.5011C11.7725 13.5871 11.5775 13.6311 11.4105 13.6311C11.1445 13.6311 11.0425 13.5151 11.0355 13.5071C10.7895 13.1501 10.5125 12.7131 10.2325 12.2661C10.0755 12.3571 9.91949 12.4501 9.75249 12.5271C10.0435 12.9891 10.3295 13.4421 10.5895 13.8141C10.5895 13.8141 10.8155 14.1741 11.4105 14.1741C11.6235 14.1741 11.8785 14.1291 12.1895 14.0071C13.3105 13.5721 14.1825 12.6601 14.0885 11.9021C13.7865 11.8621 13.4855 11.7851 13.1765 11.6891ZM3.12249 10.1551C2.65649 10.5551 2.21849 11.0031 1.83449 11.5241C1.73649 11.6561 1.64949 11.7841 1.56749 11.9091C1.25449 11.5881 0.974487 10.9241 0.944487 10.1331C0.915487 9.51807 1.12749 9.27507 1.24949 9.23007C1.66449 9.11407 2.15549 8.99407 2.66649 8.87707C2.63149 8.70107 2.62749 8.51507 2.61049 8.33307C2.07149 8.45607 1.54449 8.58307 1.10549 8.70607C1.10549 8.70607 0.344487 8.88807 0.401487 10.1561C0.447487 11.3591 1.02449 12.4821 1.77449 12.6401C1.90849 12.3671 2.08049 12.1071 2.27249 11.8461C2.60849 11.3851 2.99149 10.9981 3.39249 10.6441C3.28849 10.4881 3.20849 10.3211 3.12249 10.1551ZM9.37749 8.90707C9.14649 9.31207 8.78249 9.61607 8.32249 9.77507C8.26149 9.79607 8.19949 9.81707 8.14649 9.81707H8.13149C8.39249 10.2601 8.91349 11.1551 9.46849 12.0641C9.63649 11.9901 9.78949 11.8961 9.94549 11.8041C9.56549 11.1831 9.20049 10.5661 8.92449 10.0971C9.07449 10.0121 9.21349 9.91307 9.34149 9.80107C9.74649 10.3071 10.2555 10.7591 10.8295 11.1501C10.9645 11.0211 11.0805 10.8741 11.1975 10.7281C10.4265 10.2101 9.79049 9.59207 9.37749 8.90707ZM7.43449 5.89607C7.52449 5.88407 7.61249 5.87707 7.70149 5.87707C8.07249 5.87707 8.43949 5.98407 8.76749 6.19907C8.82449 6.23707 8.88049 6.27407 8.91449 6.32307C9.10749 5.84907 9.49049 4.89807 9.86549 3.90907C9.70649 3.82107 9.55149 3.72807 9.38049 3.65707C9.11949 4.34507 8.85549 5.01707 8.65049 5.52607C8.49249 5.45907 8.32849 5.41007 8.16249 5.37707C8.31349 4.75107 8.35749 4.07507 8.31549 3.38407C8.13149 3.35807 7.94549 3.33107 7.75649 3.32807C7.82349 4.25907 7.72349 5.14707 7.43449 5.89607ZM3.54849 9.80007C4.10649 9.38607 4.69549 9.05307 5.30549 8.83407C5.23949 8.67607 5.19149 8.51307 5.16049 8.34507C4.62349 8.45207 3.91449 8.59907 3.19649 8.75707C3.16349 8.58007 3.15549 8.39707 3.14349 8.21307C4.17649 7.98707 5.18249 7.78507 5.68549 7.68607C5.66049 7.74207 5.66049 7.81107 5.66049 7.87907C5.66049 8.36507 5.83249 8.80907 6.13749 9.15907C5.35549 9.32707 4.55949 9.73007 3.81649 10.2941C3.71749 10.1351 3.62749 9.97007 3.54849 9.80007ZM13.3985 7.69607H10.4515V7.15307H13.3985V7.69607Z" fill="white"/>
</svg>
