<svg width="14" height="13" viewBox="0 0 14 13" fill="none" xmlns="http://www.w3.org/2000/svg">
<path fill-rule="evenodd" clip-rule="evenodd" d="M5.3604 5.64868C5.4464 5.72468 5.5014 5.65068 5.5714 5.58268C6.6134 4.57868 7.4144 4.49468 8.5594 5.25868C9.0094 4.51568 9.7144 4.09668 10.4644 3.72868C11.4034 3.26768 11.5134 2.77568 10.9074 1.92668C9.7064 0.240679 6.8574 -0.519322 5.0054 0.384678C4.0374 0.856678 3.3634 1.61468 3.4534 2.76568C3.4654 2.95168 3.4994 3.12768 3.5454 3.29468L4.0534 3.12268C4.0254 2.99968 4.0054 2.87068 3.9944 2.73268C3.8634 0.221678 8.5164 -0.159322 10.2344 2.11668C10.7794 2.74968 10.5774 3.05968 9.7864 3.47268C9.1964 3.76168 8.7564 3.98668 8.4004 4.56968C7.5014 3.96968 6.4094 4.10268 5.6194 4.82568C5.5644 4.87868 5.4684 5.01168 5.4014 4.95168C5.0324 4.63068 4.6874 4.31668 4.4294 3.94568L3.9144 4.12068C4.2834 4.70368 4.8224 5.18068 5.3604 5.64868ZM9.1954 6.07268C9.0864 6.10968 9.1224 6.19368 9.1474 6.28868C9.4954 7.69268 9.1684 8.42868 7.9324 9.03968C8.3494 9.80068 8.3614 10.6207 8.3034 11.4557C8.2364 12.4977 8.6054 12.8397 9.6444 12.7377C11.7054 12.5407 13.7894 10.4537 13.9304 8.39768C14.0064 7.32268 13.6854 6.36068 12.6464 5.86268C12.4764 5.78268 12.3074 5.72168 12.1394 5.67768L12.0354 6.20668C12.1574 6.24168 12.2794 6.28868 12.4034 6.34768C14.6424 7.48968 12.6444 11.7117 9.8164 12.0597C8.9974 12.2157 8.8294 11.8857 8.8664 10.9937C8.9114 10.3387 8.9354 9.84468 8.6094 9.24568C9.5794 8.76668 10.0084 7.75468 9.7784 6.70968C9.7584 6.63468 9.6924 6.48668 9.7784 6.45768C10.2414 6.29768 10.6844 6.15568 11.1334 6.11968L11.2414 5.58568C10.5504 5.61268 9.8694 5.84168 9.1954 6.07268ZM7.0754 9.22768C7.0964 9.11468 7.0064 9.10368 6.9124 9.07768C5.5224 8.67768 5.0484 8.02568 5.1354 6.65168C4.2674 6.63168 3.5524 6.23168 2.8584 5.76568C1.9914 5.18468 1.5084 5.33368 1.0774 6.28468C0.217404 8.16768 0.984404 11.0157 2.6944 12.1677C3.5874 12.7687 4.5804 12.9737 5.5314 12.3217C5.6844 12.2157 5.8234 12.0997 5.9444 11.9767L5.5404 11.6207C5.4484 11.7087 5.3454 11.7907 5.2324 11.8687C3.1244 13.2377 0.465404 9.39668 1.5794 6.77268C1.8544 5.98468 2.2224 6.00368 2.9764 6.48268C3.5234 6.84868 3.9384 7.11868 4.6204 7.13368C4.5494 8.21268 5.2124 9.09168 6.2324 9.41468C6.3054 9.43568 6.4674 9.45168 6.4514 9.54068C6.3574 10.0207 6.2564 10.4757 6.0654 10.8837L6.4734 11.2437C6.7954 10.6327 6.9384 9.92668 7.0754 9.22768ZM7.1574 7.58368C6.9634 7.58568 6.7974 7.50268 6.6924 7.36868H5.7434C5.9044 8.00568 6.4644 8.47468 7.1384 8.47668C7.8254 8.47968 8.4024 8.00668 8.5634 7.36868H7.6054C7.4964 7.49768 7.3344 7.58168 7.1574 7.58368ZM6.6724 6.66368C6.7764 6.50468 6.9494 6.39868 7.1444 6.39668C7.3394 6.39368 7.5234 6.50268 7.6334 6.66368H8.5704C8.4194 6.00068 7.8414 5.51668 7.1394 5.51968C6.4454 5.52368 5.8764 6.00668 5.7314 6.66368H6.6724Z" fill="white"/>
</svg>
