<svg width="16" height="7" viewBox="0 0 16 7" fill="none" xmlns="http://www.w3.org/2000/svg">
<path d="M12.833 1.22005C12.833 1.09105 12.937 0.988051 13.065 0.988051C13.193 0.988051 13.298 1.09105 13.298 1.22005C13.298 1.34805 13.193 1.45105 13.065 1.45105C12.937 1.45105 12.833 1.34805 12.833 1.22005ZM13.763 1.22005C13.763 1.09105 13.866 0.988051 13.995 0.988051C14.123 0.988051 14.228 1.09105 14.228 1.22005C14.228 1.34805 14.123 1.45105 13.995 1.45105C13.866 1.45105 13.763 1.34805 13.763 1.22005ZM14.162 5.76305H8.37196V6.22705H14.291C14.371 6.22705 14.446 6.18505 14.488 6.11905L15.098 5.08005C15.121 5.04305 15.133 5.00105 15.133 4.95705V3.97205H14.669V4.72505H1.42396L1.41596 1.94705H0.959961V4.95705C0.959961 5.00105 0.972961 5.04305 0.994961 5.08005L1.54696 6.11905C1.58996 6.18505 1.66396 6.22705 1.74396 6.22705H7.66296V5.76305H1.87296L1.61096 5.19005H14.481L14.162 5.76305ZM14.669 0.452051V3.26305H15.133V0.452051C15.133 0.202051 14.931 0.00105054 14.683 5.05447e-05H1.41096C1.16196 0.00105054 0.959961 0.202051 0.959961 0.452051V1.23805H1.41296L1.41096 0.465051L14.669 0.452051Z" fill="white"/>
</svg>
