<svg width="13" height="16" viewBox="0 0 13 16" fill="none" xmlns="http://www.w3.org/2000/svg">
<path d="M12.3472 12.7911H8.56619C8.53519 12.7911 8.50819 12.7871 8.48119 12.7801C8.45119 12.7731 8.42619 12.7621 8.40119 12.7491C8.34819 12.7191 8.30219 12.6751 8.27219 12.6231C8.24319 12.5731 8.22519 12.5131 8.22519 12.4511C8.22519 12.3571 8.26319 12.2711 8.32519 12.2101C8.38519 12.1491 8.47219 12.1101 8.56619 12.1101H12.3472C12.4402 12.1101 12.5262 12.1481 12.5862 12.2101C12.6492 12.2711 12.6872 12.3571 12.6872 12.4511C12.6872 12.5131 12.6682 12.5731 12.6402 12.6231C12.6102 12.6751 12.5642 12.7191 12.5112 12.7491C12.4872 12.7621 12.4582 12.7731 12.4312 12.7801C12.4042 12.7871 12.3742 12.7911 12.3472 12.7911ZM5.13719 9.83809V6.51909H4.49919V10.0421C4.49919 10.0831 4.50819 10.1241 4.52319 10.1611C4.53719 10.1991 4.56119 10.2341 4.58719 10.2631L4.63319 10.3011L4.68419 10.3311C4.82519 10.3961 4.95719 10.4751 5.08119 10.5641C5.20819 10.6551 5.32619 10.7571 5.43219 10.8681C5.62819 11.0731 5.78919 11.3121 5.90919 11.5721C6.02319 11.8231 6.09619 12.0071 6.12119 12.2891H6.76119C6.73719 11.9501 6.65719 11.7091 6.52919 11.4011C6.39719 11.0841 6.21319 10.7901 5.98919 10.5321C5.86819 10.3961 5.73819 10.2701 5.59619 10.1551C5.45519 10.0421 5.30519 9.93909 5.14519 9.85109L5.15219 9.83809H5.13719ZM5.13719 5.81009V2.51109C5.13719 2.38009 5.11919 2.25409 5.08819 2.13409C5.05819 2.01009 5.01019 1.89109 4.95019 1.78209C4.81819 1.54509 4.62419 1.34709 4.39319 1.20909C4.16719 1.07709 3.90719 1.00009 3.62619 1.00009C3.20919 1.00009 2.83119 1.17009 2.55919 1.44309C2.28419 1.71709 2.11619 2.09509 2.11619 2.51109V5.81009H2.74019C2.73719 4.66909 2.73919 3.64709 2.75219 2.51109C2.75219 2.27009 2.85119 2.05109 3.00919 1.89409C3.16619 1.73609 3.38619 1.63809 3.62619 1.63809C3.70119 1.63809 3.77519 1.64709 3.84419 1.66509C3.91519 1.68309 3.98519 1.71109 4.04819 1.74609C4.18519 1.82209 4.29919 1.93409 4.37819 2.06809C4.45519 2.19809 4.49919 2.35009 4.49919 2.51109V5.81009H5.13719ZM2.11619 6.51909V9.83809H2.10119L2.10919 9.85109C1.94919 9.93909 1.79619 10.0421 1.65719 10.1551C1.51519 10.2701 1.38319 10.3961 1.26519 10.5321C1.03819 10.7901 0.857187 11.0841 0.724187 11.4011C0.597187 11.7091 0.516188 11.9501 0.492188 12.2891H1.13119C1.15719 12.0081 1.23119 11.8241 1.34419 11.5721C1.46119 11.3121 1.62219 11.0731 1.82219 10.8681C1.92719 10.7571 2.04319 10.6551 2.16919 10.5641C2.29319 10.4751 2.42819 10.3961 2.56919 10.3311C2.60719 10.3131 2.64019 10.2891 2.66619 10.2601C2.69519 10.2301 2.71719 10.1951 2.73219 10.1581L2.74619 10.1011L2.75219 10.0421C2.75219 8.87009 2.74519 7.69509 2.74219 6.51909H2.11619ZM0.493187 13.0271C0.556187 13.8361 0.927187 14.3841 1.48919 14.9061C2.05019 15.4271 2.80219 15.7461 3.62619 15.7461C4.45119 15.7461 5.20219 15.4271 5.76419 14.9061C6.32619 14.3841 6.69819 13.8361 6.76019 13.0271H6.11819C6.05719 13.6611 5.75719 14.0501 5.31219 14.4561C4.86719 14.8611 4.27519 15.1091 3.62619 15.1091C2.97919 15.1091 2.38619 14.8611 1.94119 14.4561C1.49419 14.0501 1.19619 13.6611 1.13319 13.0271H0.493187ZM5.19819 12.6251C5.19819 13.0591 5.02219 13.4521 4.73719 13.7361C4.45219 14.0201 4.06019 14.1961 3.62619 14.1961C3.19319 14.1961 2.80019 14.0201 2.51619 13.7361C2.23219 13.4521 2.05519 13.0591 2.05519 12.6251C2.05519 12.4901 2.07319 12.3581 2.10519 12.2331C2.13819 12.1041 2.18819 11.9801 2.25019 11.8661C2.38719 11.6201 2.58719 11.4141 2.82919 11.2711C3.06319 11.1341 3.33419 11.0551 3.62619 11.0551C4.06019 11.0551 4.45219 11.2311 4.73719 11.5151C5.02119 11.7991 5.19819 12.1921 5.19819 12.6251ZM7.78519 3.12209H6.40519C6.32019 3.12209 6.24219 3.08709 6.18619 3.03109C6.12819 2.97509 6.09519 2.89709 6.09519 2.81209V2.74609C6.09519 2.66109 6.12819 2.58309 6.18619 2.52709C6.24219 2.47109 6.32019 2.43609 6.40519 2.43609H7.78519C7.86819 2.43609 7.94819 2.47109 8.00219 2.52709C8.06019 2.58309 8.09419 2.66109 8.09419 2.74609V2.81209C8.09419 2.89709 8.06019 2.97509 8.00219 3.03109C7.94819 3.08709 7.86819 3.12209 7.78519 3.12209ZM7.78519 4.69609H6.40519C6.32019 4.69609 6.24219 4.66109 6.18619 4.60509C6.12819 4.54909 6.09519 4.47109 6.09519 4.38609V4.32009C6.09519 4.23409 6.12819 4.15709 6.18619 4.10109C6.24219 4.04409 6.32019 4.01009 6.40519 4.01009H7.78519C7.86819 4.01009 7.94819 4.04409 8.00219 4.10109C8.06019 4.15709 8.09419 4.23409 8.09419 4.32009V4.38609C8.09419 4.47109 8.06019 4.54909 8.00219 4.60509C7.94819 4.66109 7.86819 4.69609 7.78519 4.69609ZM7.78519 6.27009H6.40519C6.32019 6.27009 6.24219 6.23409 6.18619 6.17809C6.12819 6.12209 6.09519 6.04409 6.09519 5.95909V5.89409C6.09519 5.80909 6.12819 5.73009 6.18619 5.67509C6.24219 5.61809 6.32019 5.58309 6.40519 5.58309H7.78519C7.86819 5.58309 7.94819 5.61809 8.00219 5.67509C8.06019 5.73009 8.09419 5.80909 8.09419 5.89409V5.95909C8.09419 6.04409 8.06019 6.12209 8.00219 6.17809C7.94819 6.23409 7.86819 6.27009 7.78519 6.27009ZM7.78519 7.84309H6.40519C6.32019 7.84309 6.24219 7.80809 6.18619 7.75209C6.12819 7.69609 6.09519 7.61809 6.09519 7.53309V7.46709C6.09519 7.38209 6.12819 7.30409 6.18619 7.24809C6.24219 7.19209 6.32019 7.15709 6.40519 7.15709H7.78519C7.86819 7.15709 7.94819 7.19209 8.00219 7.24809C8.06019 7.30409 8.09419 7.38209 8.09419 7.46709V7.53309C8.09419 7.61809 8.06019 7.69609 8.00219 7.75209C7.94819 7.80809 7.86819 7.84309 7.78519 7.84309ZM7.78519 9.41709H6.40519C6.32019 9.41709 6.24219 9.38209 6.18619 9.32609C6.12819 9.27009 6.09519 9.19209 6.09519 9.10709V9.04109C6.09519 8.95609 6.12819 8.87809 6.18619 8.82209C6.24219 8.76609 6.32019 8.73109 6.40519 8.73109H7.78519C7.86819 8.73109 7.94819 8.76609 8.00219 8.82209C8.06019 8.87809 8.09419 8.95609 8.09419 9.04109V9.10709C8.09419 9.19209 8.06019 9.27009 8.00219 9.32609C7.94819 9.38209 7.86819 9.41709 7.78519 9.41709Z" stroke="white" stroke-width="0.255" stroke-linejoin="bevel"/>
</svg>
