<svg width="12" height="13" viewBox="0 0 12 13" fill="none" xmlns="http://www.w3.org/2000/svg">
<path fill-rule="evenodd" clip-rule="evenodd" d="M11.2844 6.86204C11.2794 9.47804 9.47442 11.69 6.95642 12.21C6.71142 12.26 6.46742 12.293 6.22342 12.309V11.05C8.08542 10.887 9.67942 9.47504 9.98042 7.55504C10.2824 5.64204 9.24542 3.78704 7.46242 3.04704C7.19542 2.93604 7.08742 2.75004 7.12542 2.46404C7.13742 2.37904 7.15942 2.29604 7.19242 2.21604C7.33342 1.87504 7.61042 1.73704 7.96442 1.89704C9.76142 2.71304 10.8504 4.08004 11.2144 6.02304C11.2314 6.12304 11.2444 6.22504 11.2564 6.32704C11.2754 6.51904 11.2894 6.71104 11.2844 6.86204ZM5.51442 12.311C3.08342 12.155 0.96542 10.359 0.52442 7.84504C0.08742 5.33604 1.45142 2.84704 3.79342 1.88904C4.10342 1.76204 4.34742 1.85004 4.50142 2.14804C4.55542 2.25504 4.59042 2.36804 4.60242 2.48704C4.63542 2.75604 4.51942 2.93904 4.26542 3.04804C3.10542 3.54804 2.30742 4.39404 1.90742 5.59004C1.09342 8.02904 2.67542 10.613 5.21542 11.015C5.31542 11.031 5.41542 11.043 5.51442 11.051V12.311ZM6.38742 4.01404V7.47304C6.38842 7.70104 6.29042 7.87004 6.08442 7.96704C5.89542 8.05604 5.70842 8.03304 5.54142 7.90404C5.41942 7.80904 5.35242 7.68004 5.34442 7.52404C5.34242 7.49904 5.34242 7.47404 5.34242 7.44904C5.34242 5.15704 5.34442 2.86304 5.34242 0.570036C5.34242 0.355036 5.41642 0.185036 5.60142 0.0740356C5.94242 -0.128964 6.37542 0.109035 6.38642 0.507035C6.39142 0.761035 6.38742 1.01504 6.38742 1.26904V4.01404Z" fill="white"/>
</svg>
