<svg width="12" height="15" viewBox="0 0 12 15" fill="none" xmlns="http://www.w3.org/2000/svg">
<path fill-rule="evenodd" clip-rule="evenodd" d="M4.821 14.179C2.275 14.179 0.182 12.2 0 9.69896H0.649C0.83 11.842 2.632 13.531 4.821 13.531C7.01 13.531 8.811 11.842 8.993 9.69896H9.642C9.46 12.2 7.368 14.179 4.821 14.179ZM0 8.99095C0.109 7.48895 0.908 6.12396 2.184 5.29195L2.242 5.25395V4.27096H2.889V5.62895C1.602 6.29895 0.767 7.55895 0.649 8.99095H0ZM8.993 8.99095C8.874 7.55895 8.04 6.29895 6.752 5.62895V4.27096H7.4V5.25395L7.458 5.29195C8.734 6.12396 9.533 7.48895 9.642 8.99095H8.993ZM2.242 3.56196V2.57895C2.242 1.15695 3.399 -4.48227e-05 4.821 -4.48227e-05C6.243 -4.48227e-05 7.4 1.15695 7.4 2.57895V3.56196H6.752V2.57895C6.752 1.51395 5.885 0.647955 4.821 0.647955C3.756 0.647955 2.889 1.51395 2.889 2.57895V3.56196H2.242ZM5.723 6.09295V4.27096H5.272V6.44995C6.51 6.65795 7.465 7.70695 7.524 8.99095H7.975C7.921 7.61695 6.989 6.46895 5.723 6.09295ZM7.465 9.69896C7.199 10.915 6.116 11.825 4.821 11.825C3.526 11.825 2.443 10.915 2.177 9.69896H1.717C1.99 11.166 3.275 12.276 4.821 12.276C6.366 12.276 7.653 11.166 7.925 9.69896H7.465ZM2.118 8.99095C2.177 7.70695 3.132 6.65795 4.37 6.44995V4.27096H3.919V6.09295C2.654 6.46895 1.721 7.61695 1.666 8.99095H2.118ZM5.723 3.56196V2.58195C5.723 2.08095 5.319 1.67696 4.821 1.67696C4.319 1.67696 3.919 2.08195 3.919 2.58195V3.56196H4.37V2.58195C4.37 2.32895 4.57 2.12796 4.821 2.12796C5.071 2.12796 5.272 2.32995 5.272 2.58195V3.56196H5.723ZM4.821 10.472C4.144 10.472 3.468 9.56996 3.468 9.11896C3.468 8.95096 3.468 8.66795 3.242 8.66795C3.017 8.66795 3.017 9.11896 3.017 9.11896C3.017 10.116 3.825 10.923 4.821 10.923C4.821 10.923 5.272 10.923 5.272 10.698C5.272 10.472 5.14 10.472 4.821 10.472ZM11.285 0.916955C11.463 0.916955 11.607 1.06096 11.607 1.23896C11.607 1.41696 11.463 1.56096 11.285 1.56096L9.102 1.56596C8.925 1.56596 8.78 1.42196 8.78 1.24496C8.78 1.06696 8.925 0.922956 9.102 0.922956L11.285 0.916955Z" fill="white"/>
</svg>
