<svg width="12" height="15" viewBox="0 0 12 15" fill="none" xmlns="http://www.w3.org/2000/svg">
<path d="M0 -8.7738e-05H1.264V1.89591H2.152V3.57291H1.224V6.39591H0V-8.7738e-05ZM1.073 8.17791H0V6.96391H1.224V8.17791H1.073ZM1.073 14.1599H0V8.73691H1.224V14.1599H1.073ZM2.899 2.96591V2.35391H8.39C8.502 2.35391 8.604 2.39791 8.679 2.47291C8.752 2.54691 8.798 2.64891 8.798 2.76191V3.89091H8.011V3.11591H2.899V2.96591ZM9.063 5.22191H7.58V4.45291H9.214V5.22191H9.063ZM11.372 7.04791H5.292V5.79991H11.521V7.04791H11.372ZM11.376 9.22091H10.83V8.12791H11.483V9.22091H11.376ZM11.376 11.4309H10.83V9.89591H11.483V11.4309H11.376ZM11.376 13.4259H10.83V12.2929H11.483V13.4259H11.376ZM10.003 9.13691H9.457V7.60391H10.11V9.13691H10.003ZM10.003 11.9139H9.457V10.3849H10.11V11.9139H10.003ZM10.003 14.0879H9.457V12.9529H10.11V14.0879H10.003ZM8.621 10.0559H8.076V8.52391H8.729V10.0559H8.621ZM8.621 12.8179H8.076V11.3009H8.729V12.8179H8.621ZM7.263 9.13691H6.718V7.60391H7.37V9.13691H7.263ZM7.263 11.9139H6.718V10.3849H7.37V11.9139H7.263ZM7.263 14.0879H6.718V12.9529H7.37V14.0879H7.263ZM5.874 10.0559H5.328V8.52391H5.981V10.0559H5.874ZM5.874 12.8289H5.328V11.2919H5.981V12.8289H5.874Z" fill="white"/>
</svg>
