<svg width="23" height="16" viewBox="0 0 23 16" fill="none" xmlns="http://www.w3.org/2000/svg">
<path d="M6.80078 3.29939C6.80078 2.13839 7.73978 1.19839 8.90278 1.19839C10.0628 1.19839 11.0028 2.13839 11.0028 3.29939C11.0028 4.45939 10.0628 5.40039 8.90278 5.40039C7.73978 5.40039 6.80078 4.45939 6.80078 3.29939Z" stroke="white" stroke-width="0.85" stroke-miterlimit="10"/>
<path d="M5.21733 13.154V10.484C5.21733 10.413 5.13233 10.379 5.08133 10.428L3.96533 11.546C3.86833 11.641 3.86833 11.796 3.96533 11.891L5.22933 13.155" stroke="white" stroke-width="0.85" stroke-miterlimit="10"/>
<path d="M12.7979 5.23145C12.4289 5.23145 12.1289 4.93145 12.1289 4.56245V4.24945C12.1289 3.87945 12.4289 3.58045 12.7979 3.58045C13.1679 3.58045 13.4679 3.87945 13.4679 4.24945V4.56245C13.4679 4.93145 13.1679 5.23145 12.7979 5.23145Z" stroke="white" stroke-width="0.85" stroke-miterlimit="10"/>
<path d="M14.1368 5.82495C13.7678 5.82495 13.4678 5.52595 13.4678 5.15595V3.65595C13.4678 3.28595 13.7678 2.98695 14.1368 2.98695C14.5058 2.98695 14.8058 3.28595 14.8058 3.65595V5.15595C14.8058 5.52595 14.5058 5.82495 14.1368 5.82495Z" stroke="white" stroke-width="0.85" stroke-miterlimit="10"/>
<path d="M21.421 5.23145C21.79 5.23145 22.09 4.93145 22.09 4.56245V4.24945C22.09 3.87945 21.79 3.58045 21.421 3.58045C21.051 3.58045 20.751 3.87945 20.751 4.24945V4.56245C20.751 4.93145 21.051 5.23145 21.421 5.23145Z" stroke="white" stroke-width="0.85" stroke-miterlimit="10"/>
<path d="M20.0821 5.82495C20.4521 5.82495 20.7511 5.52595 20.7511 5.15595V3.65595C20.7511 3.28595 20.4521 2.98695 20.0821 2.98695C19.7131 2.98695 19.4131 3.28595 19.4131 3.65595V5.15595C19.4131 5.52595 19.7131 5.82495 20.0821 5.82495Z" stroke="white" stroke-width="0.85" stroke-miterlimit="10"/>
<path d="M4.86183 12.754L5.48683 13.436C6.00483 13.987 6.08483 14.752 5.66583 15.144C5.24783 15.537 4.48883 15.408 3.97083 14.857L3.31583 14.206L1.42383 12.315C1.26283 12.154 1.17383 11.936 1.17383 11.708V11.2C1.17383 11.053 1.23283 10.912 1.33883 10.809L5.13483 7.11603C5.27083 6.98503 5.45283 6.91203 5.63883 6.91203H15.1328C15.2318 6.90303 15.9198 6.85103 15.8818 6.04803V4.34403V4.72503L15.8908 3.97003C15.8908 3.35303 16.3908 2.85303 17.0078 2.85303C17.6268 2.85303 18.1268 3.35303 18.1268 3.97003V4.72503V4.09103V7.89803C18.1268 8.29803 17.9648 8.68003 17.6768 8.95903L17.4948 9.13703C17.2538 9.37103 16.9298 9.50203 16.5938 9.50203H12.7438V14.856L5.84283 14.879" stroke="white" stroke-width="0.85" stroke-miterlimit="10"/>
</svg>
