<svg width="16" height="15" viewBox="0 0 16 15" fill="none" xmlns="http://www.w3.org/2000/svg">
<mask id="path-1-inside-1_443_86" fill="white">
<path d="M11.7348 3.44104H10.0248V4.11804H11.7348V3.44104ZM1.90378 7.01105C1.75178 7.01105 1.62878 7.1341 1.62878 7.2851V8.46606C1.62878 8.61706 1.75178 8.74005 1.90378 8.74005H14.6588C14.8108 8.74005 14.9338 8.61706 14.9338 8.46606V7.2851C14.9338 7.1341 14.8108 7.01105 14.6588 7.01105H1.90378ZM2.59378 9.60907C2.81578 11.9201 4.75577 13.701 7.10077 13.701H9.46176C11.8078 13.701 13.7468 11.9201 13.9668 9.60907H2.59378ZM7.10077 14.5701C4.26677 14.5701 1.93678 12.3991 1.72278 9.59406C1.17478 9.50506 0.759766 9.03306 0.759766 8.46606V7.2851C0.759766 6.6541 1.27278 6.14209 1.90378 6.14209H5.24777V3.03308C5.24777 1.36008 6.60876 6.10352e-05 8.28076 6.10352e-05C9.78376 6.10352e-05 11.0678 1.12806 11.2808 2.59906H12.1548C12.3938 2.59906 12.5888 2.79408 12.5888 3.03308V4.54504C12.5888 4.78404 12.3938 4.97906 12.1548 4.97906H9.60376C9.36376 4.97906 9.16876 4.78404 9.16876 4.54504V3.03308C9.16876 2.79408 9.36376 2.59906 9.60376 2.59906H10.4018C10.1998 1.59906 9.32376 0.86908 8.28076 0.86908C7.08776 0.86908 6.11676 1.84008 6.11676 3.03308V6.14209H14.6588C15.2898 6.14209 15.8028 6.6541 15.8028 7.2851V8.46606C15.8028 9.03506 15.3848 9.50809 14.8398 9.59509C14.6248 12.3991 12.2958 14.5701 9.46277 14.5701H7.10077Z"/>
</mask>
<path d="M11.7348 3.44104H10.0248V4.11804H11.7348V3.44104ZM1.90378 7.01105C1.75178 7.01105 1.62878 7.1341 1.62878 7.2851V8.46606C1.62878 8.61706 1.75178 8.74005 1.90378 8.74005H14.6588C14.8108 8.74005 14.9338 8.61706 14.9338 8.46606V7.2851C14.9338 7.1341 14.8108 7.01105 14.6588 7.01105H1.90378ZM2.59378 9.60907C2.81578 11.9201 4.75577 13.701 7.10077 13.701H9.46176C11.8078 13.701 13.7468 11.9201 13.9668 9.60907H2.59378ZM7.10077 14.5701C4.26677 14.5701 1.93678 12.3991 1.72278 9.59406C1.17478 9.50506 0.759766 9.03306 0.759766 8.46606V7.2851C0.759766 6.6541 1.27278 6.14209 1.90378 6.14209H5.24777V3.03308C5.24777 1.36008 6.60876 6.10352e-05 8.28076 6.10352e-05C9.78376 6.10352e-05 11.0678 1.12806 11.2808 2.59906H12.1548C12.3938 2.59906 12.5888 2.79408 12.5888 3.03308V4.54504C12.5888 4.78404 12.3938 4.97906 12.1548 4.97906H9.60376C9.36376 4.97906 9.16876 4.78404 9.16876 4.54504V3.03308C9.16876 2.79408 9.36376 2.59906 9.60376 2.59906H10.4018C10.1998 1.59906 9.32376 0.86908 8.28076 0.86908C7.08776 0.86908 6.11676 1.84008 6.11676 3.03308V6.14209H14.6588C15.2898 6.14209 15.8028 6.6541 15.8028 7.2851V8.46606C15.8028 9.03506 15.3848 9.50809 14.8398 9.59509C14.6248 12.3991 12.2958 14.5701 9.46277 14.5701H7.10077Z" fill="white"/>
<path d="M11.7348 3.44104V2.44104H12.7348V3.44104H11.7348ZM10.0248 3.44104H9.02478V2.44104H10.0248V3.44104ZM10.0248 4.11804V5.11804H9.02478V4.11804H10.0248ZM11.7348 4.11804H12.7348V5.11804H11.7348V4.11804ZM2.59378 9.60907L1.59836 9.70469L1.49311 8.60907H2.59378V9.60907ZM13.9668 9.60907V8.60907H15.0665L14.9623 9.70384L13.9668 9.60907ZM1.72278 9.59406L1.88309 8.60699L2.66001 8.73317L2.71988 9.51798L1.72278 9.59406ZM5.24777 6.14209H6.24777V7.14209H5.24777V6.14209ZM11.2808 2.59906V3.59906H10.4151L10.2911 2.74236L11.2808 2.59906ZM10.4018 2.59906L11.382 2.40106L11.624 3.59906H10.4018V2.59906ZM6.11676 6.14209V7.14209H5.11676V6.14209H6.11676ZM14.8398 9.59509L13.8427 9.51864L13.903 8.73197L14.6821 8.6076L14.8398 9.59509ZM11.7348 4.44104H10.0248V2.44104H11.7348V4.44104ZM11.0248 3.44104V4.11804H9.02478V3.44104H11.0248ZM10.0248 3.11804H11.7348V5.11804H10.0248V3.11804ZM10.7348 4.11804V3.44104H12.7348V4.11804H10.7348ZM1.90378 8.01105C2.30195 8.01105 2.62878 7.68849 2.62878 7.2851H0.628784C0.628784 6.5797 1.20161 6.01105 1.90378 6.01105V8.01105ZM2.62878 7.2851V8.46606H0.628784V7.2851H2.62878ZM2.62878 8.46606C2.62878 8.06238 2.30166 7.74005 1.90378 7.74005V9.74005C1.2019 9.74005 0.628784 9.17175 0.628784 8.46606H2.62878ZM1.90378 7.74005H14.6588V9.74005H1.90378V7.74005ZM14.6588 7.74005C14.2609 7.74005 13.9338 8.06238 13.9338 8.46606H15.9338C15.9338 9.17175 15.3607 9.74005 14.6588 9.74005V7.74005ZM13.9338 8.46606V7.2851H15.9338V8.46606H13.9338ZM13.9338 7.2851C13.9338 7.68849 14.2606 8.01105 14.6588 8.01105V6.01105C15.361 6.01105 15.9338 6.5797 15.9338 7.2851H13.9338ZM14.6588 8.01105H1.90378V6.01105H14.6588V8.01105ZM3.5892 9.51345C3.76216 11.3139 5.2734 12.701 7.10077 12.701V14.701C4.23814 14.701 1.8694 12.5262 1.59836 9.70469L3.5892 9.51345ZM7.10077 12.701H9.46176V14.701H7.10077V12.701ZM9.46176 12.701C11.2902 12.701 12.7999 11.3141 12.9713 9.5143L14.9623 9.70384C14.6936 12.5261 12.3254 14.701 9.46176 14.701V12.701ZM13.9668 10.6091H2.59378V8.60907H13.9668V10.6091ZM7.10077 15.5701C3.74339 15.5701 0.979399 12.9958 0.725676 9.67013L2.71988 9.51798C2.89416 11.8023 4.79014 13.5701 7.10077 13.5701V15.5701ZM1.56247 10.5811C0.540996 10.4152 -0.240234 9.53412 -0.240234 8.46606H1.75977C1.75977 8.532 1.80856 8.59488 1.88309 8.60699L1.56247 10.5811ZM-0.240234 8.46606V7.2851H1.75977V8.46606H-0.240234ZM-0.240234 7.2851C-0.240234 6.10066 0.72164 5.14209 1.90378 5.14209V7.14209C1.82392 7.14209 1.75977 7.20753 1.75977 7.2851H-0.240234ZM1.90378 5.14209H5.24777V7.14209H1.90378V5.14209ZM4.24777 6.14209V3.03308H6.24777V6.14209H4.24777ZM4.24777 3.03308C4.24777 0.807595 6.05668 -0.999939 8.28076 -0.999939V1.00006C7.16084 1.00006 6.24777 1.91257 6.24777 3.03308H4.24777ZM8.28076 -0.999939C10.2851 -0.999939 11.9869 0.497294 12.2704 2.45576L10.2911 2.74236C10.1487 1.75883 9.28246 1.00006 8.28076 1.00006V-0.999939ZM11.2808 1.59906H12.1548V3.59906H11.2808V1.59906ZM12.1548 1.59906C12.9462 1.59906 13.5888 2.24189 13.5888 3.03308H11.5888C11.5888 3.34627 11.8414 3.59906 12.1548 3.59906V1.59906ZM13.5888 3.03308V4.54504H11.5888V3.03308H13.5888ZM13.5888 4.54504C13.5888 5.33624 12.9462 5.97906 12.1548 5.97906V3.97906C11.8414 3.97906 11.5888 4.23185 11.5888 4.54504H13.5888ZM12.1548 5.97906H9.60376V3.97906H12.1548V5.97906ZM9.60376 5.97906C8.8129 5.97906 8.16876 5.33776 8.16876 4.54504H10.1688C10.1688 4.23033 9.91462 3.97906 9.60376 3.97906V5.97906ZM8.16876 4.54504V3.03308H10.1688V4.54504H8.16876ZM8.16876 3.03308C8.16876 2.24037 8.8129 1.59906 9.60376 1.59906V3.59906C9.91462 3.59906 10.1688 3.34779 10.1688 3.03308H8.16876ZM9.60376 1.59906H10.4018V3.59906H9.60376V1.59906ZM9.42156 2.79706C9.31327 2.26096 8.84512 1.86908 8.28076 1.86908V-0.13092C9.80241 -0.13092 11.0863 0.937162 11.382 2.40106L9.42156 2.79706ZM8.28076 1.86908C7.64005 1.86908 7.11676 2.39237 7.11676 3.03308H5.11676C5.11676 1.2878 6.53548 -0.13092 8.28076 -0.13092V1.86908ZM7.11676 3.03308V6.14209H5.11676V3.03308H7.11676ZM6.11676 5.14209H14.6588V7.14209H6.11676V5.14209ZM14.6588 5.14209C15.841 5.14209 16.8028 6.1007 16.8028 7.2851H14.8028C14.8028 7.20749 14.7386 7.14209 14.6588 7.14209V5.14209ZM16.8028 7.2851V8.46606H14.8028V7.2851H16.8028ZM16.8028 8.46606C16.8028 9.53552 16.0187 10.4196 14.9974 10.5826L14.6821 8.6076C14.7508 8.59663 14.8028 8.5346 14.8028 8.46606H16.8028ZM15.8369 9.67154C15.582 12.9956 12.8194 15.5701 9.46277 15.5701V13.5701C11.7721 13.5701 13.6676 11.8026 13.8427 9.51864L15.8369 9.67154ZM9.46277 15.5701H7.10077V13.5701H9.46277V15.5701Z" fill="white" mask="url(#path-1-inside-1_443_86)"/>
</svg>
