<svg width="15" height="15" viewBox="0 0 15 15" fill="none" xmlns="http://www.w3.org/2000/svg">
<path d="M1.70856 12.9816C1.69256 12.9816 1.68156 12.9936 1.68156 13.0076V13.5156L6.77756 13.5416L6.80556 13.0076L1.70856 12.9816ZM1.70856 14.3716C1.23456 14.3716 0.851562 13.9876 0.851562 13.5156V13.0076C0.851562 12.5356 1.23456 12.1516 1.70856 12.1516H6.77756C7.25156 12.1516 7.63556 12.5356 7.63556 13.0076V13.5156C7.63556 13.9876 7.25156 14.3716 6.77756 14.3716H1.70856Z" fill="white"/>
<path d="M6.28665 12.1514V7.51945L2.24565 7.49245L2.22165 12.1514H6.28665ZM1.80465 12.9814C1.57565 12.9814 1.38965 12.7954 1.38965 12.5664V7.51845C1.38965 7.04645 1.77165 6.66245 2.24565 6.66245H6.26065C6.73065 6.66245 7.11665 7.04645 7.11665 7.51845V12.5664C7.11665 12.7954 6.93065 12.9814 6.70165 12.9814H1.80465Z" fill="white"/>
<path d="M5.32194 5.30523V2.73323C5.32194 2.20623 4.99394 1.73623 4.48494 1.53523L3.19194 1.02823V0.943231L3.16994 1.03523L3.16594 5.30523H5.32194ZM2.75094 6.13623C2.52094 6.13623 2.33594 5.94923 2.33594 5.72023V1.04123C2.33594 0.763231 2.47294 0.505231 2.70494 0.348231C2.84794 0.249231 3.01594 0.198231 3.19194 0.198231C3.30094 0.198231 3.40894 0.218231 3.50994 0.259231L4.78994 0.763231C5.61694 1.09023 6.15094 1.86423 6.15094 2.73323V5.72123C6.15094 5.94923 5.96594 6.13623 5.73594 6.13623H2.75094Z" fill="white"/>
<path d="M5.71641 6.66268V6.16168L2.79741 6.13568C2.78141 6.13568 2.77141 6.14768 2.77141 6.16168V6.66268H5.71641ZM2.35641 7.49268C2.12741 7.49268 1.94141 7.30668 1.94141 7.07768V6.16168C1.94141 5.68968 2.32341 5.30568 2.79841 5.30568H5.69041C6.16041 5.30568 6.54641 5.68968 6.54641 6.16168V7.07768C6.54641 7.30668 6.36041 7.49268 6.13141 7.49268H2.35641Z" fill="white"/>
<path d="M9.34158 13.7861C8.89258 13.7861 8.44158 13.7311 8.00258 13.6241C7.89558 13.5981 7.80458 13.5311 7.74558 13.4361C7.68958 13.3421 7.67158 13.2301 7.69558 13.1221C7.74258 12.9361 7.90858 12.8061 8.10058 12.8061L8.19758 12.8181C8.57458 12.9101 8.95858 12.9561 9.34158 12.9561C11.9566 12.9561 14.0866 10.8281 14.0866 8.21113C14.0866 6.12113 12.7496 4.30213 10.7636 3.68213C10.5886 3.62813 10.4706 3.46913 10.4706 3.28613V2.77013H8.21558V3.28213C8.21558 3.46413 8.09958 3.62213 7.92658 3.67713C7.54358 3.79713 7.17958 3.96813 6.84158 4.18313C6.77458 4.22513 6.69558 4.24813 6.61658 4.24813C6.47458 4.24813 6.34458 4.17713 6.26858 4.05713C6.14558 3.86413 6.20058 3.60613 6.39458 3.48313C6.71958 3.27613 7.07058 3.10113 7.44158 2.96613L7.38558 2.57913C7.38558 2.22713 7.67358 1.94013 8.02658 1.94013H10.6596C11.0146 1.94013 11.3016 2.22713 11.3016 2.57913V3.04813C13.4756 3.77213 14.9156 5.83013 14.9156 8.21113C14.9156 11.2851 12.4136 13.7861 9.34158 13.7861Z" fill="white"/>
<path d="M8.25276 9.91615C8.14576 9.88615 8.05676 9.81615 8.00176 9.72015C7.94476 9.62415 7.93376 9.51215 7.96276 9.40515L8.80676 6.35315C8.85676 6.17315 9.02076 6.04815 9.20476 6.04815L9.31576 6.06315C9.42376 6.09215 9.51376 6.16215 9.56576 6.25915C9.62276 6.35515 9.63676 6.46715 9.60676 6.57415L8.76276 9.62615C8.71376 9.80615 8.54876 9.93115 8.36076 9.93115L8.25276 9.91615Z" fill="white"/>
<path d="M9.77122 9.72914C9.55022 9.66814 9.41922 9.43914 9.48122 9.21914L10.0862 7.02614C10.1362 6.84614 10.3002 6.72114 10.4852 6.72114L10.5982 6.73614C10.7052 6.76614 10.7922 6.83514 10.8492 6.93214C10.9042 7.02814 10.9172 7.14014 10.8862 7.24714L10.2822 9.43914C10.2322 9.61914 10.0672 9.74414 9.88122 9.74414L9.77122 9.72914Z" fill="white"/>
<path d="M9.34118 12.4136C8.65018 12.4136 7.99218 12.2516 7.39018 11.9326C7.18918 11.8266 7.11118 11.5746 7.21718 11.3716C7.28818 11.2356 7.43118 11.1506 7.58518 11.1506C7.65218 11.1506 7.71918 11.1676 7.77918 11.1986C8.26018 11.4546 8.78518 11.5836 9.34118 11.5836C11.2042 11.5836 12.7222 10.0686 12.7222 8.20657C12.7222 6.34257 11.2042 4.82657 9.34118 4.82657C8.49218 4.82657 7.68418 5.14157 7.06218 5.71357C6.98618 5.78457 6.88518 5.82457 6.78018 5.82457C6.66418 5.82457 6.55418 5.77557 6.47518 5.68957C6.32018 5.52157 6.33018 5.25857 6.49818 5.10257C7.27618 4.38957 8.28318 3.99657 9.34118 3.99657C11.6622 3.99657 13.5512 5.88557 13.5512 8.20657C13.5512 10.5266 11.6622 12.4136 9.34118 12.4136Z" fill="white"/>
</svg>
