<svg width="5" height="15" viewBox="0 0 5 15" fill="none" xmlns="http://www.w3.org/2000/svg">
<path d="M2.08664 11.698C1.86164 11.698 1.68164 11.609 1.68164 11.498V6.301C1.68164 6.191 1.86164 6.101 2.08664 6.101C2.31064 6.101 2.49064 6.191 2.49064 6.301V11.498C2.49064 11.609 2.31064 11.698 2.08664 11.698Z" fill="white"/>
<path d="M3.57004 11.698C3.34504 11.698 3.16504 11.609 3.16504 11.498V6.301C3.16504 6.191 3.34504 6.101 3.57004 6.101C3.79404 6.101 3.97404 6.191 3.97404 6.301V11.498C3.97404 11.609 3.79404 11.698 3.57004 11.698Z" fill="white"/>
<path d="M1.78073 3.85791C1.68073 3.85791 1.58673 3.82191 1.50973 3.75691C1.06073 3.37291 0.802734 2.81291 0.802734 2.22191C0.802734 1.10591 1.71273 0.19791 2.82873 0.19791C3.94473 0.19791 4.85073 1.10591 4.85073 2.22191C4.85073 2.81391 4.59373 3.37391 4.14473 3.75791C4.07073 3.82191 3.97373 3.85791 3.87573 3.85791C3.75473 3.85791 3.63773 3.80491 3.55873 3.71291C3.48873 3.62891 3.45373 3.52191 3.46173 3.41091C3.46873 3.29991 3.51973 3.19891 3.60473 3.12691C3.87073 2.89991 4.02173 2.56991 4.02173 2.22191C4.02173 1.56391 3.48673 1.02791 2.82873 1.02791C2.17073 1.02791 1.63473 1.56391 1.63473 2.22191C1.63473 2.56991 1.78673 2.89991 2.05173 3.12691C2.13473 3.19891 2.18573 3.29991 2.19573 3.41091C2.20373 3.52191 2.16873 3.62891 2.09473 3.71291C2.01673 3.80491 1.90273 3.85791 1.78073 3.85791Z" fill="white"/>
<path d="M3.9592 4.32568H1.69519V4.69269H3.9592V4.32568ZM1.2822 5.45068C1.0522 5.45068 0.866211 5.26471 0.866211 5.03571V3.98273C0.866211 3.75273 1.0522 3.56671 1.2822 3.56671H4.37518C4.60418 3.56671 4.78918 3.75273 4.78918 3.98273V5.03571C4.78918 5.26471 4.60418 5.45068 4.37518 5.45068H1.2822Z" fill="white"/>
<path d="M3.43893 11.9088H2.20993V13.5408H3.43893V11.9088ZM1.79391 14.3718C1.56391 14.3718 1.37793 14.1858 1.37793 13.9568V11.4938C1.37793 11.2648 1.56391 11.0788 1.79391 11.0788H3.85492C4.08292 11.0788 4.26993 11.2648 4.26993 11.4938V13.9568C4.26993 14.1858 4.08292 14.3718 3.85492 14.3718H1.79391Z" fill="white"/>
<path d="M3.63184 6.10168H2.02484V5.73969H3.63184V6.10168ZM3.85782 5.09772H1.79782C1.56782 5.09772 1.38184 5.2837 1.38184 5.5127V6.3277C1.38184 6.5567 1.56782 6.74268 1.79782 6.74268H3.85782C4.08682 6.74268 4.27283 6.5567 4.27283 6.3277V5.5127C4.27283 5.2837 4.08682 5.09772 3.85782 5.09772Z" fill="white"/>
</svg>
