<svg width="15" height="16" viewBox="0 0 15 16" fill="none" xmlns="http://www.w3.org/2000/svg">
<path d="M1.32129 1.07959H14.5323" stroke="white" stroke-width="0.85" stroke-linecap="round" stroke-linejoin="round"/>
<path d="M5.03223 1.07954V2.47754" stroke="white" stroke-width="0.85" stroke-linecap="round" stroke-linejoin="round"/>
<path d="M4.20215 3.34991C4.20215 2.89191 4.57315 2.51891 5.03215 2.51891C5.49115 2.51891 5.86215 2.89191 5.86215 3.34991C5.86215 3.80891 5.49115 4.18091 5.03215 4.18091C4.57315 4.18091 4.20215 3.80891 4.20215 3.34991Z" stroke="white" stroke-width="0.85" stroke-linecap="round" stroke-linejoin="round"/>
<path d="M7.92676 1.07959V3.35059" stroke="white" stroke-width="0.85" stroke-linecap="round" stroke-linejoin="round"/>
<path d="M7.09668 4.17559C7.09668 3.71759 7.46868 3.34459 7.92668 3.34459C8.38568 3.34459 8.75768 3.71759 8.75768 4.17559C8.75768 4.63459 8.38568 5.00659 7.92668 5.00659C7.46868 5.00659 7.09668 4.63459 7.09668 4.17559Z" stroke="white" stroke-width="0.85" stroke-linecap="round" stroke-linejoin="round"/>
<path d="M10.8213 1.07954V2.47754" stroke="white" stroke-width="0.85" stroke-linecap="round" stroke-linejoin="round"/>
<path d="M9.99121 3.34991C9.99121 2.89191 10.3632 2.51891 10.8212 2.51891C11.2802 2.51891 11.6522 2.89191 11.6522 3.34991C11.6522 3.80891 11.2802 4.18091 10.8212 4.18091C10.3632 4.18091 9.99121 3.80891 9.99121 3.34991Z" stroke="white" stroke-width="0.85" stroke-linecap="round" stroke-linejoin="round"/>
<mask id="path-8-inside-1_443_60" fill="white">
<path d="M13.8998 11.6082H13.5018V6.05323C13.5018 5.95123 13.5898 5.86823 13.7008 5.86823C13.8108 5.86823 13.8998 5.95123 13.8998 6.05323V11.6082ZM13.8978 14.6272H13.6158L13.0758 13.7292C13.0408 13.6702 12.9728 13.6312 12.9048 13.6312H2.94884C2.87884 13.6312 2.81284 13.6682 2.77684 13.7292L2.23784 14.6272H1.95284V12.4372H2.54884H2.55084H13.2968H13.2998H13.8978V14.6272ZM1.95284 6.05323C1.95284 5.94923 2.04284 5.86823 2.15184 5.86823C2.25984 5.86823 2.35084 5.95123 2.35084 6.05323V11.6082H1.95284V6.05323ZM3.11584 7.08023H3.91184V11.6082H3.11584V7.08023ZM4.71984 7.08023H5.71584V11.6082H4.71984V7.08023ZM6.52584 7.08023H7.52184V11.6082H6.52584V7.08023ZM8.33084 7.08023H9.32684V11.6082H8.33084V7.08023ZM10.1348 7.08023H11.1298V11.6082H10.1348V7.08023ZM11.9408 7.08023H12.7368V11.6082H11.9408V7.08023ZM13.7008 5.00623C13.1168 5.00623 12.6398 5.48223 12.6398 6.06623L12.6388 6.20123L3.21184 6.25623V6.06723C3.21184 5.48223 2.73684 5.00623 2.15184 5.00623C1.56784 5.00623 1.08984 5.48223 1.08984 6.06723V14.8282C1.08984 15.1932 1.38784 15.4902 1.75384 15.4902H2.35084C2.58484 15.4902 2.79984 15.3672 2.91984 15.1682L3.29284 14.4932L12.5128 14.4662L12.9258 15.1522C13.0418 15.3592 13.2598 15.4892 13.5018 15.4892H14.0978C14.4628 15.4892 14.7598 15.1912 14.7598 14.8262V6.06623C14.7598 5.48223 14.2858 5.00623 13.7008 5.00623Z"/>
</mask>
<path d="M13.8998 11.6082H13.5018V6.05323C13.5018 5.95123 13.5898 5.86823 13.7008 5.86823C13.8108 5.86823 13.8998 5.95123 13.8998 6.05323V11.6082ZM13.8978 14.6272H13.6158L13.0758 13.7292C13.0408 13.6702 12.9728 13.6312 12.9048 13.6312H2.94884C2.87884 13.6312 2.81284 13.6682 2.77684 13.7292L2.23784 14.6272H1.95284V12.4372H2.54884H2.55084H13.2968H13.2998H13.8978V14.6272ZM1.95284 6.05323C1.95284 5.94923 2.04284 5.86823 2.15184 5.86823C2.25984 5.86823 2.35084 5.95123 2.35084 6.05323V11.6082H1.95284V6.05323ZM3.11584 7.08023H3.91184V11.6082H3.11584V7.08023ZM4.71984 7.08023H5.71584V11.6082H4.71984V7.08023ZM6.52584 7.08023H7.52184V11.6082H6.52584V7.08023ZM8.33084 7.08023H9.32684V11.6082H8.33084V7.08023ZM10.1348 7.08023H11.1298V11.6082H10.1348V7.08023ZM11.9408 7.08023H12.7368V11.6082H11.9408V7.08023ZM13.7008 5.00623C13.1168 5.00623 12.6398 5.48223 12.6398 6.06623L12.6388 6.20123L3.21184 6.25623V6.06723C3.21184 5.48223 2.73684 5.00623 2.15184 5.00623C1.56784 5.00623 1.08984 5.48223 1.08984 6.06723V14.8282C1.08984 15.1932 1.38784 15.4902 1.75384 15.4902H2.35084C2.58484 15.4902 2.79984 15.3672 2.91984 15.1682L3.29284 14.4932L12.5128 14.4662L12.9258 15.1522C13.0418 15.3592 13.2598 15.4892 13.5018 15.4892H14.0978C14.4628 15.4892 14.7598 15.1912 14.7598 14.8262V6.06623C14.7598 5.48223 14.2858 5.00623 13.7008 5.00623Z" fill="white"/>
<path d="M13.8998 11.6082H14.8998V12.6082H13.8998V11.6082ZM13.5018 11.6082V12.6082H12.5018V11.6082H13.5018ZM13.8978 14.6272H14.8978V15.6272H13.8978V14.6272ZM13.6158 14.6272V15.6272H13.0503L12.7589 15.1426L13.6158 14.6272ZM13.0758 13.7292L12.2188 14.2446L12.2158 14.2394L13.0758 13.7292ZM2.77684 13.7292L3.63808 14.2375L3.63425 14.2439L2.77684 13.7292ZM2.23784 14.6272L3.09525 15.1419L2.80393 15.6272H2.23784V14.6272ZM1.95284 14.6272V15.6272H0.952845V14.6272H1.95284ZM1.95284 12.4372H0.952845V11.4372H1.95284V12.4372ZM13.8978 12.4372V11.4372H14.8978V12.4372H13.8978ZM2.35084 11.6082H3.35084V12.6082H2.35084V11.6082ZM1.95284 11.6082V12.6082H0.952845V11.6082H1.95284ZM3.11584 7.08023H2.11584V6.08023H3.11584V7.08023ZM3.91184 7.08023V6.08023H4.91184V7.08023H3.91184ZM3.91184 11.6082H4.91184V12.6082H3.91184V11.6082ZM3.11584 11.6082V12.6082H2.11584V11.6082H3.11584ZM4.71984 7.08023H3.71984V6.08023H4.71984V7.08023ZM5.71584 7.08023V6.08023H6.71584V7.08023H5.71584ZM5.71584 11.6082H6.71584V12.6082H5.71584V11.6082ZM4.71984 11.6082V12.6082H3.71984V11.6082H4.71984ZM6.52584 7.08023H5.52584V6.08023H6.52584V7.08023ZM7.52184 7.08023V6.08023H8.52184V7.08023H7.52184ZM7.52184 11.6082H8.52184V12.6082H7.52184V11.6082ZM6.52584 11.6082V12.6082H5.52584V11.6082H6.52584ZM8.33084 7.08023H7.33084V6.08023H8.33084V7.08023ZM9.32684 7.08023V6.08023H10.3268V7.08023H9.32684ZM9.32684 11.6082H10.3268V12.6082H9.32684V11.6082ZM8.33084 11.6082V12.6082H7.33084V11.6082H8.33084ZM10.1348 7.08023H9.13484V6.08023H10.1348V7.08023ZM11.1298 7.08023V6.08023H12.1298V7.08023H11.1298ZM11.1298 11.6082H12.1298V12.6082H11.1298V11.6082ZM10.1348 11.6082V12.6082H9.13484V11.6082H10.1348ZM11.9408 7.08023H10.9408V6.08023H11.9408V7.08023ZM12.7368 7.08023V6.08023H13.7368V7.08023H12.7368ZM12.7368 11.6082H13.7368V12.6082H12.7368V11.6082ZM11.9408 11.6082V12.6082H10.9408V11.6082H11.9408ZM12.6398 6.06623L13.6399 6.06623L13.6398 6.07364L12.6398 6.06623ZM12.6388 6.20123L13.6388 6.20864L13.6315 7.19546L12.6447 7.20122L12.6388 6.20123ZM3.21184 6.25623L3.21768 7.25622L2.21184 7.26209V6.25623H3.21184ZM2.91984 15.1682L3.7951 15.6519L3.78596 15.6684L3.7762 15.6846L2.91984 15.1682ZM3.29284 14.4932L2.41759 14.0096L2.70196 13.495L3.28992 13.4932L3.29284 14.4932ZM12.5128 14.4662L12.5099 13.4662L13.077 13.4646L13.3696 13.9505L12.5128 14.4662ZM12.9258 15.1522L13.7826 14.6365L13.7906 14.6498L13.7982 14.6634L12.9258 15.1522ZM13.8998 12.6082H13.5018V10.6082H13.8998V12.6082ZM12.5018 11.6082V6.05323H14.5018V11.6082H12.5018ZM12.5018 6.05323C12.5018 5.33554 13.1032 4.86823 13.7008 4.86823V6.86823C14.0765 6.86823 14.5018 6.56693 14.5018 6.05323H12.5018ZM13.7008 4.86823C14.2941 4.86823 14.8998 5.33238 14.8998 6.05323H12.8998C12.8998 6.57009 13.3276 6.86823 13.7008 6.86823V4.86823ZM14.8998 6.05323V11.6082H12.8998V6.05323H14.8998ZM13.8978 15.6272H13.6158V13.6272H13.8978V15.6272ZM12.7589 15.1426L12.2189 14.2446L13.9328 13.2139L14.4728 14.1119L12.7589 15.1426ZM12.2158 14.2394C12.3587 14.4804 12.6155 14.6312 12.9048 14.6312V12.6312C13.3302 12.6312 13.723 12.8601 13.9359 13.219L12.2158 14.2394ZM12.9048 14.6312H2.94884V12.6312H12.9048V14.6312ZM2.94884 14.6312C3.22832 14.6312 3.49199 14.485 3.63805 14.2375L1.91564 13.221C2.1337 12.8515 2.52937 12.6312 2.94884 12.6312V14.6312ZM3.63425 14.2439L3.09525 15.1419L1.38044 14.1126L1.91944 13.2146L3.63425 14.2439ZM2.23784 15.6272H1.95284V13.6272H2.23784V15.6272ZM0.952845 14.6272V12.4372H2.95284V14.6272H0.952845ZM1.95284 11.4372H2.54884V13.4372H1.95284V11.4372ZM2.54884 11.4372H2.55084V13.4372H2.54884V11.4372ZM2.55084 11.4372H13.2968V13.4372H2.55084V11.4372ZM13.2968 11.4372H13.2998V13.4372H13.2968V11.4372ZM13.2998 11.4372H13.8978V13.4372H13.2998V11.4372ZM14.8978 12.4372V14.6272H12.8978V12.4372H14.8978ZM0.952845 6.05323C0.952845 5.32049 1.57025 4.86823 2.15184 4.86823V6.86823C2.51544 6.86823 2.95284 6.57798 2.95284 6.05323H0.952845ZM2.15184 4.86823C2.73637 4.86823 3.35084 5.32612 3.35084 6.05323H1.35084C1.35084 6.57635 1.78332 6.86823 2.15184 6.86823V4.86823ZM3.35084 6.05323V11.6082H1.35084V6.05323H3.35084ZM2.35084 12.6082H1.95284V10.6082H2.35084V12.6082ZM0.952845 11.6082V6.05323H2.95284V11.6082H0.952845ZM3.11584 6.08023H3.91184V8.08023H3.11584V6.08023ZM4.91184 7.08023V11.6082H2.91184V7.08023H4.91184ZM3.91184 12.6082H3.11584V10.6082H3.91184V12.6082ZM2.11584 11.6082V7.08023H4.11584V11.6082H2.11584ZM4.71984 6.08023H5.71584V8.08023H4.71984V6.08023ZM6.71584 7.08023V11.6082H4.71584V7.08023H6.71584ZM5.71584 12.6082H4.71984V10.6082H5.71584V12.6082ZM3.71984 11.6082V7.08023H5.71984V11.6082H3.71984ZM6.52584 6.08023H7.52184V8.08023H6.52584V6.08023ZM8.52184 7.08023V11.6082H6.52184V7.08023H8.52184ZM7.52184 12.6082H6.52584V10.6082H7.52184V12.6082ZM5.52584 11.6082V7.08023H7.52584V11.6082H5.52584ZM8.33084 6.08023H9.32684V8.08023H8.33084V6.08023ZM10.3268 7.08023V11.6082H8.32684V7.08023H10.3268ZM9.32684 12.6082H8.33084V10.6082H9.32684V12.6082ZM7.33084 11.6082V7.08023H9.33084V11.6082H7.33084ZM10.1348 6.08023H11.1298V8.08023H10.1348V6.08023ZM12.1298 7.08023V11.6082H10.1298V7.08023H12.1298ZM11.1298 12.6082H10.1348V10.6082H11.1298V12.6082ZM9.13484 11.6082V7.08023H11.1348V11.6082H9.13484ZM11.9408 6.08023H12.7368V8.08023H11.9408V6.08023ZM13.7368 7.08023V11.6082H11.7368V7.08023H13.7368ZM12.7368 12.6082H11.9408V10.6082H12.7368V12.6082ZM10.9408 11.6082V7.08023H12.9408V11.6082H10.9408ZM13.7008 6.00623C13.6859 6.00623 13.6714 6.01136 13.658 6.0248C13.6446 6.03817 13.6398 6.05207 13.6398 6.06623H11.6398C11.6398 4.92872 12.5658 4.00623 13.7008 4.00623V6.00623ZM13.6398 6.07364L13.6388 6.20864L11.6389 6.19383L11.6399 6.05883L13.6398 6.07364ZM12.6447 7.20122L3.21768 7.25622L3.20601 5.25625L12.633 5.20125L12.6447 7.20122ZM2.21184 6.25623V6.06723H4.21184V6.25623H2.21184ZM2.21184 6.06723C2.21184 6.03329 2.18333 6.00623 2.15184 6.00623V4.00623C3.29036 4.00623 4.21184 4.93118 4.21184 6.06723H2.21184ZM2.15184 6.00623C2.13677 6.00623 2.12199 6.01146 2.10826 6.02516C2.09469 6.0387 2.08984 6.05278 2.08984 6.06723H0.0898438C0.0898438 4.92811 1.0174 4.00623 2.15184 4.00623V6.00623ZM2.08984 6.06723V14.8282H0.0898438V6.06723H2.08984ZM2.08984 14.8282C2.08984 14.638 1.93718 14.4902 1.75384 14.4902V16.4902C0.838508 16.4902 0.0898438 15.7485 0.0898438 14.8282H2.08984ZM1.75384 14.4902H2.35084V16.4902H1.75384V14.4902ZM2.35084 14.4902C2.23105 14.4902 2.12275 14.5536 2.06349 14.6518L3.7762 15.6846C3.47694 16.1809 2.93864 16.4902 2.35084 16.4902V14.4902ZM2.04459 14.6846L2.41759 14.0096L4.1681 14.9769L3.7951 15.6519L2.04459 14.6846ZM3.28992 13.4932L12.5099 13.4662L12.5158 15.4662L3.29577 15.4932L3.28992 13.4932ZM13.3696 13.9505L13.7826 14.6365L12.0691 15.668L11.6561 14.982L13.3696 13.9505ZM13.7982 14.6634C13.7386 14.557 13.6243 14.4892 13.5018 14.4892V16.4892C12.8954 16.4892 12.3451 16.1615 12.0535 15.6411L13.7982 14.6634ZM13.5018 14.4892H14.0978V16.4892H13.5018V14.4892ZM14.0978 14.4892C13.9086 14.4892 13.7598 14.6409 13.7598 14.8262H15.7598C15.7598 15.7416 15.0171 16.4892 14.0978 16.4892V14.4892ZM13.7598 14.8262V6.06623H15.7598V14.8262H13.7598ZM13.7598 6.06623C13.7598 6.03267 13.7317 6.00623 13.7008 6.00623V4.00623C14.84 4.00623 15.7598 4.93179 15.7598 6.06623H13.7598Z" fill="white" mask="url(#path-8-inside-1_443_60)"/>
</svg>
