<svg width="15" height="15" viewBox="0 0 15 15" fill="none" xmlns="http://www.w3.org/2000/svg">
<mask id="path-1-inside-1_443_95" fill="white">
<path d="M13.343 1.02905H0.830994V1.53204H13.343V1.02905ZM10.229 5.98004V5.28308C10.229 5.14508 10.116 5.03204 9.97699 5.03204H4.19598C4.05598 5.03204 3.944 5.14508 3.944 5.28308V5.98004H10.229ZM9.97699 4.20105C10.575 4.20105 11.06 4.68708 11.06 5.28308V13.2891C11.06 13.4281 11.174 13.5411 11.312 13.5411H12.645C12.784 13.5411 12.897 13.4281 12.897 13.2891V2.36304H1.27499V13.2891C1.27499 13.4281 1.38898 13.5411 1.52698 13.5411H2.86099C3.00099 13.5411 3.11398 13.4281 3.11398 13.2891V5.28308C3.11398 4.68708 3.59898 4.20105 4.19598 4.20105H9.97699ZM11.312 14.3721C10.715 14.3721 10.229 13.8861 10.229 13.2891V6.8111H3.944V13.2891C3.944 13.8861 3.45899 14.3721 2.86099 14.3721H1.52698C0.930978 14.3721 0.444977 13.8861 0.444977 13.2891V2.36304H0.415985C0.184985 2.36304 0 2.17706 0 1.94806V0.613037C0 0.384037 0.184985 0.198059 0.415985 0.198059H13.759C13.987 0.198059 14.174 0.384037 14.174 0.613037V1.94806C14.174 2.17706 13.987 2.36304 13.759 2.36304H13.728V13.2891C13.728 13.8861 13.243 14.3721 12.645 14.3721H11.312Z"/>
</mask>
<path d="M13.343 1.02905H0.830994V1.53204H13.343V1.02905ZM10.229 5.98004V5.28308C10.229 5.14508 10.116 5.03204 9.97699 5.03204H4.19598C4.05598 5.03204 3.944 5.14508 3.944 5.28308V5.98004H10.229ZM9.97699 4.20105C10.575 4.20105 11.06 4.68708 11.06 5.28308V13.2891C11.06 13.4281 11.174 13.5411 11.312 13.5411H12.645C12.784 13.5411 12.897 13.4281 12.897 13.2891V2.36304H1.27499V13.2891C1.27499 13.4281 1.38898 13.5411 1.52698 13.5411H2.86099C3.00099 13.5411 3.11398 13.4281 3.11398 13.2891V5.28308C3.11398 4.68708 3.59898 4.20105 4.19598 4.20105H9.97699ZM11.312 14.3721C10.715 14.3721 10.229 13.8861 10.229 13.2891V6.8111H3.944V13.2891C3.944 13.8861 3.45899 14.3721 2.86099 14.3721H1.52698C0.930978 14.3721 0.444977 13.8861 0.444977 13.2891V2.36304H0.415985C0.184985 2.36304 0 2.17706 0 1.94806V0.613037C0 0.384037 0.184985 0.198059 0.415985 0.198059H13.759C13.987 0.198059 14.174 0.384037 14.174 0.613037V1.94806C14.174 2.17706 13.987 2.36304 13.759 2.36304H13.728V13.2891C13.728 13.8861 13.243 14.3721 12.645 14.3721H11.312Z" fill="white"/>
<path d="M13.343 1.02905V0.0290527H14.343V1.02905H13.343ZM0.830994 1.02905H-0.169006V0.0290527H0.830994V1.02905ZM0.830994 1.53204V2.53204H-0.169006V1.53204H0.830994ZM13.343 1.53204H14.343V2.53204H13.343V1.53204ZM10.229 5.98004H11.229V6.98004H10.229V5.98004ZM3.944 5.98004V6.98004H2.944V5.98004H3.944ZM12.897 2.36304V1.36304H13.897V2.36304H12.897ZM1.27499 2.36304H0.274994V1.36304H1.27499V2.36304ZM10.229 6.8111V5.8111H11.229V6.8111H10.229ZM3.944 6.8111H2.944V5.8111H3.944V6.8111ZM0.444977 2.36304V1.36304H1.44498V2.36304H0.444977ZM13.728 2.36304H12.728V1.36304H13.728V2.36304ZM13.343 2.02905H0.830994V0.0290527H13.343V2.02905ZM1.83099 1.02905V1.53204H-0.169006V1.02905H1.83099ZM0.830994 0.532043H13.343V2.53204H0.830994V0.532043ZM12.343 1.53204V1.02905H14.343V1.53204H12.343ZM9.229 5.98004V5.28308H11.229V5.98004H9.229ZM9.229 5.28308C9.229 5.69983 9.56617 6.03204 9.97699 6.03204V4.03204C10.6658 4.03204 11.229 4.59033 11.229 5.28308H9.229ZM9.97699 6.03204H4.19598V4.03204H9.97699V6.03204ZM4.19598 6.03204C4.60855 6.03204 4.944 5.69709 4.944 5.28308H2.944C2.944 4.59308 3.50342 4.03204 4.19598 4.03204V6.03204ZM4.944 5.28308V5.98004H2.944V5.28308H4.944ZM3.944 4.98004H10.229V6.98004H3.944V4.98004ZM9.97699 3.20105C11.1273 3.20105 12.06 4.13482 12.06 5.28308H10.06C10.06 5.23934 10.0227 5.20105 9.97699 5.20105V3.20105ZM12.06 5.28308V13.2891H10.06V5.28308H12.06ZM12.06 13.2891C12.06 12.8734 11.7238 12.5411 11.312 12.5411V14.5411C10.6241 14.5411 10.06 13.9828 10.06 13.2891H12.06ZM11.312 12.5411H12.645V14.5411H11.312V12.5411ZM12.645 12.5411C12.2317 12.5411 11.897 12.8758 11.897 13.2891H13.897C13.897 13.9803 13.3363 14.5411 12.645 14.5411V12.5411ZM11.897 13.2891V2.36304H13.897V13.2891H11.897ZM12.897 3.36304H1.27499V1.36304H12.897V3.36304ZM2.27499 2.36304V13.2891H0.274994V2.36304H2.27499ZM2.27499 13.2891C2.27499 12.8734 1.93884 12.5411 1.52698 12.5411V14.5411C0.839116 14.5411 0.274994 13.9828 0.274994 13.2891H2.27499ZM1.52698 12.5411H2.86099V14.5411H1.52698V12.5411ZM2.86099 12.5411C2.45117 12.5411 2.11398 12.8733 2.11398 13.2891H4.11398C4.11398 13.9828 3.55082 14.5411 2.86099 14.5411V12.5411ZM2.11398 13.2891V5.28308H4.11398V13.2891H2.11398ZM2.11398 5.28308C2.11398 4.13543 3.04606 3.20105 4.19598 3.20105V5.20105C4.15191 5.20105 4.11398 5.23873 4.11398 5.28308H2.11398ZM4.19598 3.20105H9.97699V5.20105H4.19598V3.20105ZM11.312 15.3721C10.1627 15.3721 9.229 14.4383 9.229 13.2891H11.229C11.229 13.3338 11.2673 13.3721 11.312 13.3721V15.3721ZM9.229 13.2891V6.8111H11.229V13.2891H9.229ZM10.229 7.8111H3.944V5.8111H10.229V7.8111ZM4.944 6.8111V13.2891H2.944V6.8111H4.944ZM4.944 13.2891C4.944 14.4377 4.01188 15.3721 2.86099 15.3721V13.3721C2.90611 13.3721 2.944 13.3344 2.944 13.2891H4.944ZM2.86099 15.3721H1.52698V13.3721H2.86099V15.3721ZM1.52698 15.3721C0.378083 15.3721 -0.555023 14.4377 -0.555023 13.2891H1.44498C1.44498 13.3107 1.45274 13.3305 1.46981 13.3476C1.48692 13.3647 1.50631 13.3721 1.52698 13.3721V15.3721ZM-0.555023 13.2891V2.36304H1.44498V13.2891H-0.555023ZM0.444977 3.36304H0.415985V1.36304H0.444977V3.36304ZM0.415985 3.36304C-0.367277 3.36304 -1 2.72937 -1 1.94806H1C1 1.62475 0.737248 1.36304 0.415985 1.36304V3.36304ZM-1 1.94806V0.613037H1V1.94806H-1ZM-1 0.613037C-1 -0.16827 -0.367277 -0.801941 0.415985 -0.801941V1.19806C0.737248 1.19806 1 0.936344 1 0.613037H-1ZM0.415985 -0.801941H13.759V1.19806H0.415985V-0.801941ZM13.759 -0.801941C14.5377 -0.801941 15.174 -0.169815 15.174 0.613037H13.174C13.174 0.937889 13.4363 1.19806 13.759 1.19806V-0.801941ZM15.174 0.613037V1.94806H13.174V0.613037H15.174ZM15.174 1.94806C15.174 2.73091 14.5377 3.36304 13.759 3.36304V1.36304C13.4363 1.36304 13.174 1.62321 13.174 1.94806H15.174ZM13.759 3.36304H13.728V1.36304H13.759V3.36304ZM14.728 2.36304V13.2891H12.728V2.36304H14.728ZM14.728 13.2891C14.728 14.4377 13.7959 15.3721 12.645 15.3721V13.3721C12.6901 13.3721 12.728 13.3344 12.728 13.2891H14.728ZM12.645 15.3721H11.312V13.3721H12.645V15.3721Z" fill="white" mask="url(#path-1-inside-1_443_95)"/>
</svg>
