<svg width="9" height="16" viewBox="0 0 9 16" fill="none" xmlns="http://www.w3.org/2000/svg">
<path d="M3.83887 2.00144C3.83887 1.55844 4.19687 1.19844 4.64187 1.19844C5.08487 1.19844 5.44287 1.55844 5.44287 2.00144C5.44287 2.44444 5.08487 2.80444 4.64187 2.80444C4.19687 2.80444 3.83887 2.44444 3.83887 2.00144Z" stroke="white" stroke-width="0.85" stroke-miterlimit="10"/>
<path d="M6.96926 6.58423L4.98926 2.29623" stroke="white" stroke-width="0.85" stroke-miterlimit="10"/>
<path d="M2.31348 6.58423L4.29248 2.29623" stroke="white" stroke-width="0.85" stroke-miterlimit="10"/>
<path d="M2.26758 10.4307C2.26758 8.54366 3.32958 7.01366 4.64158 7.01366C5.95258 7.01366 7.01458 8.54366 7.01458 10.4307C7.01458 12.3177 5.95258 13.8477 4.64158 13.8477C3.32958 13.8477 2.26758 12.3177 2.26758 10.4307Z" stroke="white" stroke-width="0.85" stroke-miterlimit="10"/>
<path d="M0.915039 10.4306C0.915039 7.70158 2.58304 5.48958 4.64204 5.48958C6.69804 5.48958 8.36804 7.70158 8.36804 10.4306C8.36804 13.1596 6.69804 15.3716 4.64204 15.3716C2.58304 15.3716 0.915039 13.1596 0.915039 10.4306Z" stroke="white" stroke-width="0.85" stroke-miterlimit="10"/>
<path d="M4.92782 9.43839L3.96582 10.4004" stroke="white" stroke-width="0.85" stroke-linecap="round" stroke-linejoin="round"/>
<path d="M5.40996 10.7055L4.95996 11.1555" stroke="white" stroke-width="0.85" stroke-linecap="round" stroke-linejoin="round"/>
</svg>
