<svg width="14" height="15" viewBox="0 0 14 15" fill="none" xmlns="http://www.w3.org/2000/svg">
<path fill-rule="evenodd" clip-rule="evenodd" d="M5.10296 8.94928L8.47696 6.82128L10.263 7.91328L10.969 7.46728L8.74496 6.10628L7.83596 4.66828L7.20296 5.06928L7.95596 6.26128L4.82296 8.23928L4.06996 7.04528L3.43596 7.44528L4.34296 8.88328L4.61196 11.4783L5.31896 11.0323L5.10296 8.94928ZM4.31596 3.96528C5.14296 3.44428 6.22196 3.66428 6.79096 4.44228L7.42696 4.04028C6.73096 3.05028 5.45596 2.69428 4.35496 3.12828V0.88728H7.37496C7.58196 0.88728 7.74996 0.72028 7.74996 0.51128C7.74996 0.30528 7.58196 0.13628 7.37496 0.13628H0.584961C0.376961 0.13628 0.209961 0.30528 0.209961 0.51128C0.209961 0.72028 0.376961 0.88728 0.584961 0.88728H3.60496V3.57728C2.68596 4.37728 2.43696 5.72128 3.04496 6.80328L3.68096 6.40428C3.22496 5.55428 3.48996 4.48628 4.31596 3.96528ZM10.143 8.99028L8.95496 8.24028C8.77896 8.13028 8.54696 8.18328 8.43696 8.35828C8.32696 8.53328 8.37796 8.76428 8.55396 8.87628L9.74296 9.62528C9.86996 9.70528 10.024 9.69928 10.143 9.62528C10.189 9.59528 10.229 9.55528 10.259 9.50828C10.371 9.33228 10.318 9.10028 10.143 8.99028ZM12.63 8.48228L11.684 7.90328L10.976 8.34828L12.24 9.12228C12.325 9.17328 12.335 9.25628 12.335 9.28928C12.335 9.32228 12.327 9.40628 12.243 9.45928L5.86196 13.4843C5.77796 13.5373 5.69896 13.5103 5.66896 13.4953C5.63796 13.4803 5.56896 13.4363 5.55696 13.3363L5.40496 11.8653L4.69796 12.3093L4.81196 13.4143C4.84596 13.7423 5.04296 14.0243 5.33996 14.1693C5.63796 14.3143 5.98396 14.2943 6.26096 14.1183L12.643 10.0943C12.922 9.91728 13.087 9.61428 13.085 9.28328C13.082 8.95328 12.912 8.65328 12.63 8.48228Z" fill="white"/>
</svg>
