<svg width="18" height="13" viewBox="0 0 18 13" fill="none" xmlns="http://www.w3.org/2000/svg">
<path d="M6.646 0.368244C6.662 0.394244 6.756 0.519244 6.775 0.542244C6.873 0.662244 7.003 0.737245 7.144 0.737245H10.918C11.059 0.737245 11.191 0.662245 11.289 0.541245C11.307 0.518245 11.398 0.394244 11.415 0.368244H9.363V0.000244141H11.966C11.966 0.331244 11.856 0.634244 11.677 0.854244C11.498 1.07824 11.248 1.22124 10.966 1.23624V1.23724H9.246V11.0382C9.466 11.3002 10.362 12.2502 11.75 12.2502C13.123 12.2502 13.798 11.3662 13.957 11.1252V10.8322C11.144 10.7672 10.281 7.76824 10.278 7.76024L10.266 7.72224V6.82024H12.5C12.537 6.48124 12.726 6.18024 13.013 5.95924C13.23 5.79124 13.505 5.67024 13.811 5.61424V6.12424C13.621 6.17024 13.453 6.24924 13.318 6.35324C13.154 6.48024 13.042 6.64224 13.005 6.82024H15.18C15.149 6.63624 15.05 6.47024 14.908 6.34324C14.8 6.24724 14.667 6.17324 14.519 6.12824V5.61324C14.796 5.67024 15.044 5.79624 15.24 5.97024C15.488 6.19024 15.651 6.48824 15.684 6.82024H17.981V7.74824L17.973 7.78124C17.972 7.78424 17.908 8.04924 17.741 8.42224H17.192C17.371 8.07124 17.456 7.78524 17.481 7.69424V7.32024H10.766V7.65024C10.871 7.97424 11.708 10.3332 14.048 10.3352L14.207 10.3362C15.441 10.3362 16.239 9.75224 16.738 9.13124H17.351C16.835 9.90624 15.941 10.7432 14.457 10.8292V11.2672L14.419 11.3272C14.417 11.3312 13.629 12.7502 11.75 12.7502C10.35 12.7502 9.387 11.9192 8.996 11.5072C8.604 11.9192 7.64 12.7502 6.238 12.7502C4.357 12.7502 3.568 11.3312 3.566 11.3272L3.529 11.2672V10.8292C0.706 10.6672 0.0099999 7.78924 0.0079999 7.78124L0 7.74824V6.82024H2.299C2.333 6.48824 2.497 6.19024 2.745 5.97024C2.964 5.77524 3.25 5.64024 3.568 5.59624V6.10324C3.377 6.14124 3.208 6.22524 3.077 6.34324C2.933 6.47024 2.834 6.63624 2.804 6.82024H4.982C4.946 6.64224 4.833 6.48024 4.669 6.35324C4.559 6.26824 4.425 6.20024 4.277 6.15324V5.63524C4.542 5.69824 4.781 5.81024 4.973 5.95924C5.261 6.18024 5.451 6.48124 5.488 6.82024H7.723V7.72224L7.712 7.76024C7.711 7.76224 7.631 8.03724 7.444 8.42224H6.883C7.084 8.05524 7.191 7.75224 7.223 7.65024V7.32024H0.5V7.69424C0.581 7.98824 1.299 10.3362 3.779 10.3362H3.936C5.097 10.3352 5.889 9.75524 6.405 9.13124H7.029C6.471 9.93424 5.525 10.7982 4.029 10.8322V11.1252C4.187 11.3662 4.864 12.2502 6.238 12.2502C7.628 12.2502 8.525 11.3002 8.746 11.0382V1.23724H7.109V1.23624C6.824 1.22524 6.57 1.08124 6.386 0.854244C6.209 0.634244 6.098 0.331244 6.098 0.000244141H8.654V0.368244H6.646ZM1.668 7.65024C1.668 8.12824 1.901 8.56524 2.276 8.88124C2.663 9.20824 3.201 9.41024 3.797 9.41024V9.91024C3.081 9.91024 2.428 9.66224 1.955 9.26324C1.469 8.85224 1.168 8.28224 1.168 7.65024H1.668ZM11.996 7.65024C11.996 8.12924 12.228 8.56524 12.603 8.88124C12.991 9.20824 13.529 9.41024 14.125 9.41024V9.91024C13.408 9.91024 12.755 9.66224 12.282 9.26324C11.796 8.85224 11.496 8.28324 11.496 7.65024H11.996Z" fill="white"/>
</svg>
