<svg width="11" height="15" viewBox="0 0 11 15" fill="none" xmlns="http://www.w3.org/2000/svg">
<path fill-rule="evenodd" clip-rule="evenodd" d="M1.92237 9.44789C1.75237 9.29689 1.59037 9.13489 1.44037 8.96289H2.68237V8.93589C2.80937 9.07989 2.91038 9.24589 3.00338 9.45289H8.03238C8.11838 9.25889 8.21037 9.09989 8.31837 8.96289H9.57238C9.43438 9.12089 9.28537 9.27189 9.12937 9.41189C8.85337 9.66189 8.66138 10.3229 8.46638 11.0709H7.53537L7.57638 10.9149L3.68437 11.8919C3.77837 12.2319 3.86637 12.4929 3.96237 12.7099L7.32337 11.8659L7.34838 11.7799H8.28137C8.20437 12.0679 8.12237 12.3549 8.03137 12.6229H7.07238C7.10438 12.5449 7.13538 12.4609 7.16638 12.3699L4.21037 13.1119C4.45837 13.3839 4.82938 13.4819 5.54138 13.4979C6.04038 13.5099 6.35337 13.4699 6.57837 13.3319H7.73837C7.30937 14.1399 6.68237 14.4269 5.52137 14.3999C4.27437 14.3699 3.57937 14.0559 3.14937 13.0979C2.91037 12.5689 2.74837 11.8999 2.59837 11.2729H3.52537L3.56938 11.4559L7.70837 10.4169C7.71437 10.3959 7.72137 10.3749 7.72637 10.3549H3.29838L3.35337 10.5649H2.42138C2.28338 10.0519 2.13337 9.63389 1.92237 9.44789ZM8.99137 8.25389C9.14837 8.06389 9.28837 7.86189 9.41037 7.64989H1.60238C1.72438 7.86189 1.86338 8.06389 2.02038 8.25389H0.913375C0.455375 7.51889 0.168375 6.66589 0.109375 5.75089H1.01237C1.05137 6.25789 1.17637 6.74589 1.37437 7.19889H9.63937C9.83637 6.74589 9.96037 6.25789 9.99937 5.75089H10.9024C10.8444 6.66589 10.5574 7.51889 10.0994 8.25389H8.99137ZM9.99937 5.04289C9.82737 2.83689 8.06838 1.07689 5.86438 0.903887V-0.000113487C8.56838 0.176887 10.7284 2.33889 10.9024 5.04289H9.99937ZM5.15538 0.902886C2.94637 1.07289 1.18437 2.83489 1.01237 5.04289H0.110375C0.284375 2.33689 2.44937 0.172887 5.15538 -0.000113487V0.902886ZM2.12538 5.41789C1.90138 5.41789 1.91037 5.08589 1.93037 4.93389C2.13837 3.30989 3.42738 2.02289 5.05338 1.81989C5.16538 1.80489 5.52637 1.79089 5.52637 2.01589C5.52637 2.24189 5.01837 2.27989 5.01837 2.27989C3.66637 2.48989 2.59937 3.55689 2.38937 4.90889C2.38937 4.90889 2.35138 5.41789 2.12538 5.41789Z" fill="white"/>
</svg>
