<svg width="22" height="13" viewBox="0 0 22 13" fill="none" xmlns="http://www.w3.org/2000/svg">
<path d="M7.29708 9.50031C7.17408 9.99631 7.03708 10.5513 6.90108 11.1043C6.84208 11.3453 6.77208 11.5793 6.71308 11.8183C6.66708 12.0113 6.55308 12.1253 6.35708 12.0943C6.13408 12.0583 6.07008 11.8823 6.11808 11.6873C6.24708 11.1293 6.38908 10.5753 6.52608 10.0213C6.58608 9.78331 6.63908 9.54231 6.71608 9.30831C6.76708 9.15031 6.90508 9.08531 7.06808 9.12131C7.23208 9.15531 7.31108 9.26931 7.29708 9.50031ZM8.93508 8.22531H2.44208C1.78808 8.22531 1.58208 8.09731 1.34608 7.50231C1.28908 7.36131 1.21108 7.32031 1.07108 7.31831C0.891077 7.31331 0.730077 7.25331 0.728077 7.03431C0.725077 6.80731 0.882077 6.71331 1.07908 6.72331C1.31808 6.73131 1.31908 6.59631 1.32008 6.42231C1.32308 6.24731 1.31108 6.12131 1.07608 6.12731C0.883077 6.13231 0.716077 6.05131 0.727077 5.81531C0.736077 5.60131 0.900077 5.53431 1.07908 5.54131C1.25108 5.54631 1.30708 5.45831 1.36008 5.31831C1.55208 4.80331 1.80108 4.63531 2.34508 4.63531H8.93508V5.23031H2.38908C2.02908 5.23031 1.93808 5.32531 1.93408 5.69631C1.92708 6.15531 1.93008 6.61531 1.93308 7.07431C1.93408 7.55431 2.00408 7.62431 2.47408 7.62431H8.93508V8.22531ZM9.76808 4.63531H16.3441C16.9941 4.63531 17.1891 4.76431 17.4191 5.37031C17.4781 5.52231 17.5741 5.53931 17.7061 5.53931C17.8881 5.53931 18.0161 5.62431 18.0201 5.81531C18.0261 6.01531 17.9071 6.13131 17.7081 6.12931C17.5151 6.12531 17.4261 6.18031 17.4271 6.39631C17.4271 6.61131 17.4651 6.73131 17.7171 6.72631C17.8891 6.71931 18.0201 6.81931 18.0231 7.01231C18.0261 7.22431 17.8961 7.31831 17.7011 7.31631C17.5271 7.31431 17.4521 7.37431 17.4051 7.55531C17.2931 7.97731 16.9881 8.20731 16.5411 8.21831C15.9601 8.23031 15.3751 8.22531 14.7931 8.22531H9.76808V7.62431H16.2301C16.7981 7.62431 16.8341 7.58531 16.8351 7.00631C16.8351 6.56931 16.8371 6.13131 16.8341 5.69531C16.8291 5.32031 16.7461 5.23231 16.3811 5.23231L9.76808 5.23031V4.63531ZM9.68908 10.6053C9.68908 10.9763 9.68708 11.3443 9.69108 11.7113C9.69308 11.9173 9.61408 12.0793 9.40108 12.0863C9.15808 12.0983 9.08608 11.9213 9.08608 11.7053C9.08808 10.9693 9.08608 10.2293 9.08808 9.49431C9.08808 9.29931 9.12908 9.12431 9.37108 9.12431C9.61808 9.12231 9.69308 9.28331 9.69208 9.50031V10.6053H9.68908ZM9.68908 2.28931C9.68908 2.64731 9.68708 3.00631 9.68908 3.36531C9.69208 3.57331 9.61908 3.72631 9.39308 3.73231C9.15808 3.74031 9.08708 3.57931 9.08708 3.37831C9.08408 2.62631 9.08308 1.87531 9.08708 1.12331C9.08708 0.919311 9.16608 0.761311 9.39708 0.771311C9.62008 0.782311 9.69308 0.938311 9.69208 1.14631C9.68708 1.52531 9.68908 1.90831 9.68908 2.28931ZM11.4721 3.38631C11.5291 3.15931 11.5941 2.91131 11.6551 2.66231C11.7821 2.14131 11.9071 1.61831 12.0381 1.10131C12.0881 0.901311 12.1851 0.718311 12.4251 0.777311C12.6691 0.838311 12.6991 1.02031 12.6391 1.25431C12.4501 1.94531 12.2861 2.64331 12.1121 3.33531C12.0931 3.41131 12.0721 3.48831 12.0401 3.55931C11.9701 3.71131 11.8401 3.76831 11.6801 3.72231C11.5291 3.67931 11.4791 3.55931 11.4721 3.38631ZM3.13208 11.4813C3.11908 11.3763 3.18308 11.2953 3.23408 11.2083C3.58208 10.5973 3.93308 9.98431 4.27608 9.36931C4.39008 9.16831 4.53708 9.03531 4.76008 9.16031C4.98008 9.28131 4.92408 9.48631 4.82408 9.66131C4.46408 10.3053 4.09208 10.9403 3.72708 11.5833C3.63208 11.7483 3.50008 11.8353 3.31108 11.7763C3.18108 11.7353 3.12208 11.6253 3.13208 11.4813ZM3.13208 1.38931C3.12208 1.22531 3.19108 1.12431 3.31708 1.07831C3.47308 1.02331 3.60808 1.08231 3.69208 1.22231C3.83808 1.45931 3.97108 1.70431 4.11108 1.94631C4.34508 2.35431 4.57608 2.76431 4.81008 3.17131C4.91808 3.36131 4.98908 3.57031 4.75608 3.69731C4.53708 3.81731 4.39008 3.68831 4.27508 3.48131C3.93908 2.87431 3.58808 2.27731 3.24508 1.67431C3.19108 1.57931 3.11008 1.49031 3.13208 1.38931ZM14.1401 9.11831C14.2981 9.10631 14.3881 9.19731 14.4581 9.32131C14.8331 9.98031 15.2081 10.6403 15.5871 11.2963C15.6951 11.4833 15.6781 11.6533 15.4931 11.7563C15.3031 11.8603 15.1471 11.7683 15.0451 11.5893C14.6701 10.9303 14.2911 10.2733 13.9251 9.60931C13.7801 9.34631 13.8841 9.13031 14.1401 9.11831ZM15.6641 1.37031C15.6221 1.46431 15.5891 1.56131 15.5401 1.64631C15.1961 2.25131 14.8521 2.85431 14.5081 3.45731C14.3941 3.65731 14.2501 3.83931 14.0041 3.69531C13.7511 3.54731 13.8591 3.33631 13.9721 3.14231C14.3291 2.52031 14.6861 1.89731 15.0401 1.27531C15.1251 1.12531 15.2441 1.02831 15.4231 1.07331C15.5681 1.10931 15.6371 1.22531 15.6641 1.37031ZM12.6791 11.7813C12.6651 11.9353 12.5801 12.0473 12.4251 12.0853C12.2601 12.1253 12.1341 12.0423 12.0871 11.8863C11.9871 11.5423 11.8981 11.1963 11.8101 10.8523C11.6991 10.4183 11.5901 9.98531 11.4901 9.55131C11.4451 9.36131 11.4741 9.18331 11.6981 9.12631C11.8951 9.07931 12.0291 9.18131 12.0781 9.36631C12.2771 10.1453 12.4721 10.9243 12.6671 11.7053C12.6731 11.7283 12.6741 11.7483 12.6791 11.7813ZM7.29208 3.34731C7.29208 3.57631 7.23608 3.70231 7.06108 3.72931C6.86008 3.76331 6.74308 3.66331 6.69408 3.47231C6.54408 2.87531 6.39308 2.27731 6.24208 1.68231C6.19308 1.48531 6.14008 1.29031 6.11208 1.09131C6.08808 0.92731 6.18108 0.807311 6.34308 0.771311C6.49108 0.734311 6.63708 0.804311 6.67208 0.938311C6.89408 1.76031 7.09908 2.58431 7.29208 3.34731ZM19.0741 3.51531C19.3341 3.71431 19.6251 3.81531 19.9511 3.81531C20.2111 3.81531 20.4181 3.75031 20.5691 3.62331C20.7221 3.49531 20.7981 3.32431 20.7981 3.10931C20.7981 2.63031 20.4551 2.39331 19.7711 2.39331H19.4551V1.99631H19.7561C20.3631 1.99631 20.6661 1.77131 20.6661 1.32131C20.6661 0.906311 20.4351 0.699311 19.9711 0.699311C19.7051 0.699311 19.4551 0.789311 19.2221 0.968311V0.518311C19.4691 0.373311 19.7571 0.302311 20.0881 0.302311C20.4101 0.302311 20.6691 0.387311 20.8641 0.555311C21.0601 0.723311 21.1571 0.940311 21.1571 1.20931C21.1571 1.70431 20.9041 2.02231 20.4011 2.16431V2.17431C20.6741 2.20331 20.8901 2.30131 21.0491 2.46331C21.2071 2.62631 21.2861 2.83131 21.2861 3.07531C21.2861 3.41531 21.1641 3.68931 20.9191 3.89731C20.6741 4.10531 20.3481 4.20931 19.9421 4.20931C19.5831 4.20931 19.2951 4.14431 19.0741 4.01131V3.51531Z" fill="white"/>
</svg>
