<svg width="10" height="16" viewBox="0 0 10 16" fill="none" xmlns="http://www.w3.org/2000/svg">
<path d="M6.22593 11.4957C6.22593 12.3167 5.56093 12.9817 4.73993 12.9817C3.91893 12.9817 3.25293 12.3167 3.25293 11.4957" stroke="white" stroke-width="0.85" stroke-miterlimit="10"/>
<path d="M2.38227 12.9981L1.82227 13.5581" stroke="white" stroke-width="0.85" stroke-linecap="round" stroke-linejoin="round"/>
<path d="M7.09766 12.9981L7.65766 13.5581" stroke="white" stroke-width="0.85" stroke-linecap="round" stroke-linejoin="round"/>
<path d="M4.73926 14.3818V15.1738" stroke="white" stroke-width="0.85" stroke-linecap="round" stroke-linejoin="round"/>
<path d="M4.73926 6.22607V1.00007" stroke="white" stroke-width="0.85" stroke-linecap="round" stroke-linejoin="round"/>
<path d="M1.75879 1.00342H7.49979" stroke="white" stroke-width="0.85" stroke-linecap="round" stroke-linejoin="round"/>
<path d="M4.739 6.9392C5.797 6.9392 6.791 7.3502 7.536 8.1002C8.268 8.8292 8.672 9.7962 8.689 10.8282H0.79C0.827 8.6772 2.58 6.9392 4.739 6.9392ZM8.09 7.5452C7.34 6.7922 6.36 6.3182 5.301 6.1932C5.156 6.1662 4.98 6.1442 4.782 6.1422C4.547 6.1392 4.342 6.1642 4.177 6.1952C3.819 6.2382 2.353 6.4532 1.201 7.7452C0.0409998 9.0452 0 10.5382 0 10.8962V11.1162C0 11.4262 0.252 11.6792 0.562 11.6792H0.783H2.946H6.532H8.697H8.916C9.227 11.6792 9.478 11.4262 9.478 11.1162V10.8962C9.478 9.6282 8.985 8.4382 8.09 7.5452Z" fill="white"/>
</svg>
