<svg width="15" height="15" viewBox="0 0 15 15" fill="none" xmlns="http://www.w3.org/2000/svg">
<path fill-rule="evenodd" clip-rule="evenodd" d="M7.21316 3.25401C5.19216 3.24101 3.51516 4.79201 3.33616 6.76301H4.29716C4.47216 5.31901 5.71616 4.19601 7.20916 4.20601C8.69416 4.21401 9.92416 5.33401 10.0982 6.76301H11.0582C10.8812 4.81301 9.22416 3.26701 7.21316 3.25401ZM6.75616 1.36701C6.75616 1.10201 6.74916 0.836013 6.75716 0.570013C6.76816 0.237013 7.00116 0.0020124 7.30816 1.23978e-05C7.61316 -0.0019876 7.85116 0.228012 7.85816 0.566012C7.86816 1.10701 7.86816 1.64801 7.85816 2.18801C7.85116 2.53701 7.63016 2.75201 7.31216 2.75301C6.98516 2.75301 6.76516 2.52401 6.75716 2.16401C6.75016 1.89901 6.75516 1.63301 6.75616 1.36701ZM5.26016 2.82001C5.23116 3.07701 5.11116 3.26101 4.86916 3.34001C4.63916 3.41501 4.41016 3.36601 4.28416 3.16501C3.95816 2.64201 3.64816 2.10801 3.35716 1.56501C3.23616 1.34101 3.35816 1.05901 3.57416 0.920012C3.78216 0.786012 4.11716 0.791013 4.24916 0.996013C4.59916 1.54701 4.91216 2.12201 5.23616 2.68901C5.25916 2.72801 5.25416 2.78101 5.26016 2.82001ZM3.42416 4.54501C3.44016 5.03801 3.01216 5.33501 2.64916 5.14701C2.12716 4.87701 1.61816 4.57701 1.11716 4.26901C0.864164 4.11401 0.810164 3.81301 0.945164 3.56401C1.08116 3.31201 1.39516 3.18701 1.65516 3.32601C2.17416 3.60401 2.68716 3.89701 3.18416 4.21101C3.31216 4.29201 3.37516 4.47401 3.42416 4.54501ZM1.37816 7.67601C1.10416 7.67601 0.827164 7.68501 0.553164 7.67401C0.220164 7.66201 0.00716445 7.44901 0.000164454 7.14501C-0.00683555 6.82801 0.210164 6.58601 0.549164 6.57801C1.10016 6.56601 1.65116 6.56601 2.20216 6.57801C2.54016 6.58601 2.76216 6.82801 2.75616 7.14101C2.75016 7.44201 2.53316 7.66101 2.20516 7.67401C1.93016 7.68501 1.65416 7.67601 1.37816 7.67601ZM2.85316 9.06301C3.14316 9.07501 3.31916 9.20001 3.40216 9.44101C3.48616 9.68701 3.42216 9.91601 3.21116 10.047C2.70316 10.363 2.18516 10.664 1.65616 10.945C1.40316 11.08 1.10116 10.956 0.965164 10.718C0.822164 10.469 0.863164 10.162 1.11016 10.008C1.61816 9.69101 2.14316 9.40101 2.66416 9.10601C2.72716 9.07001 2.81116 9.07201 2.85316 9.06301ZM4.02116 13.534C3.53816 13.529 3.25316 13.118 3.43516 12.768C3.71016 12.238 4.01616 11.722 4.33016 11.214C4.47916 10.975 4.80216 10.931 5.04216 11.07C5.28416 11.212 5.40116 11.506 5.26716 11.757C4.98216 12.283 4.68516 12.803 4.36316 13.307C4.28416 13.432 4.09416 13.488 4.02116 13.534ZM7.86516 12.985C7.86516 13.251 7.87416 13.517 7.86316 13.782C7.84916 14.145 7.62416 14.367 7.29716 14.358C6.98516 14.35 6.76416 14.122 6.75916 13.779C6.75216 13.248 6.75216 12.716 6.75916 12.185C6.76416 11.85 6.99616 11.611 7.30016 11.603C7.60516 11.595 7.84616 11.825 7.86216 12.16C7.87516 12.435 7.86516 12.71 7.86516 12.985ZM10.4052 13.411C10.3302 13.354 10.1412 13.274 10.0492 13.13C9.75116 12.669 9.48316 12.188 9.21516 11.708C9.05816 11.424 9.14416 11.114 9.39816 10.959C9.66516 10.794 9.98816 10.863 10.1632 11.15C10.4532 11.628 10.7392 12.109 11.0012 12.604C11.2022 12.984 10.9262 13.42 10.4052 13.411ZM13.5642 10.434C13.4852 10.863 13.0752 11.119 12.7172 10.932C12.2052 10.664 11.7062 10.369 11.2122 10.067C10.9552 9.91001 10.8962 9.58901 11.0402 9.34001C11.1852 9.09201 11.4922 8.98301 11.7572 9.12701C12.2662 9.40101 12.7722 9.68501 13.2582 9.99601C13.3972 10.085 13.4642 10.285 13.5642 10.434ZM13.0082 7.66301C12.7332 7.66301 12.4572 7.67001 12.1822 7.66101C11.8612 7.65101 11.6352 7.42401 11.6302 7.12501C11.6262 6.83201 11.8572 6.57801 12.1682 6.57101C12.7292 6.56001 13.2902 6.56101 13.8512 6.57001C14.1672 6.57701 14.3992 6.81701 14.4022 7.11201C14.4062 7.41901 14.1722 7.65301 13.8352 7.66201C13.5602 7.66901 13.2842 7.66301 13.0082 7.66301ZM11.5112 5.19501C11.2702 5.17001 11.0852 5.05901 11.0052 4.83101C10.9242 4.59701 10.9582 4.35301 11.1772 4.21801C11.7012 3.89501 12.2372 3.58801 12.7822 3.29901C13.0082 3.18001 13.2902 3.30101 13.4272 3.51601C13.5612 3.72801 13.5552 4.06101 13.3472 4.19101C12.7932 4.54101 12.2172 4.85201 11.6482 5.17401C11.6092 5.19601 11.5552 5.19001 11.5112 5.19501ZM9.85716 3.48001C9.35016 3.48201 9.06916 3.06201 9.26116 2.69601C9.52916 2.18401 9.82516 1.68601 10.1272 1.19101C10.2802 0.940012 10.6042 0.878013 10.8552 1.01701C11.1072 1.15601 11.2212 1.46401 11.0772 1.72801C10.8032 2.23701 10.5152 2.74101 10.2042 3.22801C10.1182 3.36201 9.92916 3.42901 9.85716 3.48001ZM3.33716 7.47101C3.51716 9.44701 5.15616 10.974 7.19116 10.98C9.21416 10.986 10.8742 9.44801 11.0572 7.47101H10.0972C9.92016 8.91901 8.68816 10.033 7.19216 10.028C5.69016 10.024 4.47216 8.91701 4.29716 7.47101H3.33716Z" fill="white"/>
</svg>
