<svg width="22" height="12" viewBox="0 0 22 12" fill="none" xmlns="http://www.w3.org/2000/svg">
<path fill-rule="evenodd" clip-rule="evenodd" d="M21.342 0.504022C21.325 0.476022 21.305 0.448022 21.291 0.419022C21.162 0.150022 20.95 0.00502205 20.65 0.00502205C19.636 0.00302205 18.623 2.14996e-05 17.61 0.0060215C17.219 0.0080215 16.927 0.302022 16.927 0.672022C16.927 1.04302 17.219 1.33402 17.61 1.33602C18.624 1.34202 19.636 1.33902 20.651 1.33702C20.952 1.33702 21.163 1.19302 21.291 0.924022C21.306 0.894022 21.325 0.865022 21.342 0.837022V0.504022ZM0 0.837022C0.019 0.872022 0.0409981 0.906022 0.0589981 0.941022C0.185998 1.19302 0.387 1.33502 0.671 1.33602C1.697 1.34002 2.726 1.34202 3.752 1.33502C4.129 1.33202 4.413 1.03402 4.414 0.672022C4.414 0.310022 4.13 0.0110219 3.753 0.0070219C2.962 -0.000978096 2.17 0.00402164 1.379 0.00402164C1.164 0.00402164 0.948999 0.00602219 0.733999 0.00302219C0.400999 2.21939e-05 0.160999 0.142022 0.0369987 0.459022C0.0299987 0.476022 0.013 0.489022 0 0.504022V0.837022ZM15.259 2.19345e-05C15.705 -0.00397807 16.03 0.317022 16.009 0.771022C15.982 1.39902 15.869 2.00102 15.65 2.57702H14.186C14.396 2.19102 14.538 1.77502 14.601 1.35102H6.74C6.804 1.77502 6.946 2.19102 7.156 2.57702H5.69C5.455 1.96902 5.337 1.33602 5.337 0.679022C5.337 0.301022 5.612 0.025022 5.988 0.00502205C6.05 0.00202205 6.113 0.00302219 6.175 0.00302219H10.674C12.202 0.00302219 13.731 0.0110219 15.259 2.19345e-05ZM15.235 3.42702C14.81 4.13302 14.244 4.71102 13.542 5.16402C12.91 5.57102 12.22 5.83102 11.476 5.94102C10.08 6.14602 8.798 5.85002 7.638 5.05402C7.002 4.61802 6.491 4.07302 6.104 3.42702H7.777C8.487 4.17302 9.503 4.67302 10.682 4.67102C11.854 4.66702 12.861 4.16802 13.566 3.42702H15.235ZM10.003 9.12702C10.003 9.63302 10 10.141 10.005 10.646C10.007 10.966 10.177 11.207 10.454 11.302C10.864 11.442 11.294 11.165 11.334 10.733C11.339 10.679 11.339 10.623 11.339 10.567V7.69502C11.337 7.61202 11.337 7.52702 11.319 7.44702C11.246 7.12802 10.946 6.90602 10.633 6.92902C10.289 6.95302 10.026 7.22002 10.005 7.56602C10.002 7.62102 10.003 7.67702 10.003 7.73302V9.12702ZM2.928 7.75602C2.927 8.24802 3.488 8.57602 3.927 8.32102C3.991 8.28302 4.052 8.23302 4.105 8.18002C4.808 7.48002 5.507 6.77602 6.21 6.07702C6.372 5.91602 6.458 5.73002 6.434 5.49802C6.406 5.24102 6.271 5.05902 6.035 4.95802C5.8 4.85802 5.574 4.89002 5.367 5.04202C5.323 5.07602 5.284 5.11602 5.245 5.15402C4.558 5.84102 3.872 6.52802 3.184 7.21202C3.035 7.36002 2.938 7.52802 2.928 7.75602ZM14.902 5.56702C14.906 5.74802 14.966 5.90702 15.095 6.03702C15.241 6.18502 15.388 6.33202 15.533 6.47902C16.088 7.03202 16.644 7.58702 17.196 8.14202C17.305 8.25002 17.419 8.34902 17.574 8.38702C17.849 8.45502 18.127 8.35702 18.289 8.12502C18.448 7.90002 18.448 7.59502 18.289 7.36402C18.266 7.33002 18.239 7.29702 18.21 7.26802C17.484 6.54202 16.758 5.81602 16.031 5.09202C15.879 4.94102 15.692 4.88402 15.48 4.91102C15.146 4.95502 14.9 5.23402 14.902 5.56702Z" fill="white"/>
</svg>
