<svg width="15" height="12" viewBox="0 0 15 12" fill="none" xmlns="http://www.w3.org/2000/svg">
<path d="M14.171 5.27603L11.576 5.24903L11.582 4.64903L14.177 4.67503L14.171 5.27603ZM0.00499916 5.30903L0 4.71003L2.595 4.68303L2.602 5.28303L0.00499916 5.30903ZM6.225 1.95603V2.70003L6.036 2.77503C5.163 3.12703 4.586 3.88803 4.542 4.73403H3.942C3.983 3.70503 4.628 2.77703 5.624 2.30103V1.37603H8.504V2.30103C9.502 2.77603 10.148 3.70503 10.189 4.73403H9.587C9.543 3.88803 8.968 3.12703 8.093 2.77503L7.905 2.70003V1.95603H6.225ZM5.652 0.797031C5.738 0.508031 6.006 0.297031 6.322 0.297031H7.808C8.123 0.297031 8.391 0.508031 8.476 0.797031H5.652ZM4.637 5.46103C4.94 6.40403 5.913 7.09603 7.067 7.09603C8.216 7.09603 9.19 6.40403 9.493 5.46103H10.116C9.805 6.73803 8.555 7.69603 7.067 7.69603C5.575 7.69603 4.326 6.73803 4.014 5.46103H4.637ZM13.15 8.35803L10.841 7.17803L11.114 6.64403L13.422 7.82403L13.15 8.35803ZM1.028 8.39103L0.754 7.85703L3.064 6.67703L3.336 7.21303L1.028 8.39103ZM10.689 10.755L9.21 8.63203L9.702 8.29003L11.18 10.412L10.689 10.755ZM3.489 10.789L2.997 10.446L4.475 8.32303L4.967 8.66603L3.489 10.789ZM6.851 11.707L6.827 9.12603L7.426 9.11903L7.45 11.701L6.851 11.707Z" fill="white"/>
</svg>
