<svg width="21" height="13" viewBox="0 0 21 13" fill="none" xmlns="http://www.w3.org/2000/svg">
<path d="M6.56545 3.33534C6.56545 3.56534 6.50945 3.69134 6.33345 3.71834C6.13145 3.75134 6.01545 3.65234 5.96745 3.46034C5.81745 2.86434 5.66545 2.26734 5.51445 1.67034C5.46545 1.47534 5.41245 1.27834 5.38445 1.08034C5.36045 0.915338 5.45345 0.795337 5.61545 0.759337C5.76445 0.725337 5.90945 0.792337 5.94445 0.928337C6.16645 1.74934 6.37145 2.57334 6.56545 3.33534ZM11.9515 11.7723C11.9375 11.9233 11.8535 12.0373 11.6975 12.0753C11.5325 12.1153 11.4065 12.0313 11.3595 11.8753C11.2595 11.5323 11.1705 11.1863 11.0825 10.8403C10.9715 10.4073 10.8625 9.97534 10.7625 9.54034C10.7185 9.35134 10.7465 9.17134 10.9705 9.11634C11.1675 9.06834 11.3025 9.16934 11.3505 9.35634C11.5495 10.1333 11.7445 10.9143 11.9405 11.6943C11.9465 11.7163 11.9475 11.7373 11.9515 11.7723ZM14.9375 1.35934C14.8945 1.45334 14.8615 1.54934 14.8125 1.63634C14.4695 2.24134 14.1245 2.84334 13.7805 3.44634C13.6665 3.64734 13.5225 3.82834 13.2765 3.68534C13.0245 3.53634 13.1305 3.32534 13.2455 3.13034C13.6015 2.50834 13.9585 1.88634 14.3125 1.26634C14.3975 1.11434 14.5165 1.01934 14.6965 1.06434C14.8405 1.10034 14.9095 1.21334 14.9375 1.35934ZM13.4125 9.10734C13.5705 9.09534 13.6605 9.18734 13.7305 9.31234C14.1065 9.97034 14.4815 10.6283 14.8595 11.2863C14.9675 11.4743 14.9515 11.6433 14.7655 11.7453C14.5765 11.8503 14.4195 11.7563 14.3175 11.5783C13.9425 10.9183 13.5635 10.2623 13.1985 9.60034C13.0525 9.33534 13.1565 9.12034 13.4125 9.10734ZM2.40445 1.37734C2.39445 1.21334 2.46245 1.11234 2.58845 1.06734C2.74645 1.01234 2.87945 1.07034 2.96445 1.21034C3.11045 1.44934 3.24345 1.69334 3.38345 1.93734C3.61745 2.34434 3.84945 2.75234 4.08245 3.16134C4.19145 3.35234 4.26145 3.56134 4.02945 3.68834C3.80945 3.80734 3.66245 3.67734 3.54745 3.47034C3.21145 2.86334 2.86145 2.26734 2.51745 1.66434C2.46245 1.56834 2.38145 1.48134 2.40445 1.37734ZM2.40445 11.4723C2.39245 11.3653 2.45545 11.2843 2.50545 11.1973C2.85545 10.5853 3.20645 9.97434 3.54845 9.35834C3.66245 9.15734 3.80945 9.02434 4.03345 9.14934C4.25245 9.27234 4.19745 9.47634 4.09745 9.65034C3.73645 10.2933 3.36545 10.9313 3.00045 11.5723C2.90445 11.7373 2.77245 11.8253 2.58345 11.7663C2.45345 11.7253 2.39445 11.6143 2.40445 11.4723ZM10.7455 3.37534C10.8015 3.14834 10.8665 2.90034 10.9275 2.65134C11.0545 2.12934 11.1805 1.60734 11.3115 1.08934C11.3615 0.891337 11.4575 0.706337 11.6985 0.768337C11.9415 0.827337 11.9725 1.00834 11.9115 1.24334C11.7235 1.93634 11.5584 2.63134 11.3844 3.32434C11.3664 3.40034 11.3445 3.47834 11.3135 3.54734C11.2425 3.70034 11.1135 3.75634 10.9535 3.71034C10.8015 3.66734 10.7525 3.54734 10.7455 3.37534ZM8.96145 2.27834C8.96145 2.63734 8.95945 2.99534 8.96145 3.35634C8.96345 3.56334 8.89145 3.71434 8.66645 3.72334C8.43145 3.73034 8.35945 3.56834 8.35945 3.36734C8.35745 2.61534 8.35545 1.86434 8.35945 1.11234C8.35945 0.909337 8.43845 0.750338 8.66945 0.760338C8.89345 0.772338 8.96445 0.928337 8.96345 1.13434C8.95945 1.51534 8.96145 1.89834 8.96145 2.27834ZM8.96145 10.5953C8.96145 10.9643 8.95945 11.3323 8.96245 11.7003C8.96445 11.9073 8.88745 12.0683 8.67345 12.0763C8.43145 12.0863 8.35845 11.9113 8.35845 11.6943C8.36045 10.9573 8.35845 10.2193 8.36045 9.48334C8.36045 9.28934 8.40145 9.11334 8.64345 9.11334C8.89045 9.11134 8.96445 9.27234 8.96345 9.49034V10.5953H8.96145ZM9.04145 4.62334H15.6165C16.2665 4.62334 16.4615 4.75234 16.6915 5.35934C16.7505 5.51234 16.8465 5.52834 16.9785 5.52834C17.1605 5.52834 17.2884 5.61334 17.2934 5.80534C17.2984 6.00334 17.1795 6.12034 16.9815 6.11934C16.7885 6.11434 16.6985 6.16834 16.7005 6.38534C16.7005 6.60134 16.7374 6.72234 16.9904 6.71434C17.1614 6.70734 17.2925 6.81034 17.2945 7.00134C17.2985 7.21234 17.1694 7.30834 16.9734 7.30734C16.8004 7.30334 16.7245 7.36334 16.6775 7.54334C16.5665 7.96534 16.2605 8.19634 15.8135 8.20634C15.2325 8.22034 14.6485 8.21334 14.0655 8.21334H9.04145V7.61334H15.5025C16.0715 7.61334 16.1065 7.57534 16.1075 6.99534C16.1075 6.56034 16.1095 6.12034 16.1065 5.68534C16.1015 5.31034 16.0185 5.22234 15.6545 5.22234L9.04145 5.22034V4.62334ZM8.20745 8.21334H1.71445C1.06045 8.21334 0.854451 8.08534 0.619451 7.49234C0.561451 7.35234 0.48345 7.31134 0.34445 7.30834C0.16445 7.30234 0.00345051 7.24334 0.00145051 7.02334C-0.00254949 6.79534 0.15445 6.70234 0.35145 6.71134C0.59045 6.72234 0.592451 6.58534 0.593451 6.41234C0.595451 6.23634 0.584451 6.11034 0.348451 6.11634C0.156451 6.12234 -0.0105493 6.04034 -0.000549343 5.80534C0.00945066 5.58934 0.17145 5.52334 0.35145 5.53034C0.52345 5.53634 0.580451 5.44834 0.631451 5.30834C0.824451 4.79134 1.07345 4.62334 1.61745 4.62334H8.20745V5.22034H1.66245C1.30145 5.22034 1.21145 5.31434 1.20645 5.68734C1.19945 6.14634 1.20245 6.60534 1.20545 7.06434C1.20645 7.54334 1.27745 7.61334 1.74645 7.61334H8.20745V8.21334ZM6.56945 9.48934C6.44645 9.98534 6.30945 10.5403 6.17245 11.0933C6.11445 11.3333 6.04445 11.5683 5.98645 11.8083C5.93945 11.9993 5.82645 12.1153 5.62845 12.0833C5.40645 12.0463 5.34345 11.8713 5.39045 11.6753C5.51945 11.1183 5.66245 10.5643 5.79845 10.0103C5.85945 9.77234 5.91245 9.53134 5.98845 9.29634C6.03945 9.14134 6.17745 9.07434 6.33945 9.11034C6.50445 9.14534 6.58445 9.25734 6.56945 9.48934ZM20.1415 1.36634C20.1415 1.16334 20.0774 1.00334 19.9494 0.887338C19.8194 0.772338 19.6445 0.712337 19.4235 0.712337C19.2665 0.712337 19.1094 0.752337 18.9494 0.832337C18.7904 0.911337 18.6415 1.02534 18.5035 1.17434V0.710338C18.6275 0.581338 18.7664 0.483338 18.9244 0.415338C19.0814 0.347338 19.2654 0.313337 19.4774 0.313337C19.8184 0.313337 20.0935 0.404337 20.3015 0.586337C20.5105 0.771337 20.6145 1.01834 20.6145 1.33034C20.6145 1.60834 20.5505 1.85034 20.4225 2.05334C20.2955 2.25634 20.0775 2.46534 19.7675 2.67834C19.4525 2.89734 19.2415 3.05234 19.1345 3.14834C19.0285 3.24034 18.9534 3.33234 18.9104 3.41734C18.8694 3.50434 18.8465 3.60934 18.8465 3.73234H20.7264V4.15734H18.3495V3.96934C18.3495 3.75234 18.3784 3.56534 18.4384 3.41434C18.4984 3.26134 18.5955 3.11434 18.7325 2.97034C18.8695 2.82634 19.0834 2.65234 19.3724 2.45134C19.6694 2.24234 19.8705 2.06134 19.9785 1.90234C20.0865 1.74634 20.1415 1.56734 20.1415 1.36634Z" fill="white"/>
</svg>
