<svg width="29" height="13" viewBox="0 0 29 13" fill="none" xmlns="http://www.w3.org/2000/svg">
<path d="M9.86368 0.802606H8.40368V2.06861H9.75768V2.49761H8.40368V4.15161H7.91568V0.368606H9.86368V0.802606ZM6.91068 0.802606H5.45068V2.06861H6.80268V2.49761H5.45068V4.15161H4.96368V0.368606H6.91068V0.802606ZM0.85968 2.26461C0.85968 2.72261 0.97568 3.08961 1.21068 3.36561C1.44368 3.64061 1.74968 3.78061 2.12468 3.78061C2.52768 3.78061 2.84568 3.64761 3.07568 3.38261C3.25968 3.17061 3.37068 2.88961 3.40668 2.54261H3.92068C3.86968 3.00361 3.71068 3.38161 3.44268 3.67461C3.11368 4.03361 2.67668 4.21361 2.12468 4.21361C1.58868 4.21361 1.15768 4.03661 0.83368 3.68361C0.50968 3.33061 0.34668 2.87061 0.34668 2.30361C0.34668 1.69561 0.51168 1.20861 0.84268 0.846606C1.17468 0.487606 1.62068 0.304605 2.18568 0.304605C2.71268 0.304605 3.13468 0.482606 3.45468 0.834606C3.72968 1.13661 3.88568 1.51761 3.92668 1.97561H3.40568C3.36768 1.62961 3.25968 1.35161 3.08368 1.14261C2.85668 0.876606 2.55068 0.744606 2.15668 0.744606C1.77068 0.744606 1.45868 0.884606 1.21868 1.16461C0.979679 1.44561 0.85968 1.81061 0.85968 2.26461ZM17.3807 3.34361C17.3807 3.57461 17.3227 3.69961 17.1467 3.72761C16.9457 3.76061 16.8297 3.66061 16.7807 3.46961C16.6317 2.87261 16.4787 2.27661 16.3287 1.67861C16.2797 1.48461 16.2257 1.28761 16.1987 1.08861C16.1757 0.924606 16.2667 0.803606 16.4287 0.767606C16.5777 0.733606 16.7227 0.800605 16.7597 0.936605C16.9797 1.75761 17.1847 2.58261 17.3807 3.34361ZM22.7647 11.7806C22.7517 11.9316 22.6677 12.0456 22.5107 12.0836C22.3457 12.1236 22.2197 12.0406 22.1747 11.8836C22.0737 11.5406 21.9837 11.1956 21.8957 10.8496C21.7857 10.4166 21.6767 9.98461 21.5767 9.54861C21.5317 9.36061 21.5597 9.17961 21.7847 9.12461C21.9807 9.07661 22.1167 9.17761 22.1647 9.36561C22.3637 10.1416 22.5577 10.9226 22.7547 11.7026C22.7597 11.7246 22.7597 11.7456 22.7647 11.7806ZM25.7507 1.36861C25.7087 1.46161 25.6767 1.55761 25.6267 1.64461C25.2827 2.24961 24.9377 2.85161 24.5937 3.45461C24.4797 3.65661 24.3377 3.83661 24.0917 3.69361C23.8387 3.54561 23.9447 3.33361 24.0577 3.13861C24.4157 2.51661 24.7717 1.89461 25.1267 1.27461C25.2127 1.12261 25.3307 1.02761 25.5097 1.07261C25.6547 1.10861 25.7227 1.22161 25.7507 1.36861ZM24.2257 9.11561C24.3847 9.10461 24.4737 9.19561 24.5457 9.32061C24.9207 9.97861 25.2967 10.6366 25.6747 11.2946C25.7817 11.4826 25.7637 11.6516 25.5797 11.7536C25.3887 11.8586 25.2327 11.7646 25.1327 11.5866C24.7577 10.9276 24.3777 10.2726 24.0117 9.60861C23.8667 9.34361 23.9697 9.12861 24.2257 9.11561ZM13.2177 1.38561C13.2087 1.22161 13.2767 1.12161 13.4027 1.07561C13.5587 1.02061 13.6937 1.07961 13.7787 1.21861C13.9257 1.45761 14.0567 1.70161 14.1977 1.94561C14.4307 2.35261 14.6627 2.76161 14.8957 3.16961C15.0057 3.36061 15.0757 3.56961 14.8427 3.69661C14.6237 3.81661 14.4757 3.68661 14.3607 3.47961C14.0247 2.87261 13.6757 2.27561 13.3317 1.67261C13.2767 1.57661 13.1957 1.48961 13.2177 1.38561ZM13.2177 11.4796C13.2057 11.3736 13.2687 11.2936 13.3197 11.2066C13.6687 10.5936 14.0187 9.98261 14.3627 9.36661C14.4757 9.16561 14.6237 9.03361 14.8457 9.15761C15.0667 9.28061 15.0097 9.48461 14.9107 9.65861C14.5507 10.3026 14.1777 10.9396 13.8127 11.5816C13.7177 11.7456 13.5877 11.8336 13.3967 11.7756C13.2667 11.7346 13.2087 11.6236 13.2177 11.4796ZM21.5587 3.38361C21.6157 3.15661 21.6797 2.90861 21.7417 2.65961C21.8687 2.13861 21.9937 1.61561 22.1247 1.09761C22.1767 0.899606 22.2707 0.714606 22.5107 0.776606C22.7567 0.835606 22.7857 1.01661 22.7247 1.25261C22.5367 1.94461 22.3727 2.63961 22.1987 3.33261C22.1787 3.40861 22.1587 3.48761 22.1277 3.55561C22.0557 3.70861 21.9267 3.76461 21.7667 3.71961C21.6157 3.67661 21.5657 3.55561 21.5587 3.38361ZM19.7747 2.28661C19.7747 2.64561 19.7727 3.00461 19.7747 3.36461C19.7777 3.57261 19.7057 3.72261 19.4787 3.73161C19.2447 3.73961 19.1747 3.57661 19.1747 3.37561C19.1717 2.62361 19.1707 1.87361 19.1747 1.12061C19.1747 0.917605 19.2527 0.758606 19.4827 0.768606C19.7067 0.781606 19.7787 0.936606 19.7777 1.14261C19.7727 1.52461 19.7747 1.90661 19.7747 2.28661ZM19.7747 10.6036C19.7747 10.9726 19.7727 11.3406 19.7767 11.7086C19.7787 11.9156 19.7007 12.0766 19.4877 12.0846C19.2447 12.0946 19.1737 11.9196 19.1737 11.7026C19.1757 10.9656 19.1737 10.2276 19.1757 9.49161C19.1757 9.29761 19.2167 9.12161 19.4577 9.12161C19.7047 9.11961 19.7787 9.28161 19.7777 9.49861V10.6036H19.7747ZM19.8537 4.63161L26.4297 4.63261C27.0807 4.63261 27.2747 4.76161 27.5067 5.36861C27.5637 5.52061 27.6607 5.53661 27.7927 5.53661C27.9737 5.53661 28.1017 5.62161 28.1057 5.81261C28.1127 6.01161 27.9937 6.12961 27.7957 6.12761C27.6007 6.12261 27.5117 6.17761 27.5127 6.39361C27.5127 6.60961 27.5507 6.72961 27.8027 6.72261C27.9747 6.71561 28.1057 6.81861 28.1087 7.00961C28.1127 7.22061 27.9817 7.31661 27.7877 7.31561C27.6137 7.31261 27.5387 7.37161 27.4917 7.55261C27.3807 7.97361 27.0747 8.20461 26.6277 8.21561C26.0477 8.22861 25.4637 8.22161 24.8807 8.22161H19.8537V7.62161H26.3157C26.8847 7.62161 26.9217 7.58361 26.9227 7.00361C26.9227 6.56861 26.9247 6.12961 26.9217 5.69461C26.9157 5.31961 26.8327 5.23161 26.4677 5.23161L19.8537 5.22861V4.63161ZM19.0207 8.22161H12.5287C11.8747 8.22161 11.6687 8.09461 11.4317 7.50061C11.3757 7.36061 11.2987 7.31961 11.1577 7.31661C10.9767 7.31161 10.8167 7.25161 10.8137 7.03261C10.8107 6.80361 10.9677 6.71061 11.1657 6.72061C11.4047 6.72961 11.4057 6.59361 11.4077 6.42061C11.4097 6.24461 11.3967 6.11861 11.1627 6.12461C10.9687 6.13061 10.8017 6.04861 10.8127 5.81261C10.8227 5.59761 10.9857 5.53161 11.1657 5.53861C11.3387 5.54461 11.3937 5.45661 11.4457 5.31661C11.6377 4.80061 11.8867 4.63261 12.4307 4.63261L19.0207 4.63161V5.22861H12.4757C12.1157 5.22861 12.0237 5.32361 12.0197 5.69561C12.0127 6.15461 12.0157 6.61461 12.0187 7.07361C12.0197 7.55161 12.0917 7.62161 12.5597 7.62161H19.0207V8.22161ZM17.3847 9.49861C17.2597 9.99461 17.1237 10.5486 16.9867 11.1016C16.9277 11.3416 16.8577 11.5766 16.8007 11.8166C16.7547 12.0086 16.6397 12.1236 16.4427 12.0916C16.2197 12.0546 16.1577 11.8796 16.2047 11.6836C16.3337 11.1266 16.4747 10.5736 16.6117 10.0196C16.6737 9.78161 16.7247 9.53961 16.8017 9.30461C16.8527 9.14961 16.9917 9.08361 17.1537 9.11861C17.3177 9.15461 17.3967 9.26561 17.3847 9.49861Z" fill="white"/>
</svg>
