<svg width="14" height="15" viewBox="0 0 14 15" fill="none" xmlns="http://www.w3.org/2000/svg">
<path fill-rule="evenodd" clip-rule="evenodd" d="M4.97796 8.94928L6.35696 8.08028C6.48596 8.12828 6.63696 8.09628 6.73696 7.99128L7.08096 7.62328L8.35196 6.82128L10.138 7.91328L10.845 7.46728L8.61996 6.10628L8.57196 6.02928L8.82096 5.76128C8.95396 5.62028 8.94596 5.39728 8.80396 5.26428C8.66296 5.13328 8.43996 5.13928 8.30696 5.28228L8.18296 5.41428L7.71196 4.66828L7.07796 5.06928L7.65396 5.98128L6.75596 6.94028L4.69896 8.23928L3.94596 7.04528L3.31096 7.44528L4.21796 8.88328L4.48796 11.4783L5.19496 11.0323L4.97796 8.94928ZM0.997961 13.8663C0.865961 14.0073 0.642961 14.0133 0.500961 13.8823C0.359961 13.7503 0.351961 13.5273 0.484961 13.3863L2.37396 11.3653C2.50596 11.2233 2.72896 11.2163 2.87096 11.3483C3.01196 11.4813 3.01896 11.7043 2.88696 11.8453L0.997961 13.8663ZM11.342 3.29928C11.209 3.44128 10.987 3.44928 10.845 3.31628C10.704 3.18228 10.697 2.96128 10.83 2.81928L12.887 0.618279C13.019 0.476279 13.242 0.47028 13.383 0.60128C13.525 0.73528 13.533 0.95728 13.4 1.09828L11.342 3.29928ZM4.19196 3.96528C5.01896 3.44428 6.09796 3.66428 6.66696 4.44228L7.30296 4.04028C6.60596 3.05028 5.33096 2.69428 4.23096 3.12828V0.88728H7.24996C7.45696 0.88728 7.62596 0.72028 7.62596 0.51128C7.62596 0.30528 7.45696 0.13628 7.24996 0.13628H0.459961C0.252961 0.13628 0.0849609 0.30528 0.0849609 0.51128C0.0849609 0.72028 0.252961 0.88728 0.459961 0.88728H3.48096V3.57728C2.56196 4.37728 2.31296 5.72128 2.91996 6.80328L3.55696 6.40428C3.10096 5.55428 3.36596 4.48628 4.19196 3.96528ZM10.019 8.99028L8.82996 8.24028C8.65496 8.13028 8.42196 8.18328 8.31296 8.35828C8.20196 8.53328 8.25296 8.76428 8.42996 8.87628L9.61796 9.62528C9.74496 9.70528 9.89996 9.69928 10.019 9.62528C10.065 9.59528 10.105 9.55528 10.135 9.50828C10.246 9.33228 10.194 9.10028 10.019 8.99028ZM12.506 8.48228L11.559 7.90328L10.852 8.34828L12.116 9.12228C12.201 9.17328 12.211 9.25628 12.211 9.28928C12.211 9.32228 12.203 9.40628 12.119 9.45928L5.73796 13.4843C5.65296 13.5373 5.57496 13.5103 5.54496 13.4953C5.51396 13.4803 5.44396 13.4363 5.43296 13.3363L5.28096 11.8653L4.57396 12.3093L4.68796 13.4143C4.72196 13.7423 4.91896 14.0243 5.21596 14.1693C5.51396 14.3143 5.85896 14.2943 6.13696 14.1183L12.518 10.0943C12.798 9.91728 12.963 9.61428 12.961 9.28328C12.957 8.95328 12.788 8.65328 12.506 8.48228Z" fill="white"/>
</svg>
