<svg width="17" height="15" viewBox="0 0 17 15" fill="none" xmlns="http://www.w3.org/2000/svg">
<path d="M13.717 9.8991H12.963C12.334 9.8991 11.675 9.2981 11.403 8.1651H10.642C10.883 9.3711 11.496 10.1461 12.202 10.4681C12.197 10.4931 12.195 10.5181 12.195 10.5451C12.195 11.0431 12.517 11.4621 12.961 11.6201C12.851 12.6361 11.988 13.4321 10.942 13.4321C9.82101 13.4321 8.90901 12.5211 8.90901 11.4001V2.4921C9.70001 2.4081 10.504 2.0001 10.636 0.741096H14.415C14.62 0.741096 14.786 0.575096 14.786 0.371096C14.786 0.166096 14.62 9.53674e-05 14.415 9.53674e-05H8.89701V0.741096H9.89001C9.78901 1.4561 9.37501 1.7691 8.55401 1.7691C7.73101 1.7691 7.31701 1.4561 7.21801 0.741096H8.18801V9.53674e-05H2.72301C2.51901 9.53674e-05 2.35301 0.166096 2.35301 0.371096C2.35301 0.575096 2.51901 0.741096 2.72301 0.741096H6.47201C6.60201 1.9851 7.38701 2.3971 8.16901 2.4891V11.2611C8.15201 11.3041 8.14201 11.3511 8.14201 11.4001C8.14201 12.5211 7.23101 13.4321 6.11101 13.4321C5.07001 13.4321 4.21101 12.6461 4.09201 11.6361C4.56601 11.4951 4.91101 11.0621 4.91101 10.5451C4.91101 10.5181 4.90801 10.4931 4.90401 10.4681C5.61101 10.1471 6.22401 9.3711 6.46501 8.1651H5.70401C5.43301 9.2981 4.77201 9.8991 4.14401 9.8991H3.39101C2.76001 9.8991 2.10101 9.2981 1.82901 8.1651H1.06801C1.31001 9.3711 1.92301 10.1461 2.62901 10.4671C2.62301 10.4921 2.62101 10.5181 2.62101 10.5441C2.62101 11.0271 2.92201 11.4391 3.34801 11.6071C3.45301 13.0401 4.65101 14.1731 6.11001 14.1731C7.14601 14.1731 8.05001 13.6011 8.52601 12.7561C9.00101 13.6011 9.90401 14.1731 10.942 14.1731C12.396 14.1731 13.588 13.0481 13.702 11.6251C14.155 11.4721 14.486 11.0471 14.486 10.5441C14.486 10.5181 14.483 10.4921 14.478 10.4671C15.184 10.1471 15.798 9.3721 16.039 8.1651H15.279C15.006 9.2981 14.346 9.8991 13.717 9.8991ZM6.55901 7.4571C6.57001 7.3091 6.57401 7.1571 6.57401 7.0001V5.9471C6.57401 5.7421 6.40801 5.5771 6.20301 5.5771H5.50901C5.47101 5.4551 5.42001 5.3351 5.36001 5.2191C5.23601 4.9921 5.07301 4.7961 4.87801 4.6381C4.68901 4.4841 4.47401 4.3721 4.24001 4.3041C4.18801 4.2891 4.13401 4.2761 4.08001 4.2661V5.0311C4.20001 5.0711 4.31201 5.1331 4.41201 5.2141C4.53001 5.3101 4.62901 5.4311 4.70501 5.5721C4.70501 5.5721 4.70601 5.5751 4.70701 5.5771H2.80901C2.81401 5.5661 2.81901 5.5551 2.82301 5.5451C2.84301 5.5121 2.86301 5.4801 2.88701 5.4471C2.93201 5.3831 2.98201 5.3261 3.03501 5.2741C3.09201 5.2211 3.15301 5.1741 3.21801 5.1331C3.26701 5.1021 3.31901 5.0761 3.37101 5.0541V4.2791C3.17901 4.3231 2.99601 4.3981 2.82701 4.5031C2.72001 4.5691 2.61701 4.6481 2.52601 4.7361C2.43601 4.8211 2.35401 4.9171 2.28101 5.0171C2.24501 5.0671 2.21201 5.1211 2.18201 5.1751C2.15101 5.2291 2.12101 5.2851 2.09901 5.3371C2.07201 5.3931 2.04901 5.4521 2.02901 5.5101C2.02201 5.5331 2.01701 5.5541 2.01401 5.5761H1.32901C1.12401 5.5761 0.958008 5.7421 0.958008 5.9471V6.9991C0.958008 7.1561 0.964008 7.3091 0.975008 7.4571H1.71901C1.70701 7.3101 1.70001 7.1581 1.70001 7.0001V6.3181H5.83201V7.0001C5.83201 7.1581 5.82601 7.3101 5.81501 7.4571H6.55901ZM11.293 7.4571C11.281 7.3101 11.275 7.1581 11.275 7.0001V6.3181H15.406V7.0001C15.406 7.1581 15.401 7.3101 15.389 7.4571H16.133C16.143 7.3091 16.149 7.1571 16.149 7.0001V5.9471C16.149 5.7421 15.983 5.5771 15.778 5.5771H15.081C15.045 5.4551 14.993 5.3361 14.933 5.2211C14.811 4.9931 14.649 4.7971 14.452 4.6391C14.263 4.4851 14.049 4.3731 13.815 4.3041C13.779 4.2941 13.743 4.2851 13.707 4.2771V5.0511C13.808 5.0911 13.901 5.1461 13.987 5.2151C14.106 5.3121 14.203 5.4321 14.279 5.5721C14.279 5.5741 14.28 5.5751 14.281 5.5771H12.381C12.388 5.5661 12.392 5.5551 12.399 5.5441C12.416 5.5111 12.438 5.4791 12.459 5.4481C12.504 5.3841 12.555 5.3261 12.611 5.2741C12.665 5.2201 12.727 5.1731 12.79 5.1331C12.857 5.0921 12.927 5.0591 12.999 5.0341V4.2681C12.787 4.3091 12.585 4.3891 12.402 4.5031C12.294 4.5691 12.193 4.6481 12.1 4.7361C12.011 4.8191 11.927 4.9161 11.855 5.0201C11.82 5.0691 11.784 5.12309 11.758 5.17109C11.726 5.22609 11.696 5.2831 11.671 5.3371C11.647 5.3931 11.622 5.4531 11.603 5.5101C11.595 5.5331 11.591 5.5541 11.587 5.5771H10.904C10.698 5.5771 10.532 5.7421 10.532 5.9471V7.0001C10.532 7.1571 10.538 7.3091 10.548 7.4571H11.293ZM13.34 10.9481C13.152 10.9481 12.991 10.8171 12.948 10.6391C12.953 10.6391 12.958 10.6401 12.963 10.6401H13.717C13.722 10.6401 13.727 10.6391 13.732 10.6391C13.689 10.8171 13.53 10.9481 13.34 10.9481ZM3.39101 10.6401H4.14401C4.14901 10.6401 4.15301 10.6391 4.15701 10.6391C4.11401 10.8171 3.95601 10.9481 3.76701 10.9481C3.57601 10.9481 3.41901 10.8171 3.37501 10.6391C3.38101 10.6391 3.38601 10.6401 3.39101 10.6401Z" fill="white"/>
</svg>
