<svg width="15" height="15" viewBox="0 0 15 15" fill="none" xmlns="http://www.w3.org/2000/svg">
<path d="M13.992 13.3381L13.157 14.1731L11.903 12.0861L13.992 13.3381ZM13.156 8.2681L13.991 9.1031L11.903 10.3571L13.156 8.2681ZM14.287 10.6301V11.8111L11.925 11.2211L14.287 10.6301ZM0.295 9.1031L1.13 8.2681L2.383 10.3571L0.295 9.1031ZM1.131 14.1731L0.296 13.3381L2.383 12.0861L1.131 14.1731ZM0 11.8121V10.6301L2.361 11.2211L0 11.8121ZM4.561 10.3791C5.066 9.4731 6.035 8.8591 7.143 8.8591C8.252 8.8591 9.22 9.4731 9.723 10.3791H11.021C10.504 8.9841 9.252 7.9421 7.733 7.7251V1.9711C8.585 1.7161 9.209 0.935095 9.209 9.53674e-05H8.029C8.029 0.489095 7.632 0.886096 7.143 0.886096C6.654 0.886096 6.257 0.489095 6.257 9.53674e-05H5.076C5.076 0.935095 5.701 1.7161 6.553 1.9711V7.7241C5.034 7.9421 3.781 8.9841 3.264 10.3791H4.561ZM9.848 12.9921H4.437C4.274 12.6211 4.19 12.2211 4.19 11.8111C4.19 11.6121 4.211 11.4181 4.248 11.2301H3.049C3.022 11.4191 3.009 11.6131 3.009 11.8111C3.009 12.6911 3.286 13.5031 3.753 14.1731H10.532C11 13.5031 11.276 12.6911 11.276 11.8111C11.276 11.6131 11.263 11.4191 11.235 11.2301H10.037C10.075 11.4181 10.096 11.6121 10.096 11.8111C10.096 12.2211 10.011 12.6221 9.848 12.9921Z" fill="white"/>
</svg>
