<svg width="18" height="12" viewBox="0 0 18 12" fill="none" xmlns="http://www.w3.org/2000/svg">
<path fill-rule="evenodd" clip-rule="evenodd" d="M6.57051 9.2718C6.44751 9.7678 6.31051 10.3218 6.17451 10.8748C6.11551 11.1148 6.04551 11.3508 5.98751 11.5888C5.94051 11.7818 5.82751 11.8968 5.63051 11.8648C5.40751 11.8278 5.34451 11.6538 5.39151 11.4568C5.52051 10.8998 5.66251 10.3458 5.79951 9.7928C5.86051 9.5538 5.91351 9.3128 5.98951 9.0788C6.04051 8.9218 6.17851 8.8568 6.34151 8.8928C6.50551 8.9268 6.58451 9.0398 6.57051 9.2718ZM8.20851 7.9958H1.71651C1.06151 7.9958 0.855514 7.8678 0.619514 7.2738C0.562514 7.1328 0.484515 7.0918 0.344515 7.0888C0.164515 7.0848 0.00451481 7.0248 0.00151481 6.8058C-0.00148519 6.5768 0.155515 6.4838 0.352515 6.4938C0.591515 6.5028 0.592515 6.3668 0.594515 6.1938C0.596515 6.0188 0.584514 5.8928 0.349514 5.8988C0.156514 5.9038 -0.0104856 5.8218 0.000514407 5.5858C0.0105144 5.3718 0.173515 5.3058 0.352515 5.3118C0.524515 5.3178 0.581515 5.2298 0.633515 5.0888C0.825515 4.5738 1.07451 4.4058 1.61851 4.4058L8.20851 4.4048V5.0018H1.66351C1.30251 5.0018 1.21151 5.0968 1.20751 5.4678C1.20051 5.9268 1.20351 6.3868 1.20651 6.8458C1.20751 7.3248 1.27751 7.3958 1.74751 7.3958H8.20851V7.9958ZM9.04251 4.4048L15.6175 4.4058C16.2675 4.4058 16.4625 4.5348 16.6925 5.1418C16.7515 5.2938 16.8475 5.3108 16.9795 5.3108C17.1615 5.3108 17.2895 5.3948 17.2935 5.5858C17.2995 5.7848 17.1805 5.9028 16.9825 5.9008C16.7895 5.8968 16.6995 5.9508 16.7005 6.1668C16.7005 6.3818 16.7385 6.5028 16.9915 6.4958C17.1625 6.4888 17.2935 6.5908 17.2965 6.7828C17.2995 6.9948 17.1695 7.0888 16.9745 7.0878C16.8005 7.0858 16.7255 7.1458 16.6785 7.3258C16.5665 7.7478 16.2615 7.9788 15.8145 7.9888C15.2335 8.0018 14.6495 7.9958 14.0665 7.9958H9.04251V7.3958H15.5035C16.0715 7.3958 16.1075 7.3568 16.1085 6.7768C16.1085 6.3408 16.1105 5.9028 16.1075 5.4668C16.1025 5.0918 16.0195 5.0038 15.6545 5.0038L9.04251 5.0018V4.4048ZM8.96351 10.3768C8.96351 10.7468 8.96051 11.1138 8.96451 11.4818C8.96651 11.6888 8.88751 11.8508 8.67451 11.8578C8.43151 11.8678 8.35951 11.6928 8.35951 11.4768C8.36151 10.7388 8.35952 10.0008 8.36152 9.2658C8.36152 9.0708 8.40251 8.8958 8.64451 8.8948C8.89151 8.8938 8.96651 9.0548 8.96551 9.2718V10.3768H8.96351ZM8.96351 2.0608C8.96351 2.4188 8.96051 2.7778 8.96351 3.1368C8.96551 3.3448 8.89251 3.4968 8.66651 3.5038C8.43151 3.5118 8.36051 3.3508 8.36051 3.1488C8.35751 2.3968 8.35651 1.6468 8.36051 0.8948C8.36051 0.6908 8.43951 0.5318 8.67051 0.5428C8.89451 0.5538 8.96651 0.7098 8.96551 0.9168C8.96051 1.2968 8.96351 1.6798 8.96351 2.0608ZM10.7465 3.1568C10.8025 2.9308 10.8675 2.6818 10.9285 2.4338C11.0555 1.9118 11.1805 1.3898 11.3115 0.8708C11.3625 0.6718 11.4585 0.4878 11.6995 0.5488C11.9425 0.6088 11.9735 0.7898 11.9125 1.0248C11.7235 1.7168 11.5595 2.4138 11.3855 3.1058C11.3665 3.1818 11.3455 3.2598 11.3145 3.3288C11.2435 3.4818 11.1135 3.5388 10.9545 3.4928C10.8025 3.4498 10.7535 3.3288 10.7465 3.1568ZM2.40551 11.2528C2.39251 11.1468 2.45651 11.0668 2.50751 10.9798C2.85551 10.3668 3.20651 9.7548 3.54951 9.1408C3.66351 8.9388 3.81051 8.8068 4.03351 8.9318C4.25451 9.0528 4.19751 9.2568 4.09851 9.4318C3.73751 10.0758 3.36651 10.7118 3.00051 11.3548C2.90551 11.5188 2.77351 11.6068 2.58451 11.5478C2.45451 11.5068 2.39551 11.3968 2.40551 11.2528ZM2.40551 1.1588C2.39551 0.9958 2.46451 0.8948 2.59051 0.8488C2.74651 0.7938 2.88151 0.8528 2.96651 0.9918C3.11151 1.2308 3.24451 1.4758 3.38451 1.7178C3.61851 2.1258 3.84951 2.5348 4.08351 2.9428C4.19151 3.1328 4.26251 3.3418 4.02951 3.4688C3.81051 3.5888 3.66351 3.4598 3.54851 3.2528C3.21251 2.6458 2.86151 2.0478 2.51851 1.4458C2.46451 1.3498 2.38351 1.2618 2.40551 1.1588ZM13.4135 8.8898C13.5715 8.8778 13.6615 8.9678 13.7315 9.0928C14.1065 9.7518 14.4825 10.4108 14.8605 11.0678C14.9685 11.2548 14.9515 11.4238 14.7665 11.5268C14.5765 11.6308 14.4205 11.5388 14.3185 11.3598C13.9435 10.7008 13.5645 10.0448 13.1995 9.3808C13.0535 9.1168 13.1575 8.9018 13.4135 8.8898ZM14.9375 1.1418C14.8955 1.2348 14.8625 1.3318 14.8135 1.4178C14.4695 2.0228 14.1255 2.6248 13.7815 3.2288C13.6675 3.4288 13.5235 3.6098 13.2775 3.4658C13.0245 3.3188 13.1325 3.1078 13.2455 2.9118C13.6025 2.2898 13.9595 1.6678 14.3135 1.0468C14.3985 0.8958 14.5175 0.7998 14.6965 0.8448C14.8415 0.8808 14.9105 0.9948 14.9375 1.1418ZM11.9525 11.5528C11.9385 11.7048 11.8545 11.8188 11.6985 11.8568C11.5335 11.8968 11.4075 11.8138 11.3605 11.6568C11.2605 11.3138 11.1715 10.9678 11.0835 10.6228C10.9725 10.1898 10.8635 9.7568 10.7635 9.3218C10.7185 9.1328 10.7475 8.9528 10.9715 8.8978C11.1685 8.8498 11.3035 8.9518 11.3515 9.1378C11.5505 9.9158 11.7455 10.6958 11.9405 11.4768C11.9465 11.4978 11.9475 11.5198 11.9525 11.5528ZM6.56651 3.1168C6.56651 3.3478 6.50951 3.4738 6.33451 3.5008C6.13351 3.5328 6.01651 3.4348 5.96751 3.2428C5.81751 2.6468 5.66651 2.0488 5.51551 1.4518C5.46651 1.2568 5.41351 1.0608 5.38551 0.8618C5.36151 0.6978 5.45451 0.5778 5.61651 0.5408C5.76451 0.5058 5.91051 0.5738 5.94551 0.7098C6.16751 1.5308 6.37251 2.3558 6.56651 3.1168Z" fill="white"/>
</svg>
