<svg width="21" height="9" viewBox="0 0 21 9" fill="none" xmlns="http://www.w3.org/2000/svg">
<path d="M18.8805 6.58802C18.9435 6.66102 18.9755 6.75902 18.9655 6.85702C18.9595 6.95302 18.9135 7.04402 18.8385 7.10802L18.0615 7.76302C17.9855 7.82502 17.8905 7.85702 17.7935 7.84802C17.6955 7.83902 17.6075 7.79302 17.5455 7.71802L16.5425 6.52702H15.2215L16.7735 8.37602C17.0075 8.65302 17.3425 8.82602 17.7045 8.85902C18.0655 8.88902 18.4245 8.77602 18.7015 8.54102L19.4845 7.87602C19.7625 7.64202 19.9355 7.30702 19.9655 6.94402C19.9775 6.80402 19.9675 6.66302 19.9375 6.52702H18.8295L18.8805 6.58802ZM15.8245 5.67702L15.3555 5.11902L16.6945 3.98802L18.1145 5.67702H19.4205L18.6145 4.72102V1.36002H20.0665C20.3425 1.36002 20.5675 1.13702 20.5675 0.859025C20.5675 0.583025 20.3425 0.359025 20.0665 0.359025H1.02348C0.746483 0.359025 0.521484 0.583025 0.521484 0.859025C0.521484 1.13702 0.746483 1.36002 1.02348 1.36002H4.58348V3.52502L4.10948 2.96402C4.02448 2.86202 3.90148 2.79902 3.76948 2.78702C3.63648 2.77602 3.50548 2.81802 3.40248 2.90302L1.29648 4.68103C1.19348 4.76703 1.13048 4.88902 1.11848 5.02202C1.10848 5.15302 1.15048 5.28502 1.23448 5.38802L1.47848 5.67702H2.79548L2.32448 5.11902L3.66648 3.98802L5.08548 5.67702H6.39148L5.58448 4.72102V1.36002H11.0985V3.52502L10.6245 2.96402C10.5385 2.86202 10.4165 2.79902 10.2825 2.78702C10.1515 2.77602 10.0195 2.81802 9.91848 2.90302L7.81048 4.68103C7.70848 4.76703 7.64548 4.88902 7.63448 5.02202C7.62348 5.15302 7.66448 5.28502 7.75048 5.38802L7.99248 5.67702H9.31048L8.84048 5.11902L10.1805 3.98802L11.6005 5.67702H12.9055L12.1005 4.72102V1.36002H17.6115V3.52502L17.1395 2.96502C17.0535 2.86202 16.9315 2.79902 16.7985 2.78702C16.6665 2.77602 16.5335 2.81802 16.4325 2.90302L14.3245 4.68103C14.2235 4.76703 14.1595 4.88902 14.1495 5.02202C14.1375 5.15302 14.1795 5.28502 14.2655 5.38802L14.5085 5.67702H15.8245ZM12.3645 6.58802C12.4305 6.66102 12.4615 6.75902 12.4505 6.85702C12.4435 6.95302 12.3985 7.04402 12.3235 7.10802L11.5465 7.76302C11.4725 7.82502 11.3755 7.85702 11.2775 7.84802C11.1825 7.83902 11.0925 7.79302 11.0295 7.71802L10.0265 6.52702H8.70648L10.2585 8.37602C10.4925 8.65302 10.8265 8.82602 11.1895 8.85902C11.5505 8.88902 11.9105 8.77602 12.1885 8.54102L12.9695 7.87602C13.2465 7.64202 13.4215 7.30702 13.4505 6.94402C13.4635 6.80402 13.4535 6.66302 13.4225 6.52702H12.3155L12.3645 6.58802ZM5.85148 6.58802C5.91548 6.66102 5.94548 6.75902 5.93648 6.85702C5.92948 6.95302 5.88348 7.04402 5.80848 7.10802L5.03048 7.76302C4.95748 7.82502 4.86048 7.85702 4.76448 7.84802C4.66748 7.83902 4.57848 7.79302 4.51548 7.71802L3.51248 6.52702H2.19248L3.74448 8.37602C3.97848 8.65302 4.31348 8.82602 4.67448 8.85902C5.03648 8.88902 5.39548 8.77602 5.67348 8.54102L6.45548 7.87602C6.73348 7.64202 6.90448 7.30702 6.93648 6.94402C6.94748 6.80402 6.93848 6.66302 6.90748 6.52702H5.80048L5.85148 6.58802Z" fill="white"/>
</svg>
