<svg width="15" height="15" viewBox="0 0 15 15" fill="none" xmlns="http://www.w3.org/2000/svg">
<path fill-rule="evenodd" clip-rule="evenodd" d="M6.009 5.22807C5.923 5.04507 5.882 4.85607 5.881 4.67207H6.731C6.732 4.69307 6.734 4.71407 6.737 4.73607C7.003 4.65207 7.271 4.65407 7.537 4.73507C7.541 4.71307 7.544 4.69307 7.545 4.67207H8.392C8.391 4.86607 8.347 5.06507 8.255 5.25907C8.475 5.54307 8.628 5.86507 8.709 6.21807C8.732 6.31507 8.751 6.41107 8.766 6.50607H7.918C7.897 6.40107 7.866 6.29707 7.827 6.19607C7.748 5.99007 7.642 5.80107 7.473 5.65307C7.262 5.46407 7.015 5.45707 6.812 5.65107C6.709 5.74907 6.613 5.86307 6.55 5.98807C6.464 6.16007 6.402 6.33207 6.36 6.50607H5.503C5.538 6.29107 5.598 6.08007 5.682 5.87107C5.768 5.65607 5.891 5.45707 6.009 5.22807ZM5.978 4.19007C6.107 3.88307 6.361 3.62507 6.713 3.48107V2.51107C4.347 2.43107 2.119 1.84107 0.0190001 0.716072C0.151 0.473072 0.28 0.235072 0.407 7.24792e-05C4.897 2.24707 9.374 2.24607 13.863 0.00407219C13.866 0.00807219 13.881 0.0210722 13.89 0.0370722C14.011 0.259072 14.132 0.484072 14.259 0.716072C12.165 1.83907 9.939 2.43007 7.558 2.51107V3.00307V3.47407C7.912 3.61707 8.168 3.87707 8.297 4.19007H5.978ZM8.803 7.35607C8.764 7.81607 8.621 8.26007 8.353 8.68607C8.172 8.96907 7.931 9.19707 7.611 9.31707C7.06 9.52507 6.579 9.38607 6.168 8.98207C5.815 8.63407 5.628 8.19707 5.533 7.71807C5.509 7.59707 5.49 7.47707 5.478 7.35607H6.322C6.349 7.54307 6.396 7.73107 6.463 7.91907C6.533 8.11207 6.642 8.28507 6.799 8.42407C7.02 8.62407 7.267 8.62607 7.482 8.41707C7.578 8.32207 7.663 8.20707 7.732 8.08707C7.863 7.85807 7.926 7.61007 7.955 7.35607H8.803ZM3.203 13.0201C3.485 12.5321 3.758 12.0581 4.039 11.5711C4.281 11.7091 4.516 11.8451 4.765 11.9891C4.487 12.4711 4.211 12.9471 3.928 13.4391C3.685 13.2971 3.449 13.1631 3.203 13.0201ZM1.661 7.45207H0V6.63207H1.661V7.45207ZM14.279 7.45507H12.621V6.63107H14.279V7.45507ZM1.16 10.9761C1.018 10.7311 0.882 10.4961 0.741 10.2511C1.224 9.97207 1.702 9.69707 2.192 9.41507C2.331 9.65707 2.468 9.89207 2.61 10.1391C2.122 10.4201 1.647 10.6951 1.16 10.9761ZM7.553 14.1741H6.73V12.5211H7.553V14.1741ZM2.61 3.94407C2.468 4.18907 2.334 4.42107 2.192 4.66707C1.705 4.38807 1.228 4.11207 0.741 3.83207C0.882 3.58807 1.015 3.35607 1.159 3.10707C1.641 3.38507 2.116 3.65907 2.61 3.94407ZM11.668 3.94407C12.154 3.66407 12.63 3.38907 13.117 3.10707C13.26 3.35307 13.395 3.58807 13.536 3.83207C13.051 4.11107 12.575 4.38607 12.086 4.66807C11.946 4.42507 11.81 4.19007 11.668 3.94407ZM13.535 10.2511C13.393 10.4991 13.259 10.7311 13.117 10.9761C12.633 10.6971 12.155 10.4211 11.668 10.1391C11.811 9.89307 11.946 9.65707 12.086 9.41507C12.574 9.69707 13.049 9.97107 13.535 10.2511ZM10.349 13.4391C10.067 12.9501 9.791 12.4741 9.512 11.9901C9.755 11.8491 9.987 11.7141 10.236 11.5701C10.515 12.0521 10.792 12.5321 11.073 13.0191C10.833 13.1591 10.601 13.2921 10.349 13.4391Z" fill="white"/>
</svg>
