<svg width="27" height="13" viewBox="0 0 27 13" fill="none" xmlns="http://www.w3.org/2000/svg">
<path d="M15.6171 3.34361C15.6171 3.57461 15.5611 3.6996 15.3871 3.7276C15.1841 3.7606 15.0681 3.66061 15.0191 3.46861C14.8691 2.87261 14.7181 2.27661 14.5671 1.67861C14.5181 1.48461 14.4661 1.2876 14.4371 1.0886C14.4131 0.924605 14.5071 0.803605 14.6681 0.767605C14.8161 0.733605 14.9621 0.800605 14.9971 0.936605C15.2201 1.75761 15.4251 2.58261 15.6171 3.34361ZM21.0041 11.7806C20.9901 11.9316 20.9051 12.0456 20.7501 12.0836C20.5851 12.1236 20.4591 12.0406 20.4121 11.8836C20.3121 11.5406 20.2221 11.1956 20.1361 10.8496C20.0241 10.4166 19.9151 9.98461 19.8151 9.54861C19.7701 9.36061 19.8001 9.17961 20.0231 9.12461C20.2211 9.07661 20.3541 9.17761 20.4031 9.36461C20.6021 10.1416 20.7981 10.9226 20.9921 11.7026C20.9981 11.7246 20.9991 11.7456 21.0041 11.7806ZM23.9891 1.36861C23.9471 1.46161 23.9141 1.55761 23.8651 1.64461C23.5211 2.24961 23.1781 2.85161 22.8331 3.45461C22.7201 3.65561 22.5741 3.83661 22.3281 3.69361C22.0761 3.54561 22.1831 3.33361 22.2981 3.13861C22.6541 2.51661 23.0121 1.8946 23.3651 1.2746C23.4501 1.1226 23.5681 1.02761 23.7481 1.07261C23.8931 1.10861 23.9621 1.22161 23.9891 1.36861ZM22.4661 9.11561C22.6231 9.10561 22.7131 9.19561 22.7831 9.32061C23.1581 9.97861 23.5331 10.6366 23.9121 11.2946C24.0201 11.4826 24.0031 11.6516 23.8181 11.7536C23.6281 11.8586 23.4711 11.7646 23.3701 11.5866C22.9951 10.9266 22.6161 10.2726 22.2501 9.60861C22.1051 9.34361 22.2091 9.12861 22.4661 9.11561ZM11.4571 1.3856C11.4471 1.2216 11.5151 1.12161 11.6411 1.07561C11.7991 1.02061 11.9321 1.07961 12.0161 1.21861C12.1631 1.45761 12.2961 1.70161 12.4361 1.94561C12.6701 2.35261 12.9011 2.76161 13.1361 3.16961C13.2431 3.36061 13.3141 3.56961 13.0811 3.69661C12.8621 3.81661 12.7161 3.68661 12.5991 3.48061C12.2631 2.87261 11.9131 2.27561 11.5701 1.67261C11.5151 1.57661 11.4341 1.4896 11.4571 1.3856ZM11.4571 11.4806C11.4441 11.3736 11.5091 11.2936 11.5571 11.2066C11.9071 10.5936 12.2591 9.98261 12.6011 9.36661C12.7161 9.16561 12.8611 9.03361 13.0851 9.15761C13.3041 9.28061 13.2491 9.48461 13.1491 9.65861C12.7891 10.3016 12.4171 10.9396 12.0531 11.5816C11.9571 11.7456 11.8251 11.8336 11.6371 11.7756C11.5071 11.7346 11.4471 11.6236 11.4571 11.4806ZM19.7981 3.38361C19.8541 3.15661 19.9191 2.90861 19.9801 2.65961C20.1071 2.1386 20.2321 1.6156 20.3631 1.0976C20.4141 0.899605 20.5111 0.714606 20.7501 0.776606C20.9941 0.835606 21.0241 1.01661 20.9651 1.25261C20.7751 1.94461 20.6111 2.63961 20.4371 3.33261C20.4181 3.40861 20.3971 3.4876 20.3651 3.5556C20.2951 3.7086 20.1651 3.76461 20.0071 3.71961C19.8541 3.67661 19.8041 3.55561 19.7981 3.38361ZM18.0131 2.2866C18.0131 2.6456 18.0131 3.0046 18.0131 3.3646C18.0161 3.5726 17.9441 3.72261 17.7191 3.73161C17.4831 3.73961 17.4121 3.57661 17.4121 3.37561C17.4091 2.62361 17.4081 1.87361 17.4121 1.12061C17.4121 0.917605 17.4911 0.758605 17.7211 0.768605C17.9451 0.780605 18.0171 0.936605 18.0161 1.1426C18.0131 1.5246 18.0131 1.9066 18.0131 2.2866ZM18.0131 10.6036C18.0131 10.9726 18.0131 11.3406 18.0151 11.7086C18.0171 11.9156 17.9391 12.0766 17.7251 12.0846C17.4831 12.0946 17.4111 11.9196 17.4111 11.7026C17.4131 10.9656 17.4111 10.2276 17.4131 9.49161C17.4131 9.29761 17.4541 9.12161 17.6961 9.12161C17.9431 9.11961 18.0171 9.28061 18.0161 9.49861V10.6036H18.0131ZM18.0941 4.63161L24.6691 4.63261C25.3191 4.63261 25.5131 4.76161 25.7441 5.36861C25.8041 5.52061 25.8991 5.53661 26.0311 5.53661C26.2131 5.53661 26.3421 5.62161 26.3461 5.81361C26.3501 6.01161 26.2321 6.1296 26.0331 6.1276C25.8411 6.1226 25.7511 6.17761 25.7521 6.39361C25.7521 6.60961 25.7901 6.73061 26.0421 6.72261C26.2151 6.71561 26.3451 6.8186 26.3471 7.0096C26.3511 7.2206 26.2211 7.31661 26.0261 7.31561C25.8521 7.31361 25.7771 7.37161 25.7301 7.55261C25.6181 7.97361 25.3131 8.20461 24.8661 8.21561C24.2851 8.22861 23.7001 8.22161 23.1181 8.22161H18.0941V7.6216H24.5551C25.1231 7.6216 25.1591 7.58361 25.1601 7.00361C25.1601 6.56861 25.1621 6.12961 25.1591 5.69461C25.1541 5.31961 25.0711 5.23161 24.7061 5.23161L18.0941 5.22861V4.63161ZM17.2611 8.22161H10.7661C10.1131 8.22161 9.90713 8.09361 9.67113 7.50061C9.61413 7.36061 9.53613 7.31961 9.39613 7.31661C9.21713 7.31161 9.05513 7.25161 9.05413 7.03261C9.05113 6.80361 9.20713 6.71061 9.40313 6.72061C9.64313 6.73061 9.64413 6.59361 9.64513 6.42061C9.64813 6.24461 9.63713 6.11861 9.40113 6.12461C9.20813 6.13061 9.04113 6.04861 9.05313 5.81361C9.06113 5.59761 9.22413 5.53161 9.40313 5.53861C9.57613 5.54461 9.63313 5.45661 9.68413 5.31661C9.87713 4.80061 10.1261 4.63261 10.6701 4.63261L17.2611 4.63161V5.22861H10.7151C10.3541 5.22861 10.2631 5.32261 10.2601 5.69561C10.2521 6.15461 10.2551 6.61461 10.2581 7.07261C10.2601 7.55161 10.3291 7.6216 10.8001 7.6216H17.2611V8.22161ZM15.6221 9.49861C15.4991 9.99461 15.3621 10.5486 15.2251 11.1016C15.1671 11.3416 15.0961 11.5766 15.0381 11.8166C14.9921 12.0086 14.8781 12.1236 14.6811 12.0916C14.4581 12.0546 14.3951 11.8796 14.4431 11.6836C14.5721 11.1266 14.7151 10.5726 14.8501 10.0196C14.9111 9.78061 14.9651 9.53961 15.0411 9.30461C15.0931 9.14961 15.2301 9.08361 15.3921 9.11861C15.5561 9.15461 15.6371 9.26561 15.6221 9.49861ZM7.98913 4.15161H7.41113L5.51013 1.2086C5.45513 1.1246 5.41213 1.04261 5.38013 0.961605H5.36513C5.37813 1.04561 5.38613 1.2226 5.38613 1.4916V4.15161H4.90113V0.368606H5.51313L7.36413 3.25961C7.45213 3.39561 7.50513 3.48361 7.52013 3.51961H7.53013C7.51413 3.41261 7.50713 3.23061 7.50713 2.96861V0.368606H7.98913V4.15161ZM0.800133 2.26461C0.800133 2.72261 0.915133 3.0896 1.14913 3.3646C1.38413 3.6406 1.68713 3.78061 2.06313 3.78061C2.46813 3.78061 2.78413 3.64761 3.01413 3.38261C3.19913 3.17061 3.30813 2.88961 3.34613 2.54261H3.85813C3.80813 3.00361 3.64913 3.38161 3.38313 3.67461C3.05413 4.03361 2.61313 4.21361 2.06313 4.21361C1.52613 4.21361 1.09613 4.03661 0.771133 3.68361C0.447133 3.33061 0.286133 2.87061 0.286133 2.30361C0.286133 1.69561 0.451133 1.20861 0.782133 0.846605C1.11213 0.487605 1.55913 0.304605 2.12413 0.304605C2.65013 0.304605 3.07313 0.482605 3.39313 0.834605C3.66813 1.13661 3.82513 1.51761 3.86513 1.97561H3.34513C3.30613 1.62961 3.19913 1.3516 3.02113 1.1426C2.79613 0.876605 2.48713 0.744605 2.09613 0.744605C1.70913 0.744605 1.39613 0.884605 1.15713 1.16461C0.919133 1.44561 0.800133 1.81061 0.800133 2.26461Z" fill="white"/>
</svg>
