<svg width="20" height="13" viewBox="0 0 20 13" fill="none" xmlns="http://www.w3.org/2000/svg">
<path d="M6.8633 3.33534C6.8633 3.56534 6.8073 3.69134 6.6313 3.71834C6.4293 3.75134 6.3133 3.65234 6.2653 3.46034C6.1143 2.86434 5.9633 2.26734 5.8123 1.67034C5.7633 1.47534 5.7103 1.27834 5.6823 1.08034C5.6583 0.915338 5.7513 0.795337 5.9133 0.759337C6.0613 0.725337 6.2073 0.792337 6.2423 0.928337C6.4643 1.74934 6.6693 2.57334 6.8633 3.33534ZM12.2493 11.7723C12.2353 11.9233 12.1513 12.0373 11.9953 12.0753C11.8303 12.1153 11.7043 12.0313 11.6573 11.8753C11.5573 11.5323 11.4673 11.1863 11.3803 10.8403C11.2693 10.4073 11.1603 9.97534 11.0603 9.54034C11.0153 9.35134 11.0443 9.17134 11.2683 9.11634C11.4653 9.06834 11.6003 9.16934 11.6483 9.35634C11.8473 10.1333 12.0423 10.9143 12.2373 11.6943C12.2443 11.7163 12.2443 11.7373 12.2493 11.7723ZM15.2343 1.35934C15.1923 1.45334 15.1593 1.54934 15.1103 1.63634C14.7673 2.24134 14.4223 2.84334 14.0783 3.44634C13.9643 3.64734 13.8203 3.82834 13.5743 3.68534C13.3213 3.53634 13.4283 3.32534 13.5433 3.13034C13.8993 2.50834 14.2563 1.88634 14.6103 1.26634C14.6953 1.11434 14.8143 1.01934 14.9933 1.06434C15.1383 1.10034 15.2073 1.21334 15.2343 1.35934ZM13.7103 9.10734C13.8683 9.09534 13.9583 9.18734 14.0283 9.31234C14.4033 9.97034 14.7793 10.6283 15.1573 11.2863C15.2653 11.4743 15.2483 11.6433 15.0633 11.7453C14.8733 11.8503 14.7173 11.7563 14.6153 11.5783C14.2403 10.9183 13.8613 10.2623 13.4963 9.60034C13.3503 9.33534 13.4543 9.12034 13.7103 9.10734ZM2.7023 1.37734C2.6923 1.21334 2.7603 1.11234 2.8863 1.06734C3.0433 1.01234 3.1773 1.07034 3.2623 1.21034C3.4083 1.44934 3.5413 1.69334 3.6813 1.93734C3.9153 2.34434 4.1463 2.75234 4.3803 3.16134C4.4883 3.35234 4.5593 3.56134 4.3263 3.68834C4.1073 3.80734 3.9603 3.67734 3.8453 3.47034C3.5093 2.86334 3.1593 2.26734 2.8153 1.66434C2.7603 1.56834 2.6793 1.48134 2.7023 1.37734ZM2.7023 11.4723C2.6893 11.3653 2.7533 11.2843 2.8033 11.1973C3.1523 10.5853 3.5033 9.97434 3.8463 9.35834C3.9603 9.15734 4.1073 9.02434 4.3303 9.14934C4.5503 9.27234 4.4953 9.47634 4.3953 9.65034C4.0343 10.2933 3.6633 10.9313 3.2973 11.5723C3.2023 11.7373 3.0703 11.8253 2.8813 11.7663C2.7513 11.7253 2.6923 11.6143 2.7023 11.4723ZM11.0433 3.37534C11.0993 3.14834 11.1643 2.90034 11.2253 2.65134C11.3523 2.12934 11.4783 1.60734 11.6083 1.08934C11.6593 0.891337 11.7553 0.706337 11.9963 0.768337C12.2393 0.827337 12.2703 1.00834 12.2093 1.24334C12.0203 1.93634 11.8563 2.63134 11.6823 3.32434C11.6633 3.40034 11.6423 3.47834 11.6113 3.54734C11.5403 3.70034 11.4113 3.75634 11.2513 3.71034C11.0993 3.66734 11.0503 3.54734 11.0433 3.37534ZM9.2593 2.27834C9.2593 2.63734 9.2573 2.99534 9.2593 3.35634C9.2613 3.56334 9.1893 3.71434 8.9643 3.72334C8.7293 3.73034 8.6573 3.56834 8.6573 3.36734C8.6543 2.61534 8.6533 1.86434 8.6573 1.11234C8.6573 0.909337 8.7363 0.750338 8.9673 0.760338C9.1913 0.772338 9.2623 0.928337 9.2613 1.13434C9.2573 1.51534 9.2593 1.89834 9.2593 2.27834ZM9.2593 10.5953C9.2593 10.9643 9.2573 11.3323 9.2603 11.7003C9.2623 11.9073 9.1853 12.0683 8.9713 12.0763C8.7293 12.0863 8.6563 11.9113 8.6563 11.6943C8.6583 10.9573 8.6563 10.2193 8.6583 9.48334C8.6583 9.28934 8.6993 9.11334 8.9413 9.11334C9.1883 9.11134 9.2623 9.27234 9.2613 9.49034V10.5953H9.2593ZM9.3393 4.62334H15.9143C16.5643 4.62334 16.7593 4.75234 16.9893 5.35934C17.0483 5.51234 17.1443 5.52834 17.2763 5.52834C17.4583 5.52834 17.5863 5.61334 17.5913 5.80534C17.5963 6.00334 17.4773 6.12034 17.2793 6.11934C17.0863 6.11434 16.9963 6.16834 16.9973 6.38534C16.9973 6.60134 17.0353 6.72234 17.2883 6.71434C17.4593 6.70734 17.5903 6.81034 17.5923 7.00134C17.5963 7.21234 17.4663 7.30834 17.2713 7.30734C17.0973 7.30334 17.0223 7.36334 16.9753 7.54334C16.8633 7.96534 16.5583 8.19634 16.1113 8.20634C15.5303 8.22034 14.9463 8.21334 14.3633 8.21334H9.3393V7.61334H15.8003C16.3693 7.61334 16.4043 7.57534 16.4053 6.99534C16.4053 6.56034 16.4073 6.12034 16.4043 5.68534C16.3993 5.31034 16.3163 5.22234 15.9523 5.22234L9.3393 5.22034V4.62334ZM8.5053 8.21334H2.0123C1.3583 8.21334 1.1523 8.08534 0.916302 7.49234C0.859302 7.35234 0.781302 7.31134 0.642302 7.30834C0.462302 7.30234 0.301302 7.24334 0.298302 7.02334C0.295302 6.79534 0.452302 6.70234 0.649302 6.71134C0.888302 6.72234 0.890302 6.58534 0.891302 6.41234C0.893302 6.23634 0.882302 6.11034 0.646302 6.11634C0.454302 6.12234 0.287302 6.04034 0.297302 5.80534C0.307302 5.58934 0.469302 5.52334 0.649302 5.53034C0.821302 5.53634 0.878302 5.44834 0.929302 5.30834C1.1223 4.79134 1.3713 4.62334 1.9153 4.62334H8.5053V5.22034H1.9603C1.5993 5.22034 1.5093 5.31434 1.5043 5.68734C1.4973 6.14634 1.5003 6.60534 1.5033 7.06434C1.5043 7.54334 1.5753 7.61334 2.0443 7.61334H8.5053V8.21334ZM6.8673 9.48934C6.7443 9.98534 6.6073 10.5403 6.4703 11.0933C6.4123 11.3333 6.3423 11.5683 6.2843 11.8083C6.2373 11.9993 6.1243 12.1153 5.9263 12.0833C5.7043 12.0463 5.6413 11.8713 5.6883 11.6753C5.8173 11.1183 5.9593 10.5643 6.0963 10.0103C6.1573 9.77234 6.2103 9.53134 6.2863 9.29634C6.3373 9.14134 6.4753 9.07434 6.6373 9.11034C6.8023 9.14534 6.8823 9.25734 6.8673 9.48934ZM19.5263 4.17734V0.942338C19.4513 1.01834 19.3243 1.10334 19.1463 1.19434C18.9673 1.28734 18.8033 1.35334 18.6523 1.39034V0.920338C18.8513 0.865338 19.0663 0.776338 19.2943 0.656338C19.5213 0.534338 19.6973 0.419337 19.8193 0.313337H19.9993V4.17734H19.5263Z" fill="white"/>
</svg>
