<svg width="14" height="15" viewBox="0 0 14 15" fill="none" xmlns="http://www.w3.org/2000/svg">
<path fill-rule="evenodd" clip-rule="evenodd" d="M3.08379 9.35288C2.81779 9.10488 2.57679 8.82988 2.36579 8.53288H3.53479C3.60479 8.60488 3.67879 8.67488 3.75379 8.74388L4.95379 7.65088H2.86779C2.90179 7.70888 2.93779 7.76688 2.97479 7.82388H1.93779C1.62079 7.19388 1.42379 6.49388 1.37579 5.75188H2.27879C2.31779 6.25788 2.44179 6.74688 2.64079 7.19988H5.44879L10.3868 2.70488C9.63279 1.69288 8.46379 1.00888 7.13179 0.903881V-0.000118256C8.72879 0.104882 10.1358 0.902881 11.0558 2.09488L12.4898 0.789882C12.6658 0.629882 12.9378 0.642882 13.0978 0.817882C13.2578 0.993882 13.2448 1.26588 13.0688 1.42588L11.5308 2.82588C11.8928 3.49288 12.1178 4.24388 12.1698 5.04288H11.2658C11.2218 4.47788 11.0738 3.94188 10.8398 3.45488L6.72679 7.19988H10.9048C11.1038 6.74688 11.2268 6.25788 11.2668 5.75188H12.1698C12.1098 6.66688 11.8228 7.51988 11.3648 8.25488H10.2588C10.4148 8.06488 10.5548 7.86288 10.6778 7.65088H6.23079L4.26479 9.44188L4.26979 9.45388H9.29879C9.38479 9.25888 9.47679 9.10088 9.58579 8.96288H10.8388C10.6998 9.12188 10.5528 9.27188 10.3958 9.41288C10.1188 9.66288 9.92879 10.3229 9.73279 11.0709H8.80279L8.84279 10.9149L4.95079 11.8919C5.04479 12.2329 5.13279 12.4939 5.22879 12.7099L8.58979 11.8669L8.61379 11.7799H9.54879C9.47179 12.0689 9.38979 12.3549 9.29879 12.6239H8.33879C8.37079 12.5449 8.40179 12.4609 8.43379 12.3709L5.47679 13.1129C5.72579 13.3849 6.09679 13.4819 6.80879 13.4989C7.30779 13.5109 7.61979 13.4709 7.84579 13.3319H9.00479C8.57579 14.1409 7.94779 14.4269 6.78779 14.3999C5.54079 14.3709 4.84679 14.0569 4.41479 13.0989C4.17679 12.5689 4.01579 11.8999 3.86379 11.2739H4.79179L4.83679 11.4569L8.97579 10.4169C8.98079 10.3959 8.98679 10.3759 8.99279 10.3549H4.56479L4.61879 10.5649H3.68779C3.64279 10.3969 3.59579 10.2389 3.54679 10.0949L1.62179 11.8479C1.44579 12.0079 1.17479 11.9949 1.01479 11.8189C0.85479 11.6439 0.86679 11.3719 1.04279 11.2119L3.08379 9.35288ZM6.42379 0.903881C4.21479 1.07288 2.45079 2.83488 2.27879 5.04288H1.37579C1.55179 2.33688 3.71679 0.172882 6.42379 -0.000118256V0.903881ZM3.39279 5.41788C3.16679 5.41788 3.17779 5.08588 3.19679 4.93488C3.40479 3.30988 4.69379 2.02388 6.31879 1.81988C6.43279 1.80588 6.79279 1.79088 6.79279 2.01688C6.79279 2.24288 6.28379 2.27988 6.28379 2.27988C4.93379 2.48988 3.86479 3.55788 3.65579 4.90988C3.65579 4.90988 3.61779 5.41788 3.39279 5.41788Z" fill="white"/>
</svg>
