<svg width="15" height="13" viewBox="0 0 15 13" fill="none" xmlns="http://www.w3.org/2000/svg">
<path d="M4.23448 11.854L3.74148 11.512L4.23748 10.798L4.73048 11.14L4.23448 11.854ZM1.75948 9.55701L1.48748 9.02401L2.29648 8.60901L2.57148 9.14201L1.75948 9.55701ZM7.64348 9.78501C5.54648 9.78501 3.81348 8.34201 3.56548 6.48601H4.17148C4.41848 8.01001 5.88048 9.18501 7.64348 9.18501C9.40648 9.18501 10.8705 8.01001 11.1175 6.48601H11.7215C11.4745 8.34201 9.74148 9.78501 7.64348 9.78501ZM3.53748 5.90601C3.58548 4.52901 4.45848 3.28701 5.80648 2.66801V1.85101H6.40748V3.06801L6.21748 3.14401C4.99448 3.63701 4.18748 4.71201 4.13548 5.90601H3.53748ZM11.1525 5.90601C11.1005 4.71201 10.2935 3.63701 9.06948 3.14401L8.88048 3.06801V1.85101H9.48048V2.66801C10.8295 3.28701 11.7025 4.52901 11.7505 5.90601H11.1525ZM6.40648 1.43001H8.88048V1.31001H9.48148V2.03001H5.80548V1.31001H6.40648V1.43001ZM8.85748 0.731008C8.81848 0.653008 8.73848 0.600008 8.64548 0.600008H6.64148C6.54848 0.600008 6.46848 0.653008 6.43048 0.731008H5.81148C5.86248 0.319008 6.21548 7.62939e-06 6.64148 7.62939e-06H8.64548C9.07148 7.62939e-06 9.42348 0.319008 9.47448 0.731008H8.85748ZM0.569477 6.53501L0.563477 5.93401L1.61848 5.92401L1.62448 6.52401L0.569477 6.53501ZM7.86948 12.708L7.26848 12.702L7.27648 11.927L7.87548 11.932L7.86948 12.708ZM11.0695 11.966L10.5735 11.252L11.0665 10.911L11.5625 11.625L11.0695 11.966ZM13.5435 9.66901L12.7335 9.25401L13.0065 8.72101L13.8165 9.13601L13.5435 9.66901ZM14.7335 6.64701L13.6785 6.63601L13.6855 6.03701L14.7405 6.04601L14.7335 6.64701Z" fill="white"/>
</svg>
