<svg width="14" height="13" viewBox="0 0 14 13" fill="none" xmlns="http://www.w3.org/2000/svg">
<path fill-rule="evenodd" clip-rule="evenodd" d="M13.586 1.03596C13.756 1.03596 13.892 1.17297 13.892 1.34297C13.892 1.51197 13.756 1.64896 13.586 1.64896L12.854 1.65096L12.856 2.38396C12.856 2.55296 12.72 2.68997 12.55 2.68997C12.381 2.68997 12.243 2.55296 12.243 2.38396L12.242 1.65197L11.508 1.65396C11.34 1.65396 11.202 1.51597 11.202 1.34797C11.202 1.17897 11.34 1.04196 11.508 1.04196L12.239 1.03996L12.238 0.306965C12.238 0.136965 12.376 -3.52859e-05 12.545 -3.52859e-05C12.714 -3.52859e-05 12.851 0.136965 12.851 0.306965L12.853 1.03796L13.586 1.03596ZM10.178 0.990965C10.133 0.952965 10.075 0.934965 10.016 0.941965L3.663 1.76396C3.561 1.77696 3.484 1.86396 3.484 1.96696V3.20096V4.06396V9.39896C3.128 8.99096 2.573 8.72696 1.948 8.72696C0.873001 8.72696 0 9.50296 0 10.458C0 11.413 0.873001 12.189 1.948 12.189C3.023 12.189 3.894 11.413 3.894 10.458C3.894 10.39 3.89 10.324 3.881 10.258C3.888 10.236 3.894 10.212 3.894 10.187V4.24296L9.837 3.47396V7.34897C9.482 6.94097 8.927 6.67897 8.301 6.67897C7.224 6.67897 6.353 7.45297 6.353 8.40797C6.353 9.36497 7.224 10.14 8.301 10.14C9.376 10.14 10.247 9.36497 10.247 8.40797C10.247 8.38997 10.244 8.37096 10.244 8.35296C10.244 8.34796 10.247 8.34297 10.247 8.33697V3.24096V2.37897V1.14596C10.247 1.08696 10.222 1.03096 10.178 0.990965Z" fill="white"/>
</svg>
