<svg width="15" height="12" viewBox="0 0 15 12" fill="none" xmlns="http://www.w3.org/2000/svg">
<path fill-rule="evenodd" clip-rule="evenodd" d="M13.7659 0.249869C13.9339 0.249869 14.0689 0.385869 14.0689 0.553869C14.0689 0.720869 13.9339 0.85687 13.7659 0.85687L11.7079 0.860869C11.5409 0.860869 11.4049 0.725869 11.4049 0.558869C11.4049 0.391869 11.5409 0.255869 11.7079 0.255869L13.7659 0.249869ZM10.2489 0.0498695C10.2049 0.0118695 10.1489 -0.0051308 10.0889 0.0018692L3.79692 0.815869C3.69592 0.828869 3.61992 0.91487 3.61992 1.01687V2.23887V3.09287V8.37687C3.26792 7.97287 2.71892 7.71187 2.09892 7.71187C1.03392 7.71187 0.169922 8.47987 0.169922 9.42587C0.169922 10.3729 1.03392 11.1409 2.09892 11.1409C3.16192 11.1409 4.02592 10.3729 4.02592 9.42587C4.02592 9.35787 4.02192 9.29387 4.01192 9.22787C4.02092 9.20587 4.02592 9.18187 4.02592 9.15787V3.27087L9.91192 2.50887V6.34787C9.55992 5.94287 9.00992 5.68387 8.38992 5.68387C7.32592 5.68387 6.46092 6.44987 6.46092 7.39587C6.46092 8.34387 7.32592 9.10987 8.38992 9.10987C9.45392 9.10987 10.3179 8.34387 10.3179 7.39587C10.3179 7.37787 10.3159 7.35987 10.3149 7.34187C10.3149 7.33587 10.3179 7.33187 10.3179 7.32587V2.27787V1.42487V0.20387C10.3179 0.14487 10.2929 0.0888695 10.2489 0.0498695Z" fill="white"/>
</svg>
