<svg width="11" height="12" viewBox="0 0 11 12" fill="none" xmlns="http://www.w3.org/2000/svg">
<path fill-rule="evenodd" clip-rule="evenodd" d="M10.259 0.0513554C10.214 0.0123554 10.155 -0.00564483 10.096 0.00135517L3.692 0.830356C3.589 0.843356 3.512 0.931356 3.512 1.03536V2.27836V3.14836V8.52636C3.154 8.11536 2.593 7.84936 1.962 7.84936C0.879 7.84936 0 8.63136 0 9.59436C0 10.5574 0.879 11.3394 1.962 11.3394C3.047 11.3394 3.925 10.5574 3.925 9.59436C3.925 9.52536 3.92 9.45836 3.911 9.39136C3.919 9.36936 3.925 9.34536 3.925 9.32136V3.32936L9.916 2.55436V6.46036C9.557 6.05036 8.997 5.78436 8.366 5.78436C7.282 5.78436 6.405 6.56536 6.405 7.52936C6.405 8.49136 7.282 9.27336 8.366 9.27336C9.45 9.27336 10.329 8.49136 10.329 7.52936C10.329 7.50936 10.327 7.49136 10.326 7.47236C10.326 7.46736 10.329 7.46236 10.329 7.45636V2.31936V1.44836V0.206355C10.329 0.147355 10.304 0.0903554 10.259 0.0513554Z" fill="white"/>
</svg>
