<svg width="15" height="13" viewBox="0 0 15 13" fill="none" xmlns="http://www.w3.org/2000/svg">
<path d="M11.262 0.208924C11.218 0.168924 11.158 0.150924 11.099 0.158924L4.69499 0.986924C4.59199 1.00092 4.51599 1.08792 4.51599 1.19092V2.43592V3.30592V4.84092L4.92799 4.79592V3.48592L10.273 2.79392L4.92799 7.34492V5.65192L4.51599 5.69592V7.69592L3.90299 8.21792C3.62399 8.08292 3.30599 8.00592 2.96599 8.00592C1.88299 8.00592 1.00399 8.78792 1.00399 9.75092C1.00399 10.0249 1.07499 10.2859 1.20299 10.5169L0.13099 11.4299C-0.0250096 11.5629 -0.0450104 11.7989 0.0889896 11.9559C0.22199 12.1119 0.45799 12.1319 0.61499 11.9979L1.69499 11.0789C2.03599 11.3389 2.48099 11.4959 2.96599 11.4959C4.04999 11.4959 4.92799 10.7139 4.92799 9.75092C4.92799 9.68292 4.92299 9.61592 4.91399 9.54892C4.92299 9.52492 4.92799 9.50292 4.92799 9.47892V8.32592L10.92 3.22392V6.61692C10.561 6.20492 9.99899 5.94092 9.36799 5.94092C8.28399 5.94092 7.40799 6.72192 7.40799 7.68592C7.40799 8.64792 8.28399 9.42992 9.36799 9.42992C10.453 9.42992 11.331 8.64792 11.331 7.68592C11.331 7.66592 11.329 7.64692 11.329 7.62992C11.329 7.62392 11.331 7.61892 11.331 7.61292V2.87392L13.935 0.656924C14.091 0.523924 14.111 0.287924 13.977 0.130924C13.844 -0.0250758 13.608 -0.0450756 13.451 0.0889244L11.331 1.89292V1.60592V0.363924C11.331 0.304924 11.307 0.247924 11.262 0.208924ZM4.51599 8.67692V8.68492L4.51199 8.67992L4.51599 8.67692Z" fill="white"/>
</svg>
