<svg width="15" height="15" viewBox="0 0 15 15" fill="none" xmlns="http://www.w3.org/2000/svg">
<path d="M12.3224 5.50387C12.8364 4.54387 12.4854 3.34987 11.5334 2.81987C11.3584 2.72287 11.1374 2.78687 11.0404 2.96287C10.9434 3.13787 11.0074 3.35887 11.1824 3.45587C11.7874 3.79187 12.0114 4.55187 11.6844 5.16187C11.5904 5.33987 11.6564 5.55987 11.8334 5.65387C12.0104 5.74887 12.2304 5.68287 12.3254 5.50487L12.3224 5.50387Z" fill="white"/>
<path d="M12.0337 1.00471C11.8587 0.906709 11.6377 0.970709 11.5397 1.14571C11.4427 1.32071 11.5057 1.54171 11.6807 1.63971C13.3747 2.58171 13.9997 4.70771 13.0857 6.41671C12.9907 6.59371 13.0567 6.81471 13.2337 6.90871C13.4107 7.00371 13.6307 6.93671 13.7257 6.75971C14.8267 4.70071 14.0747 2.13971 12.0337 1.00471Z" fill="white"/>
<path d="M1.75599 4.00089C1.60699 4.50289 1.66199 5.04289 1.90999 5.50389C2.00499 5.68089 2.22499 5.74689 2.40199 5.65189C2.57799 5.55789 2.64499 5.33789 2.54999 5.16089C2.22399 4.55189 2.44599 3.79289 3.04999 3.45589C3.22499 3.35789 3.28799 3.13789 3.19099 2.96289C3.09299 2.78689 2.87199 2.72389 2.69699 2.82089C2.23999 3.07489 1.90199 3.49889 1.75599 4.00089Z" fill="white"/>
<path d="M0.827973 6.95215C1.02897 6.95115 1.19097 6.78915 1.19097 6.58815C1.18997 6.52815 1.17597 6.47015 1.14797 6.41715C0.231973 4.70815 0.856973 2.58015 2.55197 1.63815C2.72697 1.54115 2.78997 1.31915 2.69297 1.14415C2.59597 0.969148 2.37397 0.906149 2.19897 1.00315C0.157973 2.13915 -0.595027 4.70115 0.506973 6.76015C0.570973 6.87815 0.693973 6.95215 0.827973 6.95215Z" fill="white"/>
<path d="M7.71502 12.8476C7.71502 13.1786 7.44702 13.4476 7.11602 13.4476C6.78502 13.4476 6.51702 13.1786 6.51702 12.8476C6.51702 12.6476 6.35402 12.4846 6.15402 12.4846C5.95302 12.4846 5.79102 12.6476 5.79102 12.8476C5.79102 13.5796 6.38402 14.1726 7.11602 14.1726C7.84802 14.1726 8.44102 13.5796 8.44102 12.8476C8.44102 12.6476 8.27802 12.4846 8.07802 12.4846C7.87802 12.4846 7.71502 12.6476 7.71502 12.8476Z" fill="white"/>
<path d="M3.01415 10.746C2.87315 10.473 2.92515 10.138 3.14315 9.92002L3.30015 9.76402C3.79515 9.26902 4.07115 8.59902 4.06715 7.90002V5.71202V5.51402C4.16115 4.02802 5.44815 2.86502 6.99515 2.86502H7.21615C8.76215 2.86502 10.0482 4.02702 10.1432 5.51402V5.71202V7.81202C10.1432 8.44102 10.3682 9.05002 10.7782 9.52602L11.1092 9.91302C11.2192 10.041 11.2792 10.204 11.2792 10.373V10.427C11.2782 10.817 10.9622 11.134 10.5722 11.134H3.68515C3.40615 11.142 3.14715 10.992 3.01415 10.746ZM6.61015 1.23402C6.61015 0.953024 6.83815 0.725024 7.11815 0.725024C7.39915 0.725024 7.62715 0.953024 7.62715 1.23402V2.16102C7.49515 2.14602 7.36315 2.14002 7.23015 2.13902H7.00715C6.87415 2.14002 6.74215 2.14602 6.61015 2.16102V1.23402ZM12.0242 10.427V10.379C12.0242 10.036 11.9012 9.70502 11.6792 9.44502L11.3472 9.05902C11.0522 8.71102 10.8902 8.26902 10.8932 7.81202V5.71202C10.8932 5.62902 10.8902 5.54802 10.8862 5.46802C10.7742 3.99202 9.76615 2.73802 8.35015 2.31102V1.23402C8.35015 0.553024 7.79715 2.38419e-05 7.11615 2.38419e-05C6.43315 2.38419e-05 5.88115 0.553024 5.88115 1.23402V2.31102C4.46815 2.74102 3.46415 3.99502 3.35415 5.46802C3.34915 5.54802 3.34715 5.62902 3.34715 5.71202V7.90002C3.34815 8.40602 3.14715 8.89202 2.78815 9.24802L2.63115 9.41002C2.19515 9.85002 2.08715 10.517 2.36415 11.072C2.62115 11.561 3.13215 11.865 3.68515 11.857H10.5892C11.3802 11.856 12.0212 11.218 12.0242 10.427Z" fill="white"/>
<path d="M7.00602 3.74706C5.90102 3.74706 4.98302 4.56806 4.91602 5.61506V5.76106V7.01906C4.91602 7.22106 5.07902 7.38306 5.27902 7.38306C5.48002 7.38306 5.64202 7.22106 5.64202 7.01906V5.76606V5.66806C5.68402 5.00106 6.28402 4.47806 7.00702 4.47806C7.20802 4.47806 7.37002 4.31606 7.37002 4.11506C7.37002 3.91506 7.20802 3.75306 7.00702 3.75306L7.00602 3.74706Z" fill="white"/>
</svg>
